<svg width="4818" height="2687" viewBox="0 0 4818 2687" fill="none" xmlns="http://www.w3.org/2000/svg">
<path d="M2281.23 1097H2282.24M2282.24 1097H2724.64M2282.24 1097C2112.55 1097 1975 1234 1975 1403M2282.24 1097C2112.55 1097 1975 959.999 1975 791M3026.96 1097H4828" stroke="#979797" stroke-width="10" stroke-dasharray="64 36"/>
<path d="M-3 2225H1698.5C1829.39 2225 1935.5 2118.89 1935.5 1988V1349M1978 1348.5V1991C1978 2143.43 1854.43 2267 1702 2267H-3M1935.5 0V1350M1977.5 0L1978 1350" stroke="#FFE661" stroke-width="19"/>
<path d="M2549.26 1356H2550.26M2550.26 1356H4834.5M2550.26 1356C2380.43 1356 2242.75 1493.04 2242.75 1662.1V1978C2242.75 2353 2032 2528 1692.75 2528H-12.5M2552.04 838H2553.04M2553.04 838H4834.5M2553.04 838C2384.02 838 2247 700.956 2247 531.904V0" stroke="white" stroke-width="12"/>
<path d="M-17.5 1974H1560C1630.14 1974 1687 1917.14 1687 1847V-1.5" stroke="white" stroke-width="16"/>
<path d="M2748 864H3003.18V914.738H2748V864Z" fill="#FFE661"/>
<path d="M2748 947.105H3003.18V997.843H2748V947.105Z" fill="#FFE661"/>
<path d="M2748 1030.21H3003.18V1080.95H2748V1030.21Z" fill="#FFE661"/>
<path d="M2748 1113.32H3003.18V1164.05H2748V1113.32Z" fill="#FFE661"/>
<path d="M2748 1196.42H3003.18V1247.16H2748V1196.42Z" fill="#FFE661"/>
<path d="M2748 1279.53H3003.18V1330.26H2748V1279.53Z" fill="#FFE661"/>
<path d="M2489 823L2489 590" stroke="white" stroke-width="12" stroke-linecap="round"/>
<path d="M2497.22 388.512L2604.76 568.382C2608.34 574.381 2604.02 582 2597.03 582H2381.97C2374.98 582 2370.66 574.381 2374.24 568.382L2481.78 388.512C2485.27 382.67 2493.73 382.67 2497.22 388.512Z" fill="white" stroke="#3F94F9" stroke-width="16"/>
<path d="M2447.5 538.5H2433.5L2420 558.5H2439L2447.5 538.5Z" fill="#141414"/>
<path d="M2479.5 558.5L2482.5 538.5H2494.5L2497 558.5H2479.5Z" fill="#141414"/>
<path d="M2543.5 538.5H2530L2538 558.5H2556.5L2543.5 538.5Z" fill="#141414"/>
<path d="M2519.5 549.5C2521 556 2510 560 2508 551.5L2501.5 525C2495.17 518.5 2481.9 505 2479.5 503C2476.5 500.5 2476 498.5 2476 495V473C2474.83 473.667 2471.9 475.3 2469.5 476.5C2466.5 478 2466 479.5 2466 482V496.5C2466 504 2457 503.5 2457 496C2457 491.6 2457.33 482.5 2457.5 478.5C2457.33 476.833 2457.7 473.1 2460.5 471.5C2464 469.5 2481 460 2483.5 460C2486 460 2490 463.5 2492.5 464.5C2495 465.5 2495 467 2495 469.5V499.5L2511 515.5C2513.33 524.667 2518.3 544.3 2519.5 549.5Z" fill="#141414"/>
<path d="M2485.5 513.5L2477.5 505.5C2470.5 517 2455.6 541.5 2452 547.5C2447.5 555 2457.46 560.5 2463 551.5C2466.2 546.3 2479.33 524 2485.5 513.5Z" fill="#141414"/>
<path d="M2494 461C2491.2 461 2487.17 458.333 2485.5 457C2484.33 455.833 2481.9 453.1 2481.5 451.5C2481 449.5 2481 446.5 2484 443.5C2487 440.5 2492 441 2496 443C2500 445 2501.5 449 2501.5 453C2501.5 457 2497.5 461 2494 461Z" fill="#141414"/>
<path d="M2499 493V481C2503.17 485.167 2512.59 494.094 2516 497.5C2519.5 501 2513 507.5 2509 503.5C2505.8 500.3 2501 495.167 2499 493Z" fill="#141414"/>
<path d="M2301 2360V2354H2295V2360H2301ZM2341 2687H2347V2675H2341V2687ZM2260 2675H2254V2687H2260V2675ZM2549 2687H2555V2675H2549V2687ZM2468 2675H2462V2687H2468V2675ZM2757 2687H2763V2675H2757V2687ZM2676 2675H2670V2687H2676V2675ZM2965 2687H2971V2675H2965V2687ZM2884 2675H2878V2687H2884V2675ZM3170 2687H3176V2675H3170V2687ZM3089 2675H3083V2687H3089V2675ZM3374 2687H3380V2675H3374V2687ZM3293 2675H3287V2687H3293V2675ZM4786 2360H4792V2354H4786V2360ZM3540.5 2360V2354H3534.5V2360H3540.5ZM3580.5 2687H3586.5V2675H3580.5V2687ZM3499.5 2675H3493.5V2687H3499.5V2675ZM3798.5 2687H3804.5V2675H3798.5V2687ZM3717.5 2675H3711.5V2687H3717.5V2675ZM4006.5 2687H4012.5V2675H4006.5V2687ZM3925.5 2675H3919.5V2687H3925.5V2675ZM4214.5 2687H4220.5V2675H4214.5V2687ZM4133.5 2675H4127.5V2687H4133.5V2675ZM4379.5 2360H4385.5V2354H4379.5V2360ZM4419.5 2687H4425.5V2675H4419.5V2687ZM4338.5 2675H4332.5V2687H4338.5V2675ZM4623.5 2687H4629.5V2675H4623.5V2687ZM4542.5 2675H4536.5V2687H4542.5V2675ZM4826 2687H4832V2675H4826V2687ZM4745 2675H4739V2687H4745V2675ZM2402 2045L2402 2360H2414L2414 2045L2402 2045ZM2368 2045H2449V2033H2368V2045ZM2307 2675L2307 2360H2295L2295 2675H2307ZM2341 2675H2260V2687H2341V2675ZM2515 2675L2515 2360H2503L2503 2675H2515ZM2549 2675H2468V2687H2549V2675ZM2723 2675V2360H2711V2675H2723ZM2757 2675H2676V2687H2757V2675ZM2931 2675V2360H2919V2675H2931ZM2965 2675H2884V2687H2965V2675ZM3136 2675V2360H3124V2675H3136ZM3170 2675H3089V2687H3170V2675ZM2607 2045V2360H2619V2045H2607ZM2573 2045H2654V2033H2573V2045ZM2812 2045V2360H2824V2045H2812ZM2778 2045H2859V2033H2778V2045ZM3023 2045V2360H3035V2045H3023ZM2989 2045H3070V2033H2989V2045ZM2301 2366H3130V2354H2301V2366ZM3340 2675V2360H3328V2675H3340ZM3374 2675H3293V2687H3374V2675ZM3227 2045V2360H3239V2045H3227ZM3193 2045H3274V2033H3193V2045ZM3428 2045V2360H3440V2045H3428ZM3394 2045H3475V2033H3394V2045ZM3130 2366H4786V2354H3130V2366ZM3636.5 2045V2360H3648.5V2045H3636.5ZM3602.5 2045H3683.5V2033H3602.5V2045ZM3546.5 2675V2360H3534.5V2675H3546.5ZM3580.5 2675H3499.5V2687H3580.5V2675ZM3764.5 2675V2360H3752.5V2675H3764.5ZM3798.5 2675H3717.5V2687H3798.5V2675ZM3972.5 2675V2360H3960.5V2675H3972.5ZM4006.5 2675H3925.5V2687H4006.5V2675ZM4180.5 2675V2360H4168.5V2675H4180.5ZM4214.5 2675H4133.5V2687H4214.5V2675ZM4385.5 2675V2360H4373.5V2675H4385.5ZM4419.5 2675H4338.5V2687H4419.5V2675ZM3856.5 2045V2360H3868.5V2045H3856.5ZM3822.5 2045H3903.5V2033H3822.5V2045ZM4061.5 2045V2360H4073.5V2045H4061.5ZM4027.5 2045H4108.5V2033H4027.5V2045ZM4272.5 2045V2360H4284.5V2045H4272.5ZM4238.5 2045H4319.5V2033H4238.5V2045ZM3540.5 2366H4379.5V2354H3540.5V2366ZM4589.5 2675V2360H4577.5V2675H4589.5ZM4623.5 2675H4542.5V2687H4623.5V2675ZM4476.5 2045V2360H4488.5V2045H4476.5ZM4442.5 2045H4523.5V2033H4442.5V2045ZM4677.5 2045V2360H4689.5V2045H4677.5ZM4643.5 2045H4724.5V2033H4643.5V2045ZM4792 2675V2360H4780V2675H4792ZM4826 2675H4745V2687H4826V2675Z" fill="white"/>
<path d="M2878 1442H3033.5H2878ZM3203 1767V1922.5V1767ZM2722.5 1362L2722.5 1442H3033.5L3033.5 1362H2722.5ZM3203 1922.5H4831V1611.5H3203V1922.5ZM2722.5 1442C2722.5 1707.37 2937.63 1922.5 3203 1922.5V1611.5C3109.39 1611.5 3033.5 1535.61 3033.5 1442H2722.5ZM2722.81 6.8003e-06L2722.81 832.085H3033.81L3033.81 -6.8003e-06L2722.81 6.8003e-06Z" fill="#242424"/>
</svg>
