<svg width="753" height="1284" viewBox="0 0 753 1284" fill="none" xmlns="http://www.w3.org/2000/svg">
<path d="M247 1198L247 1276M509 1198V1276" stroke="white" stroke-width="16" stroke-linecap="round" stroke-linejoin="round"/>
<rect width="753" height="1243" rx="25" fill="#FFE661"/>
<path d="M109.076 418L75 444.597L109.076 472V460.716H187V430.291H109.076V418Z" fill="#141414"/>
<path d="M109.076 745L75 771.597L109.076 799V787.716H187V757.291H109.076V745Z" fill="#141414"/>
<path d="M109.076 1080L75 1106.6L109.076 1134V1122.72H187V1092.29H109.076V1080Z" fill="#141414"/>
<path d="M377.642 130.372H371.461V108H377.642V130.372ZM371 140.29V133.094H378.196V140.29H371Z" fill="#141414"/>
<path d="M380.119 84.75L412.595 141C415.096 145.333 411.969 150.75 406.965 150.75H342.013C337.01 150.75 333.882 145.333 336.384 141L368.86 84.75C371.362 80.4167 377.617 80.4167 380.119 84.75Z" stroke="black" stroke-width="5"/>
</svg>
