<svg width="4818" height="1520" viewBox="0 0 4818 1520" fill="none" xmlns="http://www.w3.org/2000/svg">
<path d="M1912.87 739.836H1986.91C1992.28 749.909 2000.68 758.136 2012.09 764.516C2023.51 770.56 2035.6 773.582 2048.36 773.582C2062.13 773.582 2074.21 770.56 2084.62 764.516C2095.37 758.136 2100.74 750.581 2100.74 741.851C2100.74 734.128 2097.72 728.251 2091.67 724.222C2085.97 720.193 2078.24 718.178 2068.51 718.178H2028.21C1997.99 718.178 1972.98 710.959 1953.17 696.52C1933.35 682.082 1923.45 661.767 1923.45 635.576C1923.45 607.707 1935.2 584.202 1958.71 565.063C1982.21 545.587 2009.07 535.85 2039.29 535.85C2068.51 535.85 2094.53 544.748 2117.36 562.544C2140.19 580.34 2157.49 603.845 2169.24 633.058H2095.7C2091 623.32 2083.28 615.262 2072.54 608.882C2062.13 602.502 2051.05 599.312 2039.29 599.312C2026.53 599.312 2015.28 602.67 2005.55 609.385C1995.81 615.765 1990.94 623.488 1990.94 632.554C1990.94 639.27 1994.13 644.642 2000.51 648.672C2007.23 652.701 2015.12 654.716 2024.18 654.716H2058.94C2089.49 654.716 2115.35 662.607 2136.5 678.388C2157.66 693.834 2168.23 714.317 2168.23 739.836C2168.23 767.034 2155.81 790.035 2130.96 808.839C2106.11 827.642 2078.08 837.044 2046.85 837.044C2017.3 837.044 1990.6 828.146 1966.76 810.35C1943.26 792.553 1925.3 769.049 1912.87 739.836Z" fill="white"/>
<path d="M2207 654H1885" stroke="#979797" stroke-width="3" stroke-dasharray="10 10"/>
<path d="M2207 718H1885" stroke="#979797" stroke-width="3" stroke-dasharray="10 10"/>
<path d="M2067.34 1171H2029.54L1978.25 1051.45V1171H1925.03V901.039H1970.54L2048.44 1082.68L2126.34 901.039H2171.85V1171H2118.63V1051.45L2067.34 1171Z" fill="white"/>
<path d="M2207 1081H1885" stroke="#979797" stroke-width="3" stroke-dasharray="10 10"/>
<path d="M2207 1171H1885" stroke="#979797" stroke-width="3" stroke-dasharray="10 10"/>
<path d="M1918.56 374.858C1918.56 350.346 1927.46 329.528 1945.26 312.403C1963.39 295.278 1985.21 286.716 2010.73 286.716H2066.64C2074.03 286.716 2080.41 285.037 2085.78 281.679C2091.15 278.321 2093.84 274.124 2093.84 269.087C2093.84 258.678 2088.97 249.78 2079.23 242.393C2069.5 234.67 2058.08 230.808 2044.98 230.808C2022.15 230.808 2004.19 242.057 1991.09 264.554H1917.05C1927.46 236.013 1944.08 212.844 1966.91 195.048C1989.75 176.916 2015.77 167.85 2044.98 167.85C2079.9 167.85 2108.28 179.434 2130.1 202.603C2152.26 225.772 2163.35 253.977 2163.35 287.219V463H2095.85V444.868C2082.42 460.985 2061.77 469.044 2033.9 469.044C2002 469.044 1974.81 460.482 1952.31 443.357C1929.81 425.896 1918.56 403.063 1918.56 374.858ZM1986.05 373.851C1986.05 383.252 1990.92 391.143 2000.66 397.523C2010.4 403.903 2022.32 407.093 2036.42 407.093C2053.88 407.093 2068.15 402.56 2079.23 393.494C2090.65 384.428 2096.36 372.507 2096.36 357.733V325.498C2087.29 340.608 2072.85 348.163 2053.04 348.163H2009.73C2003.01 348.163 1997.3 350.682 1992.6 355.718C1988.24 360.755 1986.05 366.799 1986.05 373.851Z" fill="white"/>
<path d="M2061 151L2061 503" stroke="#979797" stroke-width="3" stroke-dasharray="10 10"/>
<path d="M2095 151L2095 503" stroke="#979797" stroke-width="3" stroke-dasharray="10 10"/>
<path d="M1473.16 271.934L1495.29 140.347C1499.54 115.071 1512.44 94.764 1533.97 79.4273C1555.56 63.7932 1579.14 58.1265 1604.72 62.427C1623.75 65.6274 1640.09 73.8804 1653.76 87.1861C1667.47 100.194 1676.62 115.799 1681.2 133.999L1827.33 75.0942L1815.18 147.356L1677.46 202.629L1670.86 241.882L1795.76 262.884L1785.4 324.44L1473.16 271.934ZM1617.84 139.856C1612 130.924 1604.18 125.633 1594.36 123.983C1584.55 122.333 1575.57 124.798 1567.43 131.38C1559 137.911 1553.93 146.232 1552.23 156.343L1541.5 220.129L1612.87 232.131L1623.6 168.345C1625.3 158.234 1623.38 148.738 1617.84 139.856Z" fill="white"/>
<path d="M972.568 264.137C949.261 235.45 940.407 204.453 946.008 171.147C951.609 137.842 970.088 111.594 1001.45 92.4051C1032.56 72.8686 1065.36 66.0006 1099.86 71.8013C1134.35 77.602 1163.25 94.8462 1186.56 123.534C1209.62 151.874 1218.35 182.697 1212.75 216.003C1207.15 249.308 1188.79 275.729 1157.68 295.266C1126.32 314.455 1093.4 321.149 1058.9 315.349C1024.41 309.548 995.629 292.477 972.568 264.137ZM1034.1 141.01C1015.69 150.452 1005.06 163.648 1002.21 180.598C999.361 197.549 1005.09 213.495 1019.39 228.438C1033.7 243.38 1050.22 252.427 1068.95 255.577C1087.69 258.727 1106.26 255.582 1124.66 246.14C1143.07 236.698 1153.7 223.502 1156.55 206.551C1159.4 189.601 1153.67 173.655 1139.36 158.712C1125.06 143.77 1108.54 134.723 1089.81 131.573C1071.07 128.423 1052.5 131.568 1034.1 141.01Z" fill="white"/>
<path d="M276.598 72.7322L407.989 229.676L430.042 98.5352L484.461 107.686L448.381 322.24L400.207 314.139L268.741 157.641L246.763 288.336L192.344 279.185L228.424 64.6312L276.598 72.7322Z" fill="white"/>
<path d="M812.306 1193.51L785.228 1354.54L850.352 1365.49L872.705 1232.56L930.692 1242.31L908.339 1375.24L1039.48 1397.29L1029.13 1458.85L716.889 1406.34L754.318 1183.76L812.306 1193.51Z" fill="white"/>
<path d="M1737.14 1480.83C1711.32 1485.47 1687.38 1480.12 1665.32 1464.78C1643.61 1449.68 1630.47 1429.37 1625.88 1403.85L1599.34 1256.05L1910.97 1200.07L1936.4 1341.64C1940.83 1366.28 1935.71 1388.95 1921.05 1409.66C1906.44 1430.66 1886.81 1443.38 1862.18 1447.8C1840.81 1451.64 1820.41 1448.11 1800.99 1437.2C1786.03 1461.33 1764.74 1475.88 1737.14 1480.83ZM1726.1 1419.4C1735.9 1417.64 1743.64 1412.11 1749.32 1402.82C1755.3 1393.47 1757.39 1383.75 1755.57 1373.66L1741.26 1293.97L1668.25 1307.09L1682.56 1386.78C1684.48 1397.46 1689.55 1406.05 1697.76 1412.54C1706.27 1418.98 1715.72 1421.26 1726.1 1419.4ZM1851.15 1386.37C1860.05 1384.77 1866.98 1379.85 1871.93 1371.6C1877.23 1363.6 1879.06 1355 1877.41 1345.8L1864.13 1271.9L1799.13 1283.58L1812.41 1357.48C1814.06 1366.68 1818.77 1374.11 1826.52 1379.76C1834.33 1385.71 1842.54 1387.91 1851.15 1386.37Z" fill="white"/>
<path d="M1811.5 516L1810.88 1016M1853.5 516L1854 1016M1811 999V1066C1811 1095.82 1786.82 1120 1757 1120H-47M1854 1000L1854.14 1068.31C1854.25 1120.85 1811.68 1163.5 1759.14 1163.5H-35.5M1811.5 517V449.389C1811.5 419.294 1790.63 394.897 1764.88 394.897H-31M1853.5 517L1853.62 448.072C1853.71 395.05 1817.35 355 1771.99 355H-31" stroke="#979797" stroke-width="19"/>
<path d="M-15 1508H-21V1520H-15V1508ZM2223 496V527H2235V496H2223ZM2223 527V1117H2235V527H2223ZM2223 1117V1201H2235V1117H2223ZM2223 260V496H2235V260H2223ZM2004 29H-12V41H2004V29ZM2235 260C2235 132.422 2131.58 29 2004 29V41C2124.95 41 2223 139.05 2223 260H2235ZM2235 1289V1201H2223V1289H2235ZM2004 1508H-15V1520H2004V1508ZM2223 1289C2223 1409.95 2124.95 1508 2004 1508V1520C2131.58 1520 2235 1416.58 2235 1289H2223Z" fill="#979797"/>
</svg>
