<svg width="707" height="409" viewBox="0 0 707 409" fill="none" xmlns="http://www.w3.org/2000/svg">
<rect x="0.112061" y="0.532227" width="706" height="408" rx="24" fill="#DE2B2B"/>
<path d="M542.016 370.781H539.873V359.908H542.016V370.781ZM553.547 370.781H551.714L546.961 364.055V370.781H544.818V359.908H546.65L551.403 366.634V359.908H553.547V370.781ZM563.77 361.927H560.508V370.781H558.365V361.927H555.103V359.908H563.77V361.927ZM573.076 361.927H567.469V364.195H572.097V366.214H567.469V368.762H573.076V370.781H565.325V359.908H573.076V361.927ZM575.169 359.908H579.752C580.632 359.908 581.393 360.229 582.035 360.871C582.687 361.513 583.013 362.279 583.013 363.17C583.013 363.833 582.827 364.433 582.454 364.972C582.092 365.51 581.615 365.909 581.025 366.168L583.852 370.781H581.336L578.68 366.432H577.313V370.781H575.169V359.908ZM580.466 364.055C580.735 363.807 580.87 363.512 580.87 363.17C580.87 362.828 580.735 362.538 580.466 362.3C580.197 362.052 579.886 361.927 579.534 361.927H577.313V364.412H579.534C579.886 364.412 580.197 364.293 580.466 364.055ZM594.289 370.781H592.456L587.703 364.055V370.781H585.56V359.908H587.393L592.146 366.634V359.908H594.289V370.781ZM603.627 370.781L602.648 368.218H599.092L598.129 370.781H595.845L599.961 359.908H601.794L605.91 370.781H603.627ZM600.878 363.481L599.853 366.199H601.887L600.878 363.481ZM614.888 361.927H611.626V370.781H609.482V361.927H606.22V359.908H614.888V361.927ZM618.586 370.781H616.443V359.908H618.586V370.781ZM623.236 360.545C624.013 359.996 624.857 359.722 625.768 359.722C626.679 359.722 627.523 359.996 628.3 360.545C629.076 361.083 629.682 361.787 630.117 362.657C630.552 363.517 630.769 364.412 630.769 365.344C630.769 366.276 630.552 367.177 630.117 368.047C629.682 368.907 629.076 369.611 628.3 370.159C627.523 370.698 626.679 370.967 625.768 370.967C624.857 370.967 624.013 370.698 623.236 370.159C622.459 369.611 621.854 368.907 621.419 368.047C620.984 367.177 620.766 366.276 620.766 365.344C620.766 364.412 620.984 363.517 621.419 362.657C621.854 361.787 622.459 361.083 623.236 360.545ZM623.733 367.814C624.292 368.57 624.97 368.948 625.768 368.948C626.565 368.948 627.238 368.57 627.787 367.814C628.346 367.058 628.626 366.235 628.626 365.344C628.626 364.454 628.346 363.631 627.787 362.875C627.238 362.119 626.565 361.741 625.768 361.741C624.97 361.741 624.292 362.119 623.733 362.875C623.184 363.631 622.91 364.454 622.91 365.344C622.91 366.235 623.184 367.058 623.733 367.814ZM641.675 370.781H639.842L635.089 364.055V370.781H632.946V359.908H634.779L639.532 366.634V359.908H641.675V370.781ZM651.013 370.781L650.035 368.218H646.478L645.515 370.781H643.231L647.347 359.908H649.18L653.296 370.781H651.013ZM648.264 363.481L647.239 366.199H649.273L648.264 363.481ZM656.993 368.762H662.289V370.781H654.849V359.908H656.993V368.762Z" fill="white"/>
<path d="M538.929 311.214C538.894 292.217 566.456 276.509 601.051 276.532C636.031 276.554 663.142 292.559 663.112 311.266C663.082 330.101 635.656 345.992 600.931 345.977C566.632 345.96 538.859 330.339 538.929 311.214ZM575.948 311.91C576.013 315.954 576.717 319.919 578.171 323.843C585.299 323.843 592.362 323.843 599.42 323.843C599.542 323.47 599.518 312.153 599.398 311.91C591.61 311.91 583.818 311.91 575.948 311.91ZM599.461 310.568C599.461 306.579 599.461 302.617 599.461 298.64C592.349 298.64 585.27 298.64 578.168 298.64C576.717 302.584 576.005 306.547 575.951 310.568C583.816 310.568 591.607 310.568 599.461 310.568ZM623.185 323.85C624.351 321.607 625.957 312.919 625.403 311.913C617.611 311.913 609.823 311.913 602.037 311.913C601.917 312.324 601.947 323.606 602.07 323.85C609.095 323.85 616.122 323.85 623.185 323.85ZM602.004 310.555C602.999 310.623 625.055 310.597 625.506 310.524C625.416 306.526 624.699 302.561 623.221 298.634C616.125 298.634 609.081 298.634 602.002 298.634C602.004 302.613 602.004 306.575 602.004 310.555ZM585.794 335.807C590.36 335.807 594.898 335.807 599.425 335.807C599.548 335.372 599.515 325.42 599.396 325.191C592.506 325.191 585.62 325.191 578.666 325.191C580.277 328.914 582.413 332.494 585.794 335.807ZM599.45 297.292C599.45 293.749 599.45 290.24 599.45 286.725C599.292 286.717 599.178 286.706 599.061 286.706C594.773 286.705 590.485 286.708 586.196 286.7C586.195 286.7 586.195 286.7 586.194 286.7C585.839 286.701 585.671 286.778 585.525 286.94C585.32 287.167 585.107 287.392 584.894 287.616C584.584 287.943 584.275 288.27 583.99 288.603C581.699 291.279 580.065 294.083 578.818 296.961C578.792 297.024 578.77 297.087 578.749 297.154C578.744 297.169 578.739 297.184 578.734 297.199C578.725 297.229 578.715 297.26 578.704 297.292C585.634 297.292 592.523 297.292 599.45 297.292ZM615.56 335.818C617.889 333.871 622.797 326.476 622.617 325.194C615.75 325.194 608.885 325.194 602.023 325.194C601.901 325.718 601.947 335.581 602.072 335.818C606.57 335.818 611.07 335.818 615.56 335.818ZM602.013 286.705C602.013 290.261 602.013 293.771 602.013 297.288C608.923 297.288 615.793 297.288 622.688 297.288C622.661 297.192 622.65 297.116 622.617 297.043C622.286 296.334 621.976 295.621 621.612 294.916C620.201 292.173 618.427 289.51 615.943 287.006C615.728 286.79 615.511 286.696 615.043 286.697C610.91 286.709 606.774 286.705 602.64 286.705C602.447 286.705 602.254 286.705 602.013 286.705ZM644.961 311.906C644.868 314.974 644.167 317.969 642.854 320.911C642.415 321.895 641.907 322.874 641.331 323.847C646.38 323.847 651.348 323.847 656.351 323.847C657.753 321.948 658.788 319.992 659.56 317.989C660.359 315.916 660.96 312.366 660.669 311.906C655.465 311.906 650.261 311.906 644.961 311.906ZM644.964 310.55C645.855 310.62 660.337 310.596 660.772 310.523C660.699 308.488 660.302 306.468 659.568 304.47C658.835 302.464 657.794 300.51 656.4 298.637C651.364 298.637 646.402 298.637 641.38 298.637C641.38 298.638 641.38 298.638 641.38 298.639C643.396 302.033 644.526 305.49 644.866 309.01C644.873 309.081 644.879 309.152 644.885 309.223C644.924 309.664 644.95 310.107 644.964 310.55ZM560.216 323.849C557.901 319.952 556.708 315.987 556.575 311.913C551.452 311.913 546.392 311.913 541.264 311.913C541.41 316.057 542.859 320.024 545.628 323.849C550.484 323.849 555.297 323.849 560.216 323.849ZM556.577 310.571C556.708 306.473 557.914 302.51 560.211 298.636H560.21C555.313 298.636 550.5 298.636 545.674 298.636C544.286 300.538 543.223 302.481 542.487 304.481C541.794 306.359 541.363 308.254 541.288 310.185C541.283 310.314 541.279 310.443 541.277 310.573C546.405 310.571 551.452 310.571 556.577 310.571ZM642.578 311.918C642.311 311.902 641.285 311.892 639.89 311.886C635.703 311.87 628.192 311.898 627.879 311.947C627.857 312.246 627.838 312.545 627.819 312.845C627.775 313.54 627.731 314.237 627.658 314.931C627.555 315.927 627.43 316.921 627.251 317.913C627.069 318.914 626.835 319.914 626.574 320.911C626.4 321.578 626.196 322.242 625.99 322.909C625.894 323.221 625.798 323.533 625.705 323.847C625.705 323.848 625.705 323.848 625.704 323.849C630.115 323.849 634.461 323.849 638.792 323.849C640.684 321.683 643.056 314.225 642.578 311.918ZM625.669 298.634C626.365 300.611 626.903 302.578 627.259 304.56C627.618 306.552 627.786 308.55 627.857 310.549C627.963 310.565 628.017 310.582 628.071 310.582C628.091 310.582 628.11 310.582 628.13 310.582C628.132 310.582 628.135 310.582 628.138 310.582C628.984 310.582 629.831 310.583 630.677 310.583C634.529 310.584 638.381 310.585 642.236 310.585C642.333 310.585 642.429 310.576 642.526 310.568C642.543 310.567 642.556 310.556 642.57 310.549C642.583 310.541 642.597 310.533 642.627 310.514C642.483 306.445 641.252 302.478 638.841 298.634C634.431 298.634 630.088 298.634 625.669 298.634ZM573.608 310.567C573.676 306.549 574.369 302.582 575.782 298.634C571.402 298.634 567.078 298.634 562.7 298.634C560.295 302.488 559.042 306.461 558.923 310.567C563.847 310.567 568.695 310.567 573.608 310.567ZM575.782 323.844C574.369 319.898 573.676 315.93 573.608 311.938C572.907 311.865 559.371 311.88 558.92 311.954C559.048 316.03 560.295 319.996 562.7 323.844C567.075 323.844 571.399 323.844 575.782 323.844ZM629.286 335.813C629.539 335.822 629.65 335.83 629.762 335.83C633.542 335.83 637.319 335.827 641.1 335.834C641.453 335.834 641.678 335.751 641.912 335.626C647.432 332.716 651.801 329.339 655.044 325.505C655.097 325.442 655.144 325.378 655.196 325.306L655.196 325.306C655.223 325.269 655.251 325.23 655.283 325.188C650.304 325.188 645.399 325.188 640.48 325.188C639.167 327.114 637.605 328.962 635.754 330.733C633.893 332.512 631.765 334.186 629.286 335.813ZM629.341 286.725C634.197 289.914 637.858 293.434 640.469 297.279C641.472 297.346 654.864 297.32 655.302 297.25C655.234 297.159 655.174 297.068 655.101 296.981C651.861 293.167 647.475 289.822 641.991 286.921C641.7 286.767 641.409 286.7 641.007 286.702C638.158 286.708 635.309 286.707 632.459 286.707C631.644 286.707 630.829 286.706 630.015 286.706C629.827 286.706 629.64 286.716 629.341 286.725ZM572.26 335.81C569.798 334.201 567.673 332.529 565.812 330.756C563.939 328.972 562.371 327.104 561.064 325.192C556.259 325.192 551.533 325.192 546.75 325.192C546.776 325.227 546.799 325.258 546.82 325.289C546.873 325.362 546.918 325.425 546.971 325.487C550.21 329.32 554.553 332.707 560.067 335.623C560.341 335.769 560.616 335.833 560.999 335.833C561.059 335.833 561.119 335.833 561.179 335.832C563.875 335.827 566.571 335.827 569.268 335.828C570.056 335.828 570.844 335.828 571.633 335.828C571.636 335.828 571.639 335.828 571.642 335.828C571.643 335.828 571.644 335.828 571.645 335.828C571.661 335.828 571.676 335.828 571.692 335.828L571.693 335.828C571.696 335.828 571.698 335.828 571.701 335.828C571.713 335.828 571.725 335.827 571.738 335.827C571.81 335.826 571.887 335.823 571.979 335.82C571.982 335.82 571.986 335.819 571.99 335.819C571.991 335.819 571.993 335.819 571.995 335.819C571.996 335.819 571.997 335.819 571.997 335.819C572.061 335.817 572.131 335.814 572.211 335.812C572.223 335.811 572.235 335.811 572.248 335.81C572.25 335.81 572.251 335.81 572.253 335.81L572.254 335.81C572.256 335.81 572.258 335.81 572.26 335.81ZM572.154 286.725C571.872 286.716 571.703 286.706 571.535 286.706C570.445 286.706 569.354 286.706 568.263 286.706C565.809 286.706 563.354 286.707 560.901 286.7C560.531 286.699 560.281 286.77 560.026 286.906C554.544 289.805 550.177 293.157 546.941 296.969C546.859 297.065 546.794 297.165 546.702 297.289C551.514 297.289 556.265 297.289 561.064 297.289C563.678 293.442 567.304 289.913 572.154 286.725ZM625.117 325.181C623.585 328.858 621.511 332.426 618.332 335.806C618.514 335.818 618.603 335.828 618.696 335.828C621.008 335.83 623.318 335.824 625.631 335.834C625.984 335.836 626.161 335.731 626.359 335.609C631.273 332.613 634.985 329.196 637.716 325.438C637.773 325.361 637.8 325.279 637.852 325.181C633.588 325.181 629.381 325.181 625.117 325.181ZM637.874 297.294C637.819 297.201 637.792 297.151 637.757 297.101C635.037 293.326 631.319 289.898 626.403 286.886C626.33 286.841 626.256 286.806 626.179 286.779C626.026 286.724 625.857 286.701 625.647 286.7C625.646 286.7 625.644 286.7 625.642 286.7C623.408 286.706 621.174 286.703 618.94 286.705C618.79 286.705 618.639 286.714 618.394 286.723C618.391 286.723 618.389 286.723 618.386 286.723C619.951 288.416 621.264 290.132 622.362 291.898C623.46 293.667 624.348 295.467 625.123 297.294C629.376 297.294 633.585 297.294 637.874 297.294ZM563.627 325.189C563.708 325.317 563.768 325.419 563.839 325.517C565.004 327.124 566.377 328.672 567.958 330.163C570.037 332.119 572.437 333.942 575.195 335.617C575.397 335.739 575.579 335.837 575.929 335.836C578.182 335.825 580.435 335.831 582.691 335.828C582.794 335.828 582.897 335.81 583.055 335.795C583.054 335.794 583.054 335.794 583.053 335.793C579.885 332.417 577.804 328.86 576.282 325.191C572.488 325.189 568.737 325.189 564.945 325.189C564.506 325.189 564.067 325.189 563.627 325.189ZM563.64 297.285C567.877 297.285 572.07 297.285 576.28 297.285C576.407 296.99 576.524 296.715 576.647 296.44C576.774 296.153 576.905 295.867 577.038 295.581L577.038 295.581C577.166 295.306 577.293 295.031 577.432 294.758C577.568 294.484 577.715 294.211 577.861 293.939C578.014 293.656 578.168 293.373 578.329 293.092C578.484 292.822 578.641 292.551 578.804 292.282C578.86 292.19 578.916 292.098 578.973 292.005C579.081 291.829 579.19 291.652 579.304 291.475C579.478 291.206 579.658 290.942 579.84 290.676C580.03 290.401 580.223 290.126 580.421 289.852C580.614 289.589 580.813 289.326 581.016 289.066C581.22 288.805 581.427 288.545 581.642 288.288C581.753 288.155 581.868 288.022 581.984 287.889C582.099 287.756 582.215 287.623 582.326 287.489C582.398 287.402 582.478 287.318 582.559 287.232C582.685 287.098 582.813 286.962 582.918 286.81C582.941 286.776 582.963 286.742 582.984 286.706C582.693 286.706 582.498 286.706 582.302 286.706C581.755 286.706 581.209 286.707 580.663 286.708C579.134 286.709 577.606 286.71 576.076 286.7C575.625 286.697 575.323 286.773 575.019 286.96C570.179 289.943 566.477 293.323 563.773 297.051C563.744 297.092 563.721 297.135 563.696 297.183C563.679 297.215 563.662 297.248 563.64 297.285ZM638.673 285.396C638.674 285.394 638.675 285.392 638.675 285.39C638.68 285.379 638.685 285.368 638.69 285.357C638.697 285.344 638.703 285.33 638.708 285.317C635.741 283.968 632.572 282.787 629.199 281.777C628.511 281.57 627.817 281.372 627.118 281.182L627.117 281.181C624.368 280.434 621.529 279.808 618.598 279.304C614.948 278.675 608.505 277.97 607.44 278.084C607.942 278.193 608.415 278.294 608.885 278.398C615.734 279.93 621.661 282.228 626.802 285.17C627.085 285.331 627.362 285.403 627.767 285.401C631.232 285.392 634.7 285.396 638.165 285.396C638.336 285.396 638.504 285.396 638.673 285.396ZM638.605 337.217C638.594 337.191 638.58 337.164 638.57 337.138C638.36 337.138 638.151 337.138 637.942 337.138C634.553 337.138 631.164 337.143 627.775 337.132C627.308 337.131 626.982 337.202 626.65 337.391C621.253 340.451 615.022 342.805 607.798 344.314C607.795 344.315 607.791 344.316 607.787 344.317C607.713 344.333 607.644 344.356 607.574 344.379C607.541 344.39 607.508 344.401 607.475 344.411C612.554 344.168 617.446 343.509 622.188 342.501C628.169 341.232 633.637 339.466 638.605 337.217ZM563.401 337.153C563.397 337.165 563.392 337.176 563.387 337.188C563.383 337.199 563.378 337.21 563.374 337.222C572.329 341.241 582.499 343.66 594.027 344.457C594.029 344.457 594.032 344.457 594.034 344.457C593.914 344.393 593.892 344.373 593.86 344.366C593.754 344.338 593.645 344.314 593.534 344.291C586.34 342.773 580.12 340.428 574.747 337.366C574.464 337.205 574.187 337.132 573.78 337.134C570.508 337.141 567.236 337.138 563.964 337.138C563.773 337.138 563.586 337.149 563.401 337.153ZM593.729 278.152C588.134 278.467 582.769 279.271 577.603 280.497C572.823 281.632 564.417 284.507 563.336 285.395C563.337 285.395 563.339 285.395 563.34 285.395C563.523 285.395 563.674 285.395 563.822 285.395C564.64 285.395 565.458 285.395 566.276 285.394C568.73 285.393 571.184 285.392 573.636 285.401C574.108 285.403 574.424 285.321 574.752 285.134C580.065 282.105 586.204 279.772 593.305 278.249C593.407 278.229 593.506 278.206 593.605 278.182C593.615 278.18 593.624 278.177 593.633 278.175C593.665 278.167 593.697 278.16 593.729 278.152ZM599.461 278.795C597.124 279.397 595.145 280.205 593.335 281.149C593.081 281.282 592.832 281.416 592.587 281.553C590.545 282.692 588.802 283.972 587.21 285.374C591.356 285.374 595.393 285.374 599.461 285.374C599.462 285.374 599.463 285.374 599.463 285.374C599.461 283.188 599.461 281.023 599.461 278.795ZM614.138 285.378C614.138 285.365 614.14 285.354 614.141 285.344C614.143 285.328 614.144 285.315 614.139 285.305C614.138 285.303 614.137 285.301 614.136 285.299C614.103 285.26 614.065 285.222 614.022 285.185C612.299 283.699 610.345 282.319 608.008 281.117C606.369 280.275 604.586 279.547 602.597 278.985C602.415 278.933 602.222 278.892 602.015 278.841C601.992 278.975 601.975 279.315 601.964 279.773C601.961 279.879 601.959 279.991 601.957 280.108C601.942 281.045 601.947 282.317 601.967 283.377C601.967 283.378 601.967 283.378 601.967 283.379C601.969 283.483 601.971 283.585 601.974 283.685C601.981 283.998 601.989 284.285 601.999 284.532C602 284.555 602.001 284.578 602.001 284.6C602.02 285.035 602.042 285.326 602.067 285.377C606.089 285.378 610.114 285.378 614.138 285.378ZM599.453 343.682C599.453 341.471 599.453 339.32 599.453 337.158C595.393 337.158 591.373 337.158 587.286 337.158C587.381 337.252 587.441 337.318 587.512 337.378C588.878 338.558 590.403 339.667 592.15 340.679C594.094 341.805 596.251 342.776 598.754 343.494C598.89 343.533 599.029 343.57 599.19 343.612C599.271 343.634 599.358 343.657 599.453 343.682ZM602.004 343.611C603.374 343.398 606.344 342.258 608.421 341.15C610.635 339.968 612.511 338.634 614.187 337.161C610.065 337.161 606.043 337.161 602.004 337.161C602.004 339.325 602.004 341.465 602.004 343.611ZM609.945 280.201C610.119 280.303 610.294 280.405 610.469 280.506L610.469 280.507C610.472 280.508 610.474 280.509 610.476 280.51C610.735 280.661 610.995 280.812 611.251 280.965C611.259 280.969 611.266 280.974 611.273 280.978C611.41 281.06 611.545 281.142 611.679 281.225C613.63 282.432 615.296 283.755 616.777 285.153C616.954 285.32 617.136 285.404 617.505 285.401L617.506 285.401C619.405 285.39 621.305 285.396 623.204 285.395C623.206 285.395 623.207 285.395 623.208 285.395C623.283 285.395 623.357 285.389 623.456 285.381C623.52 285.375 623.595 285.369 623.688 285.363C619.563 283.19 615.062 281.439 609.945 280.201ZM609.864 342.326C613.269 341.688 622.441 338.191 623.49 337.138H623.488C623.277 337.138 623.084 337.138 622.889 337.138C622.401 337.138 621.913 337.139 621.425 337.14C620.171 337.142 618.917 337.144 617.663 337.132C617.174 337.128 616.902 337.207 616.647 337.448C614.807 339.175 612.671 340.778 610.087 342.184C610.054 342.201 610.025 342.22 609.981 342.249C609.977 342.251 609.974 342.254 609.971 342.256C609.948 342.271 609.921 342.289 609.888 342.311C609.883 342.314 609.879 342.317 609.874 342.32C609.873 342.321 609.872 342.321 609.871 342.322C609.868 342.323 609.866 342.325 609.864 342.326ZM577.935 285.321C577.956 285.343 577.978 285.366 577.997 285.389C578.022 285.39 578.047 285.391 578.072 285.391C578.144 285.394 578.215 285.396 578.288 285.396C578.773 285.396 579.258 285.396 579.743 285.395C581.061 285.393 582.379 285.391 583.696 285.404C584.196 285.409 584.457 285.316 584.707 285.079C586.495 283.397 588.558 281.83 591.047 280.445C591.101 280.415 591.151 280.381 591.2 280.347C591.221 280.332 591.242 280.318 591.264 280.303C591.265 280.303 591.266 280.302 591.267 280.301C586.272 281.527 581.883 283.243 577.935 285.321ZM591.224 342.19C590.424 341.714 589.636 341.234 588.891 340.735C588.884 340.731 588.877 340.726 588.87 340.721C588.42 340.419 587.986 340.11 587.574 339.79C586.468 338.93 585.419 338.045 584.335 337.161C582.277 337.161 580.177 337.161 577.935 337.161C580.381 338.442 582.952 339.571 585.702 340.537C585.772 340.561 585.843 340.586 585.913 340.61C587.611 341.2 589.377 341.727 591.224 342.19Z" fill="white"/>
<path fill-rule="evenodd" clip-rule="evenodd" d="M599.461 285.375V285.374H587.21C588.802 283.972 590.545 282.692 592.587 281.553C590.544 282.692 588.8 283.973 587.207 285.375H599.461Z" fill="white"/>
<path fill-rule="evenodd" clip-rule="evenodd" d="M614.138 285.378L602.067 285.378C602.042 285.327 602.02 285.035 602.001 284.6C602.02 285.035 602.042 285.326 602.067 285.377C606.089 285.378 610.114 285.378 614.138 285.378ZM614.139 285.305C614.144 285.315 614.143 285.328 614.141 285.344C614.14 285.354 614.138 285.365 614.138 285.378C614.138 285.365 614.14 285.353 614.142 285.343C614.144 285.327 614.146 285.314 614.139 285.305Z" fill="white"/>
<path fill-rule="evenodd" clip-rule="evenodd" d="M577.935 285.321C577.947 285.336 577.961 285.351 577.975 285.366C577.982 285.374 577.99 285.382 577.997 285.39C578.022 285.391 578.047 285.392 578.072 285.393C578.144 285.395 578.215 285.398 578.288 285.398C578.773 285.398 579.258 285.397 579.743 285.396C581.061 285.394 582.379 285.392 583.696 285.406C584.196 285.41 584.457 285.317 584.707 285.08C586.495 283.398 588.558 281.831 591.047 280.447C591.102 280.415 591.152 280.381 591.201 280.347C591.223 280.332 591.245 280.317 591.267 280.303C591.266 280.303 591.265 280.303 591.264 280.303C591.242 280.318 591.221 280.332 591.2 280.347C591.151 280.381 591.101 280.415 591.047 280.445C588.558 281.83 586.495 283.397 584.707 285.079C584.457 285.316 584.196 285.409 583.696 285.404C582.379 285.391 581.061 285.393 579.743 285.395C579.258 285.396 578.773 285.396 578.288 285.396C578.215 285.396 578.144 285.394 578.072 285.391C578.047 285.391 578.022 285.39 577.997 285.389C577.978 285.366 577.956 285.343 577.935 285.321Z" fill="white"/>
<path fill-rule="evenodd" clip-rule="evenodd" d="M593.308 278.251C593.408 278.23 593.506 278.206 593.605 278.182C593.615 278.18 593.624 278.177 593.633 278.175C593.525 278.201 593.417 278.227 593.305 278.249C586.204 279.772 580.065 282.105 574.752 285.134C574.424 285.321 574.108 285.403 573.636 285.401C571.184 285.392 568.73 285.393 566.276 285.394C565.458 285.395 564.64 285.395 563.822 285.395H563.34C563.34 285.395 563.339 285.396 563.339 285.396H563.825C564.642 285.396 565.46 285.396 566.277 285.396C568.73 285.395 571.184 285.393 573.638 285.403C574.111 285.404 574.426 285.322 574.755 285.135C580.068 282.106 586.207 279.774 593.308 278.251Z" fill="white"/>
<path fill-rule="evenodd" clip-rule="evenodd" d="M546.941 296.969C550.177 293.156 554.544 289.805 560.026 286.906C554.544 289.805 550.177 293.157 546.941 296.969ZM560.901 286.7C563.354 286.707 565.809 286.706 568.263 286.706C569.354 286.706 570.445 286.706 571.535 286.706C570.472 286.706 569.409 286.706 568.345 286.706C565.864 286.706 563.382 286.706 560.901 286.7Z" fill="white"/>
<path fill-rule="evenodd" clip-rule="evenodd" d="M563.684 297.203C563.671 297.228 563.656 297.256 563.64 297.285C563.662 297.248 563.679 297.215 563.696 297.183C563.721 297.135 563.744 297.092 563.773 297.051C563.74 297.098 563.714 297.147 563.684 297.203ZM576.076 286.7C577.606 286.71 579.134 286.709 580.663 286.708C581.209 286.707 581.755 286.706 582.302 286.706C581.783 286.706 581.264 286.707 580.745 286.707C579.189 286.708 577.633 286.709 576.076 286.7ZM582.555 287.236C582.682 287.102 582.812 286.963 582.918 286.81C582.813 286.962 582.685 287.098 582.559 287.232C582.478 287.318 582.398 287.402 582.326 287.489C582.215 287.623 582.099 287.756 581.984 287.889C581.868 288.022 581.753 288.155 581.642 288.288C581.427 288.545 581.22 288.805 581.016 289.066C580.813 289.326 580.614 289.589 580.421 289.852C580.614 289.589 580.813 289.328 581.016 289.066C581.22 288.807 581.427 288.547 581.642 288.288C581.746 288.163 581.855 288.037 581.964 287.912C582.087 287.771 582.21 287.631 582.326 287.489C582.397 287.404 582.475 287.321 582.555 287.236ZM578.973 292.005C579.081 291.829 579.19 291.652 579.304 291.475L578.973 292.005ZM579.304 291.475C579.192 291.651 579.081 291.828 578.973 292.005L579.304 291.475ZM577.861 293.939C577.715 294.211 577.571 294.484 577.432 294.758C577.568 294.484 577.715 294.211 577.861 293.939ZM577.038 295.581C577.069 295.516 577.099 295.452 577.129 295.388C577.229 295.177 577.328 294.967 577.432 294.758C577.293 295.031 577.166 295.306 577.038 295.581Z" fill="white"/>
<path fill-rule="evenodd" clip-rule="evenodd" d="M560.21 298.636C560.21 298.635 560.21 298.635 560.211 298.634H545.674C544.286 300.537 543.223 302.481 542.487 304.479C541.794 306.36 541.363 308.255 541.288 310.185C541.363 308.254 541.794 306.359 542.487 304.481C543.223 302.481 544.286 300.538 545.674 298.636H560.21Z" fill="white"/>
<path fill-rule="evenodd" clip-rule="evenodd" d="M558.923 310.567C559.039 306.461 560.295 302.488 562.7 298.634C560.295 302.488 559.042 306.461 558.923 310.567Z" fill="white"/>
<path fill-rule="evenodd" clip-rule="evenodd" d="M575.951 310.568C576.003 306.547 576.717 302.584 578.168 298.64C576.717 302.584 576.005 306.547 575.951 310.568Z" fill="white"/>
<path fill-rule="evenodd" clip-rule="evenodd" d="M578.746 297.158C578.732 297.201 578.718 297.245 578.701 297.292H578.704C578.715 297.26 578.725 297.229 578.734 297.199C578.739 297.184 578.744 297.169 578.749 297.154L578.746 297.158Z" fill="white"/>
<path fill-rule="evenodd" clip-rule="evenodd" d="M638.675 285.39C638.686 285.366 638.698 285.341 638.711 285.317C635.743 283.968 632.575 282.787 629.202 281.777C628.513 281.57 627.818 281.372 627.118 281.182C627.817 281.372 628.511 281.57 629.199 281.777C632.572 282.787 635.741 283.968 638.708 285.317C638.703 285.33 638.697 285.344 638.69 285.357C638.685 285.368 638.68 285.379 638.675 285.39Z" fill="white"/>
<path fill-rule="evenodd" clip-rule="evenodd" d="M609.945 280.201C615.065 281.439 619.563 283.19 623.691 285.363C623.614 285.369 623.55 285.374 623.493 285.378C623.376 285.388 623.292 285.395 623.208 285.395C623.283 285.395 623.357 285.389 623.456 285.381C623.52 285.375 623.595 285.369 623.688 285.363C619.563 283.19 615.062 281.439 609.945 280.201ZM610.469 280.507C610.472 280.508 610.474 280.509 610.476 280.51C610.478 280.512 610.48 280.513 610.482 280.514C610.74 280.664 610.997 280.813 611.251 280.965C610.993 280.811 610.731 280.659 610.469 280.507ZM615.28 283.82C614.19 282.91 613.001 282.041 611.682 281.225C611.547 281.142 611.41 281.06 611.273 280.978L615.28 283.82Z" fill="white"/>
<path fill-rule="evenodd" clip-rule="evenodd" d="M625.647 286.7C625.857 286.7 626.026 286.723 626.179 286.779C626.026 286.724 625.857 286.701 625.647 286.7ZM618.394 286.723C618.391 286.723 618.387 286.723 618.383 286.723C619.949 288.416 621.261 290.13 622.359 291.898C623.457 293.667 624.343 295.469 625.12 297.294L625.123 297.294C624.348 295.467 623.46 293.667 622.362 291.898C621.264 290.132 619.951 288.416 618.386 286.723L618.394 286.723Z" fill="white"/>
<path fill-rule="evenodd" clip-rule="evenodd" d="M633.678 286.706C632.457 286.706 631.236 286.706 630.015 286.706C630.829 286.706 631.644 286.707 632.459 286.707C635.309 286.707 638.158 286.708 641.007 286.702C638.563 286.707 636.12 286.707 633.678 286.706Z" fill="white"/>
<path fill-rule="evenodd" clip-rule="evenodd" d="M644.964 310.55C645.855 310.622 660.337 310.596 660.772 310.524C660.772 310.524 660.772 310.523 660.772 310.523C660.337 310.596 645.855 310.62 644.964 310.55ZM641.38 298.639H641.38C643.394 302.033 644.526 305.489 644.866 309.01C644.526 305.49 643.396 302.033 641.38 298.639Z" fill="white"/>
<path fill-rule="evenodd" clip-rule="evenodd" d="M627.857 310.549C627.783 308.55 627.618 306.552 627.259 304.56C627.618 306.552 627.786 308.55 627.857 310.549ZM630.677 310.583C629.831 310.583 628.984 310.582 628.138 310.582H628.13C628.979 310.582 629.828 310.583 630.677 310.583Z" fill="white"/>
<path fill-rule="evenodd" clip-rule="evenodd" d="M623.221 298.634L602.004 298.634L623.221 298.634Z" fill="white"/>
<path fill-rule="evenodd" clip-rule="evenodd" d="M642.854 320.911C642.414 321.895 641.906 322.874 641.328 323.847L641.331 323.847C641.907 322.874 642.415 321.895 642.854 320.911Z" fill="white"/>
<path fill-rule="evenodd" clip-rule="evenodd" d="M639.89 311.886C635.703 311.87 628.192 311.898 627.879 311.947C627.857 312.246 627.838 312.545 627.819 312.845C627.775 313.54 627.731 314.237 627.658 314.931C627.555 315.927 627.43 316.921 627.251 317.913C627.069 318.914 626.835 319.914 626.574 320.911C626.4 321.578 626.196 322.242 625.99 322.909C625.894 323.221 625.798 323.533 625.705 323.847H625.702C625.787 323.564 625.874 323.282 625.961 323C626.176 322.301 626.389 321.607 626.571 320.91C626.832 319.913 627.066 318.914 627.248 317.911C627.427 316.921 627.552 315.925 627.656 314.93C627.728 314.234 627.772 313.537 627.817 312.84C627.836 312.542 627.855 312.244 627.876 311.945C628.192 311.897 635.703 311.87 639.89 311.886Z" fill="white"/>
<path fill-rule="evenodd" clip-rule="evenodd" d="M541.264 311.913L541.261 311.913C541.41 316.057 542.856 320.024 545.625 323.849L545.628 323.849C542.859 320.024 541.41 316.057 541.264 311.913Z" fill="white"/>
<path fill-rule="evenodd" clip-rule="evenodd" d="M571.99 335.819C571.991 335.819 571.993 335.819 571.995 335.819C571.996 335.819 571.997 335.819 571.997 335.819L571.995 335.819L571.99 335.819ZM571.692 335.828L571.693 335.828C571.696 335.828 571.698 335.828 571.701 335.828C571.698 335.828 571.695 335.828 571.692 335.828Z" fill="white"/>
<path fill-rule="evenodd" clip-rule="evenodd" d="M583.053 335.793L583.055 335.793C579.886 332.417 577.804 328.859 576.282 325.189L564.945 325.189C568.737 325.189 572.488 325.189 576.282 325.191C577.804 328.86 579.885 332.417 583.053 335.793Z" fill="white"/>
<path fill-rule="evenodd" clip-rule="evenodd" d="M618.332 335.806C621.509 332.426 623.582 328.858 625.117 325.181C623.585 328.858 621.511 332.426 618.332 335.806Z" fill="white"/>
<path fill-rule="evenodd" clip-rule="evenodd" d="M635.754 330.733C637.605 328.962 639.165 327.114 640.48 325.188C639.167 327.114 637.605 328.962 635.754 330.733ZM655.196 325.306L655.196 325.306C655.144 325.378 655.097 325.442 655.044 325.505C655.097 325.443 655.144 325.379 655.196 325.306Z" fill="white"/>
<path fill-rule="evenodd" clip-rule="evenodd" d="M638.57 337.138C638.583 337.164 638.594 337.191 638.605 337.217C638.594 337.191 638.58 337.164 638.57 337.138ZM607.787 344.317C607.708 344.334 607.634 344.359 607.561 344.383C607.532 344.393 607.504 344.402 607.475 344.411C607.508 344.401 607.541 344.39 607.574 344.379C607.644 344.356 607.713 344.333 607.787 344.317Z" fill="white"/>
<path fill-rule="evenodd" clip-rule="evenodd" d="M623.488 337.138C623.489 337.138 623.489 337.137 623.49 337.137H622.889C622.401 337.137 621.914 337.138 621.426 337.138C620.172 337.141 618.917 337.143 617.663 337.131C617.177 337.126 616.902 337.205 616.647 337.447C614.807 339.175 612.671 340.776 610.087 342.182C610.054 342.2 610.025 342.22 609.981 342.249C609.977 342.251 609.974 342.254 609.971 342.256C610.021 342.223 610.052 342.202 610.087 342.184C612.671 340.778 614.807 339.175 616.647 337.448C616.902 337.207 617.174 337.128 617.663 337.132C618.917 337.144 620.171 337.142 621.425 337.14C621.913 337.139 622.401 337.138 622.889 337.138H623.488Z" fill="white"/>
<path fill-rule="evenodd" clip-rule="evenodd" d="M599.24 343.626C599.306 343.643 599.377 343.662 599.453 343.682C599.358 343.657 599.271 343.634 599.19 343.612C599.029 343.57 598.89 343.533 598.754 343.494C598.904 343.537 599.056 343.577 599.24 343.626Z" fill="white"/>
<path fill-rule="evenodd" clip-rule="evenodd" d="M591.224 342.19C590.424 341.714 589.637 341.234 588.891 340.735C589.636 341.234 590.424 341.714 591.224 342.19ZM585.913 340.61C585.843 340.586 585.772 340.561 585.702 340.537C582.952 339.571 580.381 338.442 577.935 337.161L584.332 337.161H577.932C580.442 338.475 583.083 339.628 585.913 340.61Z" fill="white"/>
<path fill-rule="evenodd" clip-rule="evenodd" d="M563.401 337.153C563.395 337.166 563.39 337.179 563.384 337.192C563.38 337.202 563.376 337.213 563.371 337.223C572.331 341.243 582.5 343.662 594.031 344.459C594.03 344.458 594.029 344.457 594.027 344.457C582.499 343.66 572.329 341.241 563.374 337.222C563.378 337.21 563.383 337.199 563.387 337.188C563.392 337.176 563.397 337.165 563.401 337.153Z" fill="white"/>
<g clip-path="url(#clip0_54_561)">
<rect x="33.1121" y="91.5322" width="240" height="280.374" rx="26.9159" fill="white"/>
<path d="M88.2594 350.779C88.2594 328.288 96.4239 309.186 112.753 293.473C129.39 277.76 149.416 269.903 172.832 269.903H224.13C230.908 269.903 236.762 268.363 241.691 265.282C246.621 262.201 249.086 258.35 249.086 253.728C249.086 244.177 244.618 236.013 235.683 229.235C226.749 222.148 216.273 218.605 204.258 218.605C183.307 218.605 166.824 228.927 154.808 249.569H86.873C96.4239 223.381 111.675 202.122 132.625 185.793C153.576 169.156 177.453 160.837 204.258 160.837C236.3 160.837 262.334 171.467 282.36 192.725C302.694 213.984 312.862 239.864 312.862 270.365V431.654H250.934V415.017C238.61 429.805 219.662 437.2 194.09 437.2C164.821 437.2 139.865 429.343 119.223 413.63C98.5806 397.609 88.2594 376.659 88.2594 350.779ZM150.187 349.854C150.187 358.481 154.654 365.721 163.589 371.575C172.524 377.429 183.461 380.356 196.401 380.356C212.422 380.356 225.516 376.196 235.683 367.878C246.159 359.559 251.396 348.622 251.396 335.066V305.488C243.078 319.353 229.83 326.285 211.652 326.285H171.908C165.746 326.285 160.508 328.596 156.195 333.217C152.189 337.839 150.187 343.384 150.187 349.854Z" fill="#141414"/>
</g>
<defs>
<clipPath id="clip0_54_561">
<rect x="33.1121" y="91.5322" width="240" height="280.374" rx="26.9159" fill="white"/>
</clipPath>
</defs>
</svg>
