<svg width="1101" height="554" viewBox="0 0 1101 554" fill="none" xmlns="http://www.w3.org/2000/svg">
<rect x="5.18895" y="5.75975" width="1090.62" height="542.481" rx="17.4537" fill="#3F94F9"/>
<path d="M153.781 145.65L118.001 93.9717L81.1363 145.65L96.3159 145.65L96.3158 225.111L137.247 225.111L137.247 145.65L153.781 145.65Z" fill="white"/>
<rect x="240.578" y="65.6681" width="161.329" height="85.8535" rx="9.43445" stroke="white" stroke-width="3.77378"/>
<rect x="240.578" y="166.617" width="184.915" height="85.8535" rx="9.43445" fill="#DE2B2B"/>
<rect x="240.578" y="166.617" width="184.915" height="85.8535" rx="9.43445" stroke="white" stroke-width="3.77378"/>
<path d="M132.79 374.317L70.786 363.999L82.1931 426.445L92.7655 415.553L149.783 470.896L178.291 441.525L121.273 386.182L132.79 374.317Z" fill="white"/>
<rect x="243.409" y="367.57" width="161.329" height="85.8535" rx="9.43445" stroke="white" stroke-width="3.77378"/>
<rect x="5.18895" y="5.75975" width="1090.62" height="542.481" rx="17.4537" stroke="white" stroke-width="10.3779"/>
</svg>
