<svg width="977" height="549" viewBox="0 0 977 549" fill="none" xmlns="http://www.w3.org/2000/svg">
<g clip-path="url(#clip0_54_972)">
<rect width="976.699" height="548.964" rx="21.7298" fill="#3D3D3D"/>
<rect width="976.699" height="548.964" rx="21.7298" fill="black" fill-opacity="0.2"/>
<rect width="108.649" height="548.964" fill="#212121"/>
<path d="M28.7461 44.599L22.437 52.0284H30.8982V54.9766H18.1327V52.3232L26.1517 42.8891C27.1148 41.7295 27.5963 40.786 27.5963 40.0588C27.5963 39.1744 27.2818 38.4373 26.6529 37.8477C26.0239 37.2384 25.2672 36.9338 24.3828 36.9338C23.5769 36.9338 22.8399 37.2286 22.1717 37.8182C21.5231 38.3882 21.1398 39.0466 21.0219 39.7935H17.8378C18.0934 38.1818 18.8206 36.8158 20.0195 35.6955C21.2184 34.5556 22.6728 33.9856 24.3828 33.9856C26.0731 33.9856 27.5373 34.5851 28.7756 35.784C30.0334 36.9829 30.6624 38.4079 30.6624 40.0588C30.6624 41.6115 30.0236 43.1249 28.7461 44.599ZM34.697 48.4021C34.4218 47.1836 34.2842 45.9355 34.2842 44.658C34.2842 43.3804 34.4218 42.1324 34.697 40.9138C34.9918 39.6952 35.4144 38.5651 35.9647 37.5234C36.515 36.4621 37.2521 35.6071 38.1758 34.9585C39.1192 34.3099 40.1806 33.9856 41.3599 33.9856C42.5391 33.9856 43.5906 34.3099 44.5144 34.9585C45.4578 35.6071 46.2047 36.4621 46.755 37.5234C47.3053 38.5651 47.7181 39.6952 47.9932 40.9138C48.288 42.1324 48.4355 43.3804 48.4355 44.658C48.4355 45.9355 48.288 47.1836 47.9932 48.4021C47.7181 49.6207 47.3053 50.7607 46.755 51.822C46.2047 52.8637 45.4578 53.7089 44.5144 54.3574C43.5906 55.006 42.5391 55.3303 41.3599 55.3303C40.1806 55.3303 39.1192 55.006 38.1758 54.3574C37.2521 53.7089 36.515 52.8637 35.9647 51.822C35.4144 50.7607 34.9918 49.6207 34.697 48.4021ZM37.5567 42.1815C37.4191 43.0267 37.3503 43.8521 37.3503 44.658C37.3503 45.4638 37.4191 46.2991 37.5567 47.1639C37.714 48.0091 37.94 48.8345 38.2348 49.6404C38.5296 50.4462 38.9424 51.1046 39.473 51.6157C40.0233 52.1267 40.6523 52.3822 41.3599 52.3822C42.0674 52.3822 42.6865 52.1267 43.2172 51.6157C43.7675 51.1046 44.1901 50.4462 44.4849 49.6404C44.7797 48.8345 44.9959 48.0091 45.1335 47.1639C45.2907 46.2991 45.3694 45.4638 45.3694 44.658C45.3694 43.8521 45.2907 43.0267 45.1335 42.1815C44.9959 41.3167 44.7797 40.4814 44.4849 39.6756C44.1901 38.8697 43.7675 38.2113 43.2172 37.7003C42.6865 37.1893 42.0674 36.9338 41.3599 36.9338C40.6523 36.9338 40.0233 37.1893 39.473 37.7003C38.9424 38.2113 38.5296 38.8697 38.2348 39.6756C37.94 40.4814 37.714 41.3167 37.5567 42.1815ZM56.7967 42.4174H52.8462V38.4668H56.7967V42.4174ZM56.7967 54.9766H52.8462V51.026H56.7967V54.9766ZM69.782 34.3394H72.4943V45.7783H75.3246V48.7264H72.4943V54.9766H69.4283V48.7264H60.4953V46.1321L69.782 34.3394ZM64.4458 45.7783H69.4283V39.3218L64.4458 45.7783ZM88.8898 44.599L82.5808 52.0284H91.042V54.9766H78.2764V52.3232L86.2955 42.8891C87.2585 41.7295 87.7401 40.786 87.7401 40.0588C87.7401 39.1744 87.4256 38.4373 86.7966 37.8477C86.1677 37.2384 85.411 36.9338 84.5266 36.9338C83.7207 36.9338 82.9837 37.2286 82.3154 37.8182C81.6668 38.3882 81.2836 39.0466 81.1656 39.7935H77.9816C78.2371 38.1818 78.9643 36.8158 80.1633 35.6955C81.3622 34.5556 82.8166 33.9856 84.5266 33.9856C86.2168 33.9856 87.6811 34.5851 88.9193 35.784C90.1772 36.9829 90.8062 38.4079 90.8062 40.0588C90.8062 41.6115 90.1674 43.1249 88.8898 44.599Z" fill="white"/>
<rect x="27.4482" y="86.0498" width="48.0344" height="24.0172" rx="5.71838" stroke="#565656" stroke-width="2.28735"/>
<rect x="30.8792" y="89.4805" width="30.8792" height="17.1551" rx="3.43103" fill="#979797"/>
<path d="M80.6291 94.0547V103.204" stroke="#565656" stroke-width="3.43103"/>
<rect x="20.5862" y="156.684" width="66.3332" height="66.3332" rx="14.8678" fill="white"/>
<path d="M72.0515 185.275C72.0515 195.382 53.7527 213.295 53.7527 213.295C53.7527 213.295 35.4539 195.382 35.4539 185.275C35.4539 175.169 43.6466 166.977 53.7527 166.977C63.8589 166.977 72.0515 175.169 72.0515 185.275Z" fill="#DE2B2B"/>
<path d="M59.4711 185.275C59.4711 188.433 56.9109 190.993 53.7527 190.993C50.5945 190.993 48.0343 188.433 48.0343 185.275C48.0343 182.117 50.5945 179.557 53.7527 179.557C56.9109 179.557 59.4711 182.117 59.4711 185.275Z" fill="white"/>
<rect x="20.5862" y="241.315" width="66.3332" height="66.3332" rx="14.8678" fill="white"/>
<path d="M59.4711 280.772C59.4711 285.825 55.3748 289.921 50.3217 289.921C45.2686 289.921 41.1723 285.825 41.1723 280.772C41.1723 275.719 45.2686 271.622 50.3217 271.622C55.3748 271.622 59.4711 275.719 59.4711 280.772Z" fill="#DE2B2B"/>
<path d="M59.4711 264.76V281.344L56.0401 274.482V255.039C64.0458 256.755 68.0487 261.329 70.336 263.617L65.1895 268.191C63.474 266.476 61.7585 264.76 59.4711 264.76Z" fill="#DE2B2B"/>
<rect x="20.5861" y="325.947" width="66.3332" height="66.3332" rx="14.8678" fill="white"/>
<path d="M68.9824 346.223L37.0782 360.046C36.1122 360.465 36.1769 361.856 37.1775 362.183L44.0373 364.425C44.3467 364.526 44.6845 364.491 44.966 364.327L56.2936 357.764C57.4386 357.1 58.6081 358.587 57.6937 359.544L51.471 366.052C50.9639 366.583 51.0804 367.447 51.7098 367.824L64.3592 375.404C65.0514 375.819 65.9438 375.405 66.0755 374.609L70.5655 347.459C70.7132 346.565 69.8133 345.863 68.9824 346.223Z" fill="#DE2B2B"/>
<rect x="19.4425" y="487.206" width="13.7241" height="13.7241" rx="2.28735" fill="white"/>
<rect x="19.4425" y="507.792" width="13.7241" height="13.7241" rx="2.28735" fill="white"/>
<rect x="37.7413" y="487.206" width="13.7241" height="13.7241" rx="2.28735" fill="white"/>
<rect x="37.7413" y="507.792" width="13.7241" height="13.7241" rx="2.28735" fill="white"/>
<rect x="56.0402" y="487.207" width="13.7241" height="13.7241" rx="2.28735" fill="white"/>
<rect x="56.0401" y="507.792" width="13.7241" height="13.7241" rx="2.28735" fill="white"/>
<rect x="74.339" y="487.206" width="13.7241" height="13.7241" rx="2.28735" fill="white"/>
<rect x="74.339" y="507.793" width="13.7241" height="13.7241" rx="2.28735" fill="white"/>
<circle cx="153.253" cy="51.4658" r="18.2988" fill="#3F94F9"/>
<path d="M156.33 43.46L149.133 50.657C148.686 51.1036 148.686 51.8278 149.133 52.2744L156.33 59.4714" stroke="white" stroke-width="2.28735"/>
<path d="M204.69 62.8789H201.36V52.9518H190.664V62.8789H187.334V40.4629H190.664V49.7495H201.36V40.4629H204.69V62.8789ZM210.365 57.6271C210.365 56.1754 210.888 54.9372 211.934 53.9125C212.98 52.8878 214.239 52.3754 215.712 52.3754H219.299C219.982 52.3754 220.558 52.2473 221.028 51.9911C221.498 51.7349 221.733 51.34 221.733 50.8063C221.733 49.931 221.348 49.1838 220.58 48.5647C219.811 47.9456 218.925 47.636 217.922 47.636C216.193 47.636 214.805 48.5433 213.759 50.3579H210.3C210.92 48.6928 211.912 47.3158 213.279 46.227C214.666 45.1169 216.203 44.5618 217.89 44.5618C219.982 44.5618 221.69 45.2663 223.014 46.6753C224.359 48.0843 225.031 49.7922 225.031 51.799V62.8789H221.829V61.5339C220.868 62.6868 219.384 63.2632 217.378 63.2632C215.371 63.2632 213.695 62.7508 212.35 61.7261C211.026 60.68 210.365 59.3137 210.365 57.6271ZM213.567 57.6271C213.567 58.3743 213.93 58.9935 214.656 59.4845C215.381 59.9541 216.289 60.189 217.378 60.189C218.658 60.189 219.715 59.8581 220.548 59.1963C221.402 58.5131 221.829 57.6378 221.829 56.5704V54.0726C221.316 54.9906 220.366 55.4496 218.979 55.4496H215.712C215.115 55.4496 214.602 55.6631 214.175 56.09C213.77 56.4957 213.567 57.008 213.567 57.6271ZM237.495 55.3215H234.934V52.2473H237.495C238.435 52.2473 239.182 52.0765 239.737 51.7349C240.292 51.372 240.57 50.8596 240.57 50.1978C240.57 49.4933 240.228 48.8956 239.545 48.4045C238.862 47.8922 238.061 47.636 237.143 47.636C236.247 47.636 235.457 47.8281 234.773 48.2124C234.112 48.5753 233.642 49.077 233.364 49.7175H229.842C230.333 48.2658 231.23 47.0489 232.532 46.0669C233.856 45.0635 235.393 44.5618 237.143 44.5618C238.958 44.5618 240.516 45.1062 241.819 46.195C243.121 47.2837 243.772 48.618 243.772 50.1978C243.772 50.9023 243.601 51.5748 243.26 52.2153C242.939 52.8557 242.544 53.3361 242.075 53.6563C242.672 53.9979 243.164 54.5103 243.548 55.1934C243.932 55.8766 244.124 56.6344 244.124 57.467C244.124 59.1536 243.43 60.5412 242.043 61.63C240.655 62.7188 238.979 63.2632 237.015 63.2632C235.2 63.2632 233.589 62.7828 232.18 61.8222C230.771 60.8401 229.831 59.6339 229.362 58.2036H232.852C233.621 59.5272 235.008 60.189 237.015 60.189C238.083 60.189 239.001 59.9328 239.769 59.4204C240.538 58.9081 240.922 58.2569 240.922 57.467C240.922 56.7839 240.612 56.2608 239.993 55.8979C239.374 55.5136 238.542 55.3215 237.495 55.3215ZM248.657 57.6271C248.657 56.1754 249.18 54.9372 250.226 53.9125C251.272 52.8878 252.532 52.3754 254.005 52.3754H257.591C258.274 52.3754 258.851 52.2473 259.321 51.9911C259.79 51.7349 260.025 51.34 260.025 50.8063C260.025 49.931 259.641 49.1838 258.872 48.5647C258.104 47.9456 257.218 47.636 256.214 47.636C254.485 47.636 253.097 48.5433 252.051 50.3579H248.593C249.212 48.6928 250.205 47.3158 251.571 46.227C252.959 45.1169 254.496 44.5618 256.182 44.5618C258.274 44.5618 259.982 45.2663 261.306 46.6753C262.651 48.0843 263.323 49.7922 263.323 51.799V62.8789H260.121V61.5339C259.16 62.6868 257.677 63.2632 255.67 63.2632C253.663 63.2632 251.987 62.7508 250.642 61.7261C249.319 60.68 248.657 59.3137 248.657 57.6271ZM251.859 57.6271C251.859 58.3743 252.222 58.9935 252.948 59.4845C253.674 59.9541 254.581 60.189 255.67 60.189C256.951 60.189 258.008 59.8581 258.84 59.1963C259.694 58.5131 260.121 57.6378 260.121 56.5704V54.0726C259.609 54.9906 258.659 55.4496 257.271 55.4496H254.005C253.407 55.4496 252.895 55.6631 252.468 56.09C252.062 56.4957 251.859 57.008 251.859 57.6271ZM271.457 44.9461H284.395V59.8047H287.052V67.4262H283.85V62.8789H271.009V67.4262H267.807V59.8047H269.056C270.657 58.6946 271.457 56.9547 271.457 54.585V44.9461ZM272.77 59.8047H281.192V48.0203H274.66V54.585C274.66 57.1468 274.03 58.8867 272.77 59.8047Z" fill="#3F94F9"/>
<path d="M763.948 62.8789H760.617V52.9518H749.922V62.8789H746.591V40.4629H749.922V49.7495H760.617V40.4629H763.948V62.8789ZM769.622 57.6271C769.622 56.1754 770.145 54.9372 771.191 53.9125C772.237 52.8878 773.497 52.3754 774.97 52.3754H778.556C779.239 52.3754 779.816 52.2473 780.285 51.9911C780.755 51.7349 780.99 51.34 780.99 50.8063C780.99 49.931 780.606 49.1838 779.837 48.5647C779.069 47.9456 778.183 47.636 777.179 47.636C775.45 47.636 774.062 48.5433 773.016 50.3579H769.558C770.177 48.6928 771.17 47.3158 772.536 46.227C773.924 45.1169 775.461 44.5618 777.147 44.5618C779.239 44.5618 780.947 45.2663 782.271 46.6753C783.616 48.0843 784.288 49.7922 784.288 51.799V62.8789H781.086V61.5339C780.125 62.6868 778.642 63.2632 776.635 63.2632C774.628 63.2632 772.952 62.7508 771.607 61.7261C770.284 60.68 769.622 59.3137 769.622 57.6271ZM772.824 57.6271C772.824 58.3743 773.187 58.9935 773.913 59.4845C774.639 59.9541 775.546 60.189 776.635 60.189C777.916 60.189 778.973 59.8581 779.805 59.1963C780.659 58.5131 781.086 57.6378 781.086 56.5704V54.0726C780.574 54.9906 779.624 55.4496 778.236 55.4496H774.97C774.372 55.4496 773.86 55.6631 773.433 56.09C773.027 56.4957 772.824 57.008 772.824 57.6271ZM800.805 47.4118C802.427 45.5118 804.391 44.5618 806.697 44.5618C809.002 44.5618 810.967 45.5118 812.589 47.4118C814.212 49.3119 815.023 51.4787 815.023 53.9125C815.023 56.3462 814.212 58.5131 812.589 60.4131C810.967 62.3132 809.002 63.2632 806.697 63.2632C804.391 63.2632 802.427 62.3132 800.805 60.4131C799.182 58.5131 798.371 56.3462 798.371 53.9125C798.371 51.4787 799.182 49.3119 800.805 47.4118ZM803.046 58.2356C804.05 59.5378 805.266 60.189 806.697 60.189C808.127 60.189 809.333 59.5378 810.315 58.2356C811.319 56.912 811.821 55.4709 811.821 53.9125C811.821 52.354 811.319 50.9237 810.315 49.6214C809.333 48.2978 808.127 47.636 806.697 47.636C805.266 47.636 804.05 48.2978 803.046 49.6214C802.064 50.9237 801.573 52.354 801.573 53.9125C801.573 55.4709 802.064 56.912 803.046 58.2356ZM819.335 44.9461H822.537V50.3579C822.537 51.34 822.921 52.1192 823.69 52.6956C824.48 53.2507 825.472 53.5282 826.668 53.5282C828.12 53.5282 829.39 53.3147 830.479 52.8878V44.9461H833.681V62.8789H830.479V56.026C829.24 56.4103 827.949 56.6024 826.604 56.6024C824.64 56.6024 822.932 56.09 821.48 55.0653C820.05 54.0406 819.335 52.5035 819.335 50.454V44.9461ZM847.303 60.189C849.033 60.189 850.42 59.2817 851.466 57.467H854.957C854.295 59.1536 853.281 60.5412 851.915 61.63C850.548 62.7188 849.011 63.2632 847.303 63.2632C844.998 63.2632 843.034 62.3132 841.411 60.4131C839.789 58.5131 838.977 56.3462 838.977 53.9125C838.977 51.4787 839.789 49.3119 841.411 47.4118C843.034 45.5118 844.998 44.5618 847.303 44.5618C849.609 44.5618 851.573 45.5118 853.196 47.4118C854.818 49.3119 855.629 51.4787 855.629 53.9125V54.9692H842.244C842.457 56.3783 843.034 57.6058 843.973 58.6519C844.912 59.6766 846.022 60.189 847.303 60.189ZM850.314 48.9169C849.46 48.063 848.456 47.636 847.303 47.636C846.151 47.636 845.115 48.0736 844.197 48.9489C843.301 49.8029 842.703 50.849 842.404 52.0872H852.171C851.808 50.8276 851.189 49.7709 850.314 48.9169ZM869.228 44.5618C871.533 44.5618 873.498 45.5118 875.12 47.4118C876.743 49.3119 877.554 51.4787 877.554 53.9125C877.554 56.3462 876.743 58.5131 875.12 60.4131C873.498 62.3132 871.533 63.2632 869.228 63.2632C867.2 63.2632 865.492 62.4733 864.104 60.8935V68.8031H860.902V44.9461H864.104V46.9315C865.428 45.3517 867.136 44.5618 869.228 44.5618ZM865.577 58.2356C866.581 59.5378 867.797 60.189 869.228 60.189C870.658 60.189 871.864 59.5378 872.846 58.2356C873.85 56.912 874.352 55.4709 874.352 53.9125C874.352 52.354 873.85 50.9237 872.846 49.6214C871.864 48.2978 870.658 47.636 869.228 47.636C867.797 47.636 866.581 48.2978 865.577 49.6214C864.595 50.9237 864.104 52.354 864.104 53.9125C864.104 55.4709 864.595 56.912 865.577 58.2356ZM890.036 60.189C891.766 60.189 893.153 59.2817 894.199 57.467H897.69C897.028 59.1536 896.014 60.5412 894.648 61.63C893.281 62.7188 891.744 63.2632 890.036 63.2632C887.731 63.2632 885.767 62.3132 884.144 60.4131C882.522 58.5131 881.711 56.3462 881.711 53.9125C881.711 51.4787 882.522 49.3119 884.144 47.4118C885.767 45.5118 887.731 44.5618 890.036 44.5618C892.342 44.5618 894.306 45.5118 895.929 47.4118C897.551 49.3119 898.362 51.4787 898.362 53.9125V54.9692H884.977C885.19 56.3783 885.767 57.6058 886.706 58.6519C887.645 59.6766 888.756 60.189 890.036 60.189ZM893.047 48.9169C892.193 48.063 891.189 47.636 890.036 47.636C888.884 47.636 887.848 48.0736 886.93 48.9489C886.034 49.8029 885.436 50.849 885.137 52.0872H894.904C894.541 50.8276 893.922 49.7709 893.047 48.9169ZM905.204 44.9461H918.141V59.8047H920.799V67.4262H917.597V62.8789H904.756V67.4262H901.553V59.8047H902.802C904.404 58.6946 905.204 56.9547 905.204 54.585V44.9461ZM906.517 59.8047H914.939V48.0203H908.406V54.585C908.406 57.1468 907.777 58.8867 906.517 59.8047ZM926.065 44.9461H929.267V56.9867L937.849 44.9461H940.667V62.8789H937.465V50.8383L928.883 62.8789H926.065V44.9461Z" fill="#3F94F9"/>
<rect x="671.337" y="135.164" width="277.913" height="277.913" rx="10.2931" fill="#565656"/>
<path d="M368.263 308.411C368.263 306.517 369.8 304.98 371.694 304.98H380.844C382.739 304.98 384.275 306.517 384.275 308.411V350.727C384.275 352.622 382.739 354.159 380.844 354.159H371.695C369.8 354.159 368.263 352.622 368.263 350.727V308.411Z" fill="white"/>
<path d="M393.424 308.411C393.424 306.517 394.96 304.98 396.855 304.98H406.005C407.9 304.98 409.436 306.517 409.436 308.411V350.727C409.436 352.622 407.9 354.159 406.005 354.159H396.855C394.96 354.159 393.424 352.622 393.424 350.727V308.411Z" fill="white"/>
<path d="M204.071 309.952L176.281 326.97C174.563 328.022 174.546 330.543 176.25 331.619L204.04 349.168C205.83 350.299 208.149 348.993 208.149 346.853V312.287C208.149 310.164 205.863 308.855 204.071 309.952Z" fill="white"/>
<path d="M236.094 309.952L208.304 326.97C206.586 328.022 206.569 330.543 208.273 331.619L236.062 349.168C237.853 350.299 240.172 348.993 240.172 346.853V312.287C240.172 310.164 237.886 308.855 236.094 309.952Z" fill="white"/>
<path d="M572.485 309.952L600.274 326.97C601.992 328.022 602.009 330.543 600.306 331.619L572.516 349.168C570.725 350.299 568.407 348.993 568.407 346.853V312.287C568.407 310.164 570.693 308.855 572.485 309.952Z" fill="white"/>
<path d="M540.462 309.952L568.252 326.97C569.969 328.022 569.987 330.543 568.283 331.619L540.493 349.168C538.702 350.299 536.384 348.993 536.384 346.853V312.287C536.384 310.164 538.67 308.855 540.462 309.952Z" fill="white"/>
<path d="M143.231 398.98V418.193H140.377V402.411L136.616 404.634V401.395L140.706 398.98H143.231ZM154.859 406.5H151.181V402.822H154.859V406.5ZM154.859 418.193H151.181V414.515H154.859V418.193ZM168.074 398.98V418.193H165.22V402.411L161.459 404.634V401.395L165.549 398.98H168.074ZM178.22 409.931H175.255L179.016 398.98H187.305V401.724H181.047L179.675 405.622C180.223 405.439 180.855 405.348 181.568 405.348C183.362 405.348 184.926 405.997 186.262 407.296C187.616 408.596 188.293 410.142 188.293 411.935C188.293 413.728 187.616 415.275 186.262 416.574C184.926 417.873 183.362 418.523 181.568 418.523C179.976 418.523 178.577 418.038 177.369 417.068C176.161 416.098 175.393 414.89 175.063 413.445H178.028C178.247 414.104 178.696 414.662 179.373 415.119C180.068 415.558 180.8 415.778 181.568 415.778C182.557 415.778 183.444 415.384 184.231 414.598C185.036 413.811 185.439 412.923 185.439 411.935C185.439 410.947 185.036 410.06 184.231 409.273C183.444 408.486 182.557 408.092 181.568 408.092C180.91 408.092 180.269 408.266 179.647 408.614C179.043 408.943 178.567 409.382 178.22 409.931Z" fill="white"/>
<path d="M578.378 410.589H569.485V408.064H578.378V410.589ZM594.569 408.531L588.695 415.448H596.572V418.192H584.687V415.722L592.153 406.939C593.05 405.859 593.498 404.981 593.498 404.304C593.498 403.48 593.205 402.794 592.62 402.245C592.034 401.678 591.33 401.394 590.506 401.394C589.756 401.394 589.07 401.669 588.448 402.218C587.844 402.748 587.487 403.361 587.377 404.057H584.413C584.651 402.556 585.328 401.284 586.444 400.241C587.56 399.18 588.914 398.649 590.506 398.649C592.08 398.649 593.443 399.207 594.596 400.324C595.767 401.44 596.353 402.766 596.353 404.304C596.353 405.749 595.758 407.158 594.569 408.531ZM606.971 406.499H603.293V402.821H606.971V406.499ZM606.971 418.192H603.293V414.514H606.971V418.192ZM620.186 398.979V418.192H617.331V402.41L613.571 404.633V401.394L617.661 398.979H620.186ZM640.323 412.236C640.323 413.975 639.682 415.457 638.401 416.683C637.121 417.909 635.593 418.522 633.818 418.522C632.043 418.522 630.515 417.909 629.234 416.683C627.953 415.457 627.312 413.975 627.312 412.236C627.312 410.406 628.035 408.823 629.481 407.488C628.621 406.518 628.191 405.392 628.191 404.111C628.191 402.611 628.749 401.33 629.865 400.269C630.981 399.189 632.299 398.649 633.818 398.649C635.336 398.649 636.654 399.189 637.77 400.269C638.886 401.33 639.444 402.611 639.444 404.111C639.444 405.392 639.014 406.518 638.154 407.488C639.6 408.823 640.323 410.406 640.323 412.236ZM631.265 414.789C631.997 415.448 632.848 415.777 633.818 415.777C634.787 415.777 635.638 415.448 636.37 414.789C637.102 414.112 637.468 413.307 637.468 412.373C637.468 411.44 637.102 410.644 636.37 409.985C635.638 409.308 634.787 408.97 633.818 408.97C632.848 408.97 631.997 409.308 631.265 409.985C630.533 410.644 630.167 411.44 630.167 412.373C630.167 413.307 630.533 414.112 631.265 414.789ZM635.739 405.786C636.306 405.273 636.59 404.67 636.59 403.974C636.59 403.279 636.306 402.675 635.739 402.163C635.19 401.65 634.55 401.394 633.818 401.394C633.086 401.394 632.436 401.65 631.869 402.163C631.32 402.675 631.045 403.279 631.045 403.974C631.045 404.67 631.32 405.273 631.869 405.786C632.436 406.298 633.086 406.554 633.818 406.554C634.55 406.554 635.19 406.298 635.739 405.786Z" fill="white"/>
<path d="M201.287 410.063H560.401" stroke="#3D3D3D" stroke-width="6.86205" stroke-linecap="round"/>
<path d="M201.287 410.636H315.654" stroke="white" stroke-width="6.86205" stroke-linecap="round"/>
<rect x="285.919" y="462.046" width="91.494" height="59.4711" rx="12.5804" fill="white"/>
<path d="M319.085 492.352H345.39M332.238 505.505L332.238 479.2" stroke="black" stroke-width="3.70312" stroke-linecap="round"/>
<rect x="397.999" y="462.046" width="91.494" height="59.4711" rx="12.5804" fill="white"/>
<path d="M431.25 492.841V487.991C431.25 486.412 432.531 485.132 434.11 485.132H450.227" stroke="black" stroke-width="3.5581" stroke-linecap="round"/>
<path d="M453.959 484.712L449.46 480.214C449.087 479.84 448.448 480.105 448.448 480.633V489.63C448.448 490.158 449.087 490.423 449.46 490.049L453.959 485.551C454.19 485.319 454.19 484.944 453.959 484.712Z" fill="black"/>
<path d="M456.242 490.469V495.319C456.242 496.898 454.962 498.178 453.383 498.178H437.265" stroke="black" stroke-width="3.5581" stroke-linecap="round"/>
<path d="M433.533 498.597L438.032 503.095C438.406 503.469 439.044 503.204 439.044 502.676V493.679C439.044 493.15 438.406 492.886 438.032 493.259L433.533 497.758C433.302 497.99 433.302 498.365 433.533 498.597Z" fill="black"/>
</g>
<defs>
<clipPath id="clip0_54_972">
<rect width="976.699" height="548.964" rx="21.7298" fill="white"/>
</clipPath>
</defs>
</svg>
