<svg width="4818" height="637" viewBox="0 0 4818 637" fill="none" xmlns="http://www.w3.org/2000/svg">
<path d="M2405.02 332.414C2405.02 350.053 2398.11 391.642 2394.65 410.231" stroke="#565656" stroke-width="6.48476"/>
<path d="M2421.88 328.523C2421.88 339.937 2428.37 373.052 2431.61 388.183" stroke="#565656" stroke-width="6.48476"/>
<path d="M2438.74 597.351C2439.57 594.884 2440.49 592.428 2441.03 589.897C2441.49 587.707 2441.84 585.366 2441.55 583.18C2441.33 581.562 2440.36 580.023 2438.35 579.213C2436.81 578.591 2435.49 577.057 2434.46 575.642C2433.52 574.351 2432.85 572.803 2433.36 570.966C2433.6 570.104 2432.62 569.606 2431.85 569.903C2430.47 570.447 2429.16 571.188 2427.85 571.917C2425.41 573.285 2422.79 573.631 2420.02 573.736C2416.41 573.869 2414.43 571.407 2412.17 569.367C2411.55 568.807 2411.33 567.787 2410.96 566.956C2410.64 566.213 2410.48 565.78 2409.38 566.266C2406.67 567.469 2403.9 568.784 2401.01 569.313C2397.39 569.978 2393.84 569.014 2390.29 567.753C2385.25 565.959 2385.29 558.621 2389.28 555.57C2390.97 554.275 2392.44 552.66 2393.85 551.045C2395.81 548.785 2397.66 546.417 2399.49 544.041C2399.9 543.509 2400.04 542.762 2400.3 542.116C2399.41 541.822 2398.51 541.256 2397.63 541.293C2396.1 541.353 2394.6 541.892 2393.06 542.033C2389.74 542.336 2386.39 542.761 2383.16 541.433C2380.77 540.45 2379.15 538.9 2378.45 536.261C2377.62 533.077 2378.69 530.469 2380.32 527.91C2380.54 527.557 2380.82 527.227 2381.01 526.857C2381.96 525.105 2381.58 523.91 2379.83 523.322C2375.22 521.772 2375.3 520.018 2374.62 516.171C2374.36 514.722 2375.03 513.55 2375.65 512.408C2377.71 508.629 2380.94 505.933 2384.39 503.528C2386.44 502.104 2388.76 501.07 2390.74 499.576C2391.89 498.709 2392.67 497.291 2392.29 495.637C2391.9 493.906 2391.61 492.112 2392.35 490.48C2392.94 489.177 2393.78 487.835 2394.85 486.921C2398.15 484.138 2401.61 481.56 2405 478.883C2405.57 478.434 2406.15 477.96 2406.58 477.392C2406.85 477.036 2407.04 476.387 2406.9 476.026C2406.72 475.596 2406.18 475.098 2405.73 475.029C2403.08 474.605 2400.66 473.59 2398.6 471.966C2395.73 469.704 2395.88 465.946 2398.34 463.552C2401.9 460.09 2405.2 456.443 2407.75 452.16C2408.29 451.248 2408.83 449.97 2408.01 449.195C2407.32 448.552 2406.04 448.382 2405.01 448.308C2404.11 448.241 2403.17 448.575 2402.25 448.765C2398.8 449.484 2396.98 448.374 2395.49 445.827C2394.91 444.826 2395.14 443.239 2395.27 441.945C2395.63 438.411 2397.12 435.205 2399.23 432.471C2400.78 430.471 2402.55 428.536 2404.99 427.314C2408.26 425.676 2409.9 422.883 2410.22 419.16C2410.47 416.174 2411.66 413.502 2413.99 411.416C2414.98 410.53 2415.78 409.43 2416.66 408.414C2417.39 407.569 2417.18 406.709 2416.69 405.835C2414.61 402.109 2413.93 398.293 2416.12 394.378C2416.53 393.64 2417.35 393.135 2417.8 392.412C2419.84 389.132 2421.99 385.917 2423.28 382.219C2424.44 378.9 2425.75 375.63 2427.09 372.376C2427.44 371.532 2427.81 370.408 2429.16 370.752C2429.49 370.838 2429.85 371.042 2430.07 371.296C2432.52 374.131 2434.92 377.018 2437.4 379.83C2438.33 380.886 2439.38 381.851 2440.48 382.738C2442.46 384.344 2444.39 386.084 2446.58 387.34C2448.14 388.228 2449.54 389.203 2450.47 390.632C2451.94 392.913 2452.66 395.499 2452.14 398.243C2451.57 401.221 2452.39 401.761 2454.92 402.857C2458.81 404.54 2461.79 406.97 2463.66 410.816C2464.51 412.585 2465.79 414.015 2467.86 414.539C2469.76 415.02 2471.62 415.626 2473.5 416.185C2478.23 417.591 2481.59 420.753 2484.31 424.683C2484.95 425.605 2485.42 426.654 2485.93 427.666C2486.35 428.515 2485.3 431.522 2484.75 432.236C2483.39 434.003 2481.47 434.344 2479.48 434.617C2479.02 434.68 2478.49 434.664 2478.12 434.894C2477.21 435.448 2475.98 435.959 2475.63 436.797C2475.38 437.42 2476.06 438.861 2476.75 439.366C2479.65 441.498 2482.57 443.573 2485.92 445.073C2488.03 446.017 2490.46 446.643 2492.06 448.67C2494.08 451.237 2493.13 454.814 2491.12 456.349C2489.53 457.573 2488.06 458.961 2486.56 460.307C2485.7 461.078 2485.98 462.438 2487.09 462.789C2490.24 463.784 2493.42 464.647 2496.54 465.723C2498.86 466.525 2501.12 467.521 2503.36 468.548C2505.36 469.468 2506.06 471.433 2506.37 473.351C2506.7 475.357 2507.43 476.963 2509.29 477.718C2510.67 478.274 2512.19 478.517 2513.66 478.769C2517.29 479.38 2520.91 479.997 2524.09 481.981C2525.99 483.162 2527.85 484.436 2529.62 485.801C2530.1 486.166 2530.33 486.969 2530.49 487.618C2530.76 488.698 2530.9 489.814 2531.07 490.918C2531.41 493.009 2529.91 494.173 2528.74 495.516C2528.2 496.143 2527.44 496.773 2527.3 497.497C2527.19 498.153 2527.59 499.205 2528.12 499.614C2529.95 501.028 2531.99 502.29 2533 504.398C2533.69 505.832 2534.03 507.567 2534.05 509.167C2534.08 512.327 2531.92 514.235 2529.51 515.823C2528.72 516.345 2527.81 516.733 2526.89 516.976C2524.08 517.734 2521.24 518.4 2518.4 519.098C2518.22 519.142 2517.99 519.119 2517.86 519.219C2517.15 519.759 2516.46 520.332 2515.76 520.895C2516.22 521.42 2516.59 522.063 2517.14 522.446C2520.53 524.829 2524.12 526.823 2527.99 528.347C2529.9 529.1 2531.82 530.02 2533.47 531.225C2535.4 532.642 2536.22 534.724 2536.11 537.247C2535.98 540.291 2533.82 541.731 2531.81 543.333C2530.33 544.514 2528.77 545.547 2526.8 545.865C2525.79 546.029 2524.85 546.815 2523.84 546.881C2521.76 547.015 2519.66 546.868 2517.56 546.805C2516.79 546.785 2516 546.569 2515.27 546.688C2514.97 546.736 2514.6 547.44 2514.59 547.851C2514.51 551.564 2512.93 554.662 2510.05 556.752C2508.47 557.897 2506.2 558.254 2504.18 558.555C2502.5 558.802 2500.74 558.496 2499.03 558.342C2498.08 558.256 2497.16 557.886 2496.23 557.827C2495.81 557.801 2495.07 558.163 2494.99 558.473C2494.85 559.042 2494.92 559.804 2495.21 560.311C2496.53 562.638 2495.68 567.132 2493.53 568.748C2491.79 570.052 2491.31 573.035 2492.05 575.075C2493.15 578.139 2494.86 580.797 2496.77 583.37C2497.47 584.323 2498.19 585.283 2499.05 586.101" fill="#FFE661"/>
<g clip-path="url(#clip0_125_73)">
<rect x="2307.14" y="399.207" width="167.307" height="223.076" rx="24.6421" transform="rotate(5.17926 2307.14 399.207)" fill="white"/>
<path d="M2406.43 530.45C2409.88 531.07 2413.24 531.943 2416.35 533.559C2419.99 535.457 2423.36 537.747 2426.29 540.656C2427.68 542.041 2429.1 543.413 2430.6 544.681C2431.62 545.544 2432.79 546.234 2433.91 546.968C2434.65 547.453 2435.24 548.033 2435.47 548.91C2435.5 549.031 2435.55 549.158 2435.63 549.255C2436.87 550.85 2436.63 552.547 2436.01 554.281C2435.95 554.467 2435.95 554.686 2435.96 554.889C2436.05 556.581 2436.28 558.279 2436.21 559.965C2436.13 561.989 2435.85 564.011 2435.56 566.019C2435.43 566.898 2435.11 567.767 2434.76 568.589C2434.55 569.09 2434.2 569.646 2433.75 569.911C2432.87 570.432 2432.62 571.185 2432.44 572.095C2432.14 573.569 2431.59 574.959 2430.66 576.173C2429.89 577.193 2428.92 577.851 2427.57 577.773C2426.48 577.712 2425.39 577.662 2424.31 577.601C2422.78 577.515 2421.63 576.821 2420.97 575.436C2420.65 574.764 2420.34 574.073 2420.13 573.361C2419.98 572.843 2419.73 572.792 2419.25 572.799C2417.03 572.831 2414.81 572.764 2412.59 572.816C2410.19 572.873 2407.78 573.021 2405.37 573.132C2402.11 573.282 2398.85 573.378 2395.59 573.608C2393.48 573.758 2391.37 574.094 2389.27 574.386C2389.06 574.415 2388.83 574.69 2388.71 574.907C2387.79 576.509 2386.76 577.996 2385.14 579.005C2384.02 579.701 2382.84 580.154 2381.52 580.291C2379.05 580.549 2376.59 580.574 2374.19 579.894C2372.31 579.36 2370.75 578.249 2369.52 576.712C2368.94 575.985 2368.43 575.203 2367.84 574.491C2367.68 574.299 2367.32 574.194 2367.05 574.174C2362.45 573.841 2357.85 573.577 2353.25 573.185C2351.07 573 2348.91 572.584 2346.74 572.26C2346.42 572.212 2346.1 572.073 2345.78 572.017C2344.38 571.777 2343.19 571.994 2341.99 572.939C2340.55 574.087 2338.7 574.422 2336.85 574.374C2334.13 574.304 2331.41 574.162 2328.97 572.704C2327.73 571.966 2326.82 570.951 2326.03 569.774C2325.86 569.519 2325.5 569.261 2325.2 569.242C2323.93 569.162 2322.65 569.155 2321.37 569.154C2320.39 569.152 2319.19 567.751 2319.51 566.837C2319.63 566.494 2320.1 566.273 2320.42 565.992C2319.73 565.286 2319.81 564.444 2320.08 563.497C2320.37 562.513 2320.49 561.482 2320.65 560.467C2320.67 560.324 2320.55 560.119 2320.43 560.003C2319.88 559.445 2319.8 558.792 2319.97 558.071C2320.27 556.793 2320.56 555.514 2320.87 554.238C2320.91 554.066 2320.96 553.844 2321.09 553.753C2321.8 553.23 2321.94 552.386 2322.32 551.676C2322.91 550.573 2323.58 549.501 2324.09 548.363C2325.05 546.235 2326.63 544.939 2328.96 544.639C2330.65 544.42 2332.15 543.621 2333.75 543.146C2336.4 542.361 2339.11 541.804 2341.78 541.075C2343.52 540.599 2345.23 540.002 2346.94 539.432C2347.16 539.36 2347.39 539.163 2347.5 538.962C2348.09 537.934 2349.01 537.562 2350.14 537.462C2350.61 537.419 2351.11 537.302 2351.54 537.102C2355.49 535.249 2359.42 533.317 2363.4 531.517C2366.77 529.993 2370.36 529.393 2374.06 529.394C2374.94 529.395 2375.82 529.331 2376.78 529.294C2376.81 528.929 2376.9 528.572 2376.86 528.228C2376.81 527.763 2376.69 527.371 2376.03 527.365C2375.6 527.362 2375.14 527.14 2374.76 526.912C2374.57 526.8 2374.43 526.447 2374.44 526.21C2374.48 525.258 2374.62 524.31 2374.66 523.358C2374.69 522.619 2375.47 522.447 2376.44 522.481C2379.3 522.58 2382.16 522.695 2385.01 522.936C2392.53 523.575 2400.04 524.267 2407.55 524.99C2408.78 525.109 2410 525.486 2411.21 525.769C2411.78 525.902 2412.07 526.286 2412.01 526.888C2411.93 527.736 2411.84 528.581 2411.78 529.43C2411.73 530.155 2411.19 530.397 2409.85 530.453C2408.72 530.504 2407.57 530.456 2406.43 530.45ZM2346.59 540.653C2346.61 540.715 2346.64 540.776 2346.66 540.838C2349.02 540.85 2351.38 540.783 2353.73 540.891C2357.85 541.077 2361.96 541.342 2366.07 541.627C2371.14 541.981 2376.21 542.353 2381.27 542.785C2384.98 543.103 2387.87 541.828 2390.27 538.976C2392.16 536.732 2394.36 534.744 2396.44 532.662C2396.86 532.238 2397.37 531.902 2397.98 531.419C2397.62 531.368 2397.47 531.339 2397.33 531.328C2388.51 530.626 2379.69 530.158 2370.84 530.342C2368.46 530.391 2366.23 530.834 2364.11 531.875C2359.81 533.977 2355.49 536.041 2351.2 538.161C2349.64 538.935 2348.13 539.819 2346.59 540.653ZM2389.16 569.106C2389.39 566.107 2388.84 563.462 2387.11 561.132C2385.07 558.399 2381.68 557.428 2378.61 558.7C2378.33 558.813 2378.04 558.995 2377.88 559.227C2377.28 560.068 2376.7 560.918 2376.19 561.812C2374.59 564.619 2373.86 567.732 2373.03 570.814C2372.67 572.127 2372.93 573.227 2373.5 574.358C2376.02 579.359 2381.7 580.34 2385.72 576.439C2387.83 574.393 2388.86 571.829 2389.16 569.106ZM2326.05 551.624C2326.05 551.989 2326.07 552.249 2326.04 552.503C2325.92 553.553 2326.36 554.209 2327.37 554.557C2328.3 554.876 2329.19 555.303 2330.12 555.615C2330.49 555.743 2330.93 555.72 2331.34 555.717C2332.37 555.707 2333.4 555.562 2334.41 555.665C2336.21 555.847 2337.99 556.175 2339.78 556.438C2340.31 556.517 2340.85 556.672 2341.37 556.643C2342.77 556.565 2344.16 556.385 2345.55 556.281C2347.52 556.135 2349.21 555.54 2350.41 553.834C2351.07 552.887 2351.9 552.059 2352.63 551.159C2352.8 550.96 2352.88 550.692 2353 550.456C2352.74 550.379 2352.48 550.235 2352.22 550.238C2349.42 550.272 2346.63 550.29 2343.83 550.396C2342.6 550.442 2341.37 550.818 2340.14 550.8C2338.23 550.771 2336.32 550.537 2334.41 550.377C2334.1 550.351 2333.76 550.317 2333.51 550.172C2331.69 549.148 2329.6 549.026 2327.65 548.46C2327.05 548.284 2326.71 548.604 2326.58 549.159C2326.38 550.011 2326.21 550.868 2326.05 551.624ZM2342.3 563.74C2341.89 565.171 2341.89 565.164 2340.47 565.017C2335.91 564.545 2331.35 564.06 2326.78 563.62C2325.97 563.542 2325.6 563.219 2325.61 562.424C2325.61 562.283 2325.55 562.14 2325.53 562.041C2324.19 561.658 2323.29 562.12 2322.73 563.281C2322.41 563.95 2322.13 564.643 2321.81 565.313C2321.64 565.676 2321.4 566.012 2321.12 566.486C2321.46 566.613 2321.89 566.864 2322.35 566.931C2324.21 567.21 2326.09 567.465 2327.97 567.669C2336.93 568.646 2345.89 569.655 2354.86 570.537C2357.92 570.838 2361.02 570.806 2364.09 570.907C2364.37 570.916 2364.66 570.774 2364.94 570.702C2364.92 570.638 2364.9 570.575 2364.89 570.509C2361.24 570.345 2357.59 570.165 2353.94 570.025C2353.19 569.997 2352.58 569.775 2352.11 569.196C2351.49 568.439 2350.79 567.731 2350.24 566.919C2348.32 564.053 2345.35 563.868 2342.3 563.74ZM2394.6 541.004C2395.27 540.119 2396.03 539.563 2397.12 539.614C2398.16 539.663 2399.2 539.616 2400.23 539.723C2401.59 539.866 2402.77 540.38 2403.48 541.666C2404.2 542.966 2403.62 544.327 2402.18 544.624C2401.76 544.711 2401.33 544.791 2400.91 544.873C2400.92 544.916 2400.93 544.957 2400.94 545C2404.08 544.939 2407.23 544.878 2410.43 544.815C2410.4 544.467 2410.41 544.235 2410.37 544.011C2409.87 541.094 2409.4 538.171 2408.85 535.263C2408.45 533.112 2408.4 533.117 2406.22 532.893C2403.05 532.567 2400.27 533.329 2398.07 535.761C2397.17 536.756 2396.24 537.731 2395.24 538.633C2394.54 539.284 2394.24 539.97 2394.6 541.004ZM2425.12 567.43C2424.96 569.551 2425.01 571.664 2425.75 573.682C2426.05 574.486 2426.49 575.282 2427.04 575.938C2427.83 576.879 2428.93 576.911 2429.85 576.079C2430.35 575.62 2430.8 575.05 2431.12 574.45C2432.31 572.239 2432.66 569.826 2432.65 567.354C2432.64 565.541 2432.42 563.751 2431.63 562.088C2431.16 561.096 2430.6 560.108 2429.34 560.022C2428.07 559.935 2427.42 560.864 2426.8 561.776C2426.73 561.883 2426.67 561.997 2426.61 562.109C2425.7 563.77 2425.33 565.576 2425.12 567.43ZM2410.83 533.521C2411.61 537.258 2412.33 540.807 2413.1 544.346C2413.14 544.531 2413.51 544.765 2413.73 544.774C2415.36 544.841 2416.99 544.879 2418.62 544.882C2420.27 544.886 2421.92 544.841 2423.65 544.816C2423.45 543.801 2423.28 542.925 2423.12 542.046C2422.74 540.03 2421.85 538.384 2419.92 537.415C2418.95 536.928 2418.06 536.262 2417.06 535.853C2414.99 535.006 2412.87 534.276 2410.83 533.521ZM2392.9 565.724C2393.31 565.741 2393.52 565.764 2393.72 565.754C2397.88 565.574 2402.05 565.43 2406.21 565.193C2410.35 564.959 2414.48 564.674 2418.61 564.323C2420.09 564.196 2421.59 563.936 2423.01 563.505C2424.64 563.009 2425.4 561.463 2426.42 560.241C2427.07 559.458 2427.79 558.687 2428.61 558.089C2429.77 557.238 2431.24 557.521 2432.13 558.658C2432.49 559.12 2432.81 559.638 2433.04 560.175C2433.37 560.93 2433.61 561.726 2433.89 562.54C2433.99 560.285 2433.42 558.211 2432.4 556.269C2431.26 554.097 2428.74 553.83 2427.22 555.668C2427.04 555.886 2426.88 556.12 2426.74 556.365C2426.21 557.28 2425.59 558.161 2425.2 559.13C2424.38 561.141 2423.06 562.073 2420.78 562.151C2415.94 562.315 2411.12 562.749 2406.29 563.069C2402.72 563.305 2399.16 563.53 2395.59 563.77C2394.36 563.852 2393.63 564.631 2392.9 565.724ZM2334.13 558.868C2334.14 558.833 2334.14 558.798 2334.14 558.762C2331.77 558.547 2329.39 558.342 2327.02 558.107C2326.5 558.055 2326.25 558.162 2326.23 558.73C2326.2 559.76 2326.12 560.789 2326.03 561.817C2325.99 562.3 2326.18 562.458 2326.63 562.488C2327.25 562.527 2327.87 562.609 2328.49 562.673C2332.62 563.102 2336.74 563.518 2340.87 563.974C2341.53 564.048 2341.74 563.849 2341.76 563.216C2341.79 562.263 2341.86 561.31 2341.98 560.364C2342.06 559.762 2341.88 559.548 2341.26 559.501C2338.88 559.319 2336.51 559.084 2334.13 558.868ZM2426.32 544.028C2426.24 544.012 2426.17 543.998 2426.1 543.982C2425.84 544.206 2425.61 544.469 2425.33 544.644C2424.27 545.295 2423.08 545.364 2421.88 545.367C2417.35 545.38 2412.81 545.328 2408.28 545.405C2402.74 545.499 2397.2 545.742 2391.66 545.83C2389.38 545.866 2387.1 545.691 2384.83 545.542C2384.47 545.519 2384.12 545.137 2383.77 544.92C2383.99 544.632 2384.17 544.291 2384.45 544.069C2384.93 543.681 2385.46 543.365 2386.07 542.954C2377.16 544.373 2368.26 545.145 2359.79 548.059C2359.9 548.105 2360 548.118 2360.09 548.093C2364.16 547.02 2368.31 546.428 2372.49 546.097C2375.4 545.867 2378.33 545.833 2381.26 545.742C2381.6 545.731 2381.95 545.91 2382.29 546.002C2382.29 546.098 2382.28 546.192 2382.28 546.288C2380.67 546.695 2378.92 546.529 2377.38 547.243C2377.61 547.385 2377.83 547.433 2378.04 547.421C2381.92 547.195 2385.79 546.917 2389.67 546.739C2394.69 546.509 2399.71 546.301 2404.73 546.183C2410.79 546.041 2416.86 546.007 2422.92 545.918C2424.01 545.901 2425.04 545.652 2425.85 544.888C2426.08 544.673 2426.16 544.317 2426.32 544.028ZM2349.44 556.786C2350.01 556.726 2350.42 556.684 2350.82 556.641C2357.59 555.925 2364.31 554.886 2370.97 553.489C2372.29 553.214 2373.54 552.753 2374.36 551.623C2375.27 550.35 2376.09 549.007 2376.93 547.684C2377.02 547.534 2377 547.314 2377.04 547.104C2376.88 547.099 2376.8 547.089 2376.73 547.096C2370.55 547.725 2364.38 548.397 2358.2 548.952C2356.69 549.088 2355.41 549.537 2354.41 550.62C2353.11 552.041 2351.88 553.534 2350.65 555.021C2350.23 555.526 2349.9 556.106 2349.44 556.786ZM2411.26 526.612C2407.67 525.448 2403.99 525.541 2400.36 525.085C2400.23 526.469 2400.12 527.76 2400 529.101C2401.86 529.27 2403.66 529.474 2405.47 529.585C2407 529.679 2408.54 529.683 2410.08 529.694C2410.67 529.699 2411.1 529.506 2411.08 528.762C2411.06 528.071 2411.19 527.379 2411.26 526.612ZM2375.21 526.34C2378.69 527.388 2382.26 527.429 2385.77 527.817C2385.9 526.418 2386.02 525.129 2386.14 523.79C2382.55 523.597 2379.05 522.866 2375.49 523.34C2375.4 524.349 2375.31 525.293 2375.21 526.34ZM2353.62 568.278C2353.58 568.372 2353.53 568.467 2353.49 568.561C2353.91 568.781 2354.32 569.181 2354.75 569.193C2357.65 569.274 2360.55 569.285 2363.45 569.292C2364.31 569.294 2365.17 569.042 2365.57 568.238C2366.32 566.748 2366.97 565.208 2367.62 563.67C2367.85 563.119 2367.57 562.843 2366.98 562.883C2366.21 562.938 2365.44 563.048 2364.66 563.05C2363.59 563.054 2362.89 563.413 2362.76 564.572C2362.72 564.921 2362.49 565.244 2362.41 565.592C2362.13 566.831 2361.32 567.336 2360.09 567.463C2357.93 567.687 2355.78 568.002 2353.62 568.278ZM2370.03 556.541C2370.02 556.468 2370.02 556.394 2370.02 556.321C2369.88 556.287 2369.74 556.22 2369.61 556.225C2368.34 556.27 2367.06 556.241 2365.81 556.398C2358.98 557.255 2352.21 558.438 2345.52 560.071C2345.28 560.131 2345.04 560.228 2344.8 560.307C2344.82 560.374 2344.84 560.443 2344.86 560.51C2353.31 559.566 2361.68 558.146 2370.03 556.541ZM2326.35 545.788C2325.97 546.201 2325.5 546.539 2325.25 546.995C2324.45 548.512 2323.68 550.059 2322.99 551.63C2322.85 551.943 2322.97 552.458 2323.14 552.803C2323.57 553.723 2324.42 554.196 2325.3 554.657C2325.41 553.387 2325.42 552.192 2325.65 551.04C2325.95 549.542 2325.9 547.858 2327.41 546.885C2327.07 546.533 2326.76 546.206 2326.35 545.788ZM2392.46 570.748C2392.88 570.785 2393.29 570.869 2393.7 570.852C2396.6 570.736 2399.5 570.604 2402.39 570.467C2407.93 570.206 2413.46 569.947 2418.99 569.658C2419.52 569.631 2420.03 569.401 2420.43 569.297C2411.17 569.797 2401.83 570.15 2392.46 570.748ZM2386.43 549.035C2386.38 549.109 2386.32 549.185 2386.27 549.259C2386.49 549.54 2386.69 549.844 2386.94 550.098C2387.98 551.154 2389.28 551.107 2390.63 550.988C2392.13 550.855 2392.35 550.581 2391.82 549.177C2391.75 548.981 2391.42 548.745 2391.22 548.753C2389.62 548.816 2388.03 548.934 2386.43 549.035ZM2435.98 553.874C2436.05 553.029 2436.16 552.244 2436.19 551.456C2436.25 549.74 2435.43 549.107 2433.65 549.525C2433.79 551.278 2434.3 552.823 2435.98 553.874ZM2325.2 558.358C2323.82 556.76 2322.12 555.604 2321.74 553.528C2320.95 554.196 2320.81 555.101 2321.37 555.885C2322.17 557.014 2323.33 557.695 2324.55 558.292C2324.67 558.352 2324.84 558.325 2325.2 558.358ZM2412.66 550.14C2412.74 550.08 2412.81 550.019 2412.89 549.959C2412.71 549.853 2412.55 549.697 2412.36 549.652C2411.89 549.539 2411.25 549.246 2410.97 549.442C2410.26 549.952 2409.58 549.827 2408.83 549.728C2408.62 549.701 2408.25 549.906 2408.19 550.083C2408.12 550.318 2408.22 550.665 2408.36 550.891C2408.43 550.994 2408.77 550.94 2408.99 550.929C2409.66 550.893 2410.34 550.733 2410.99 550.829C2411.61 550.92 2412.61 550.633 2412.66 550.14ZM2390.85 554.665C2390.99 554.556 2391.14 554.457 2391.27 554.337C2393.03 552.748 2395.06 551.78 2397.45 551.558C2400.51 551.272 2403.57 550.969 2406.63 550.673C2406.98 550.641 2407.32 550.608 2407.66 550.575C2407.59 550.392 2407.55 550.351 2407.51 550.355C2403.78 550.723 2400.04 551.045 2396.32 551.484C2394.08 551.75 2392.3 552.972 2390.85 554.665ZM2424.18 550.294C2425.01 549.707 2425.57 549.488 2426.33 549.835C2426.57 549.949 2427.09 549.6 2427.42 549.37C2427.52 549.299 2427.48 548.754 2427.4 548.727C2427.01 548.595 2426.58 548.486 2426.18 548.521C2425.73 548.561 2425.29 548.866 2424.84 548.863C2424.48 548.86 2424.1 548.687 2424.01 549.145C2423.95 549.459 2424.1 549.815 2424.18 550.294ZM2397.93 542.825C2398.16 542.931 2398.23 542.989 2398.29 542.987C2399.86 542.944 2401.43 542.902 2403 542.836C2403.14 542.83 2403.27 542.675 2403.41 542.591C2403.23 542.487 2403.06 542.289 2402.89 542.294C2401.42 542.338 2399.95 542.41 2398.49 542.5C2398.33 542.509 2398.18 542.674 2397.93 542.825ZM2413.08 549.902C2413.09 549.986 2413.09 550.071 2413.1 550.155C2416.58 549.94 2420.07 549.726 2423.55 549.51C2423.55 549.423 2423.54 549.335 2423.54 549.248C2420.05 549.465 2416.57 549.683 2413.08 549.902ZM2434.78 549.093C2434.78 549.009 2434.78 548.926 2434.79 548.842C2432.54 548.899 2430.29 548.956 2428.03 549.013C2428.04 549.098 2428.04 549.184 2428.04 549.27C2430.29 549.211 2432.54 549.152 2434.78 549.093ZM2370.22 571.67C2370.21 571.612 2370.2 571.552 2370.2 571.494C2368.84 571.451 2367.47 571.395 2366.11 571.378C2365.86 571.376 2365.61 571.533 2365.35 571.617C2365.37 571.675 2365.39 571.732 2365.41 571.79C2367.01 571.75 2368.61 571.711 2370.22 571.67ZM2320.18 564.587C2320.3 564.596 2320.42 564.606 2320.54 564.615C2320.65 563.44 2320.76 562.264 2320.84 561.368C2320.65 562.26 2320.42 563.423 2320.18 564.587Z" fill="#141414"/>
<path d="M2346.59 540.654C2348.13 539.821 2349.64 538.936 2351.2 538.162C2355.49 536.042 2359.81 533.977 2364.11 531.876C2366.23 530.835 2368.46 530.392 2370.84 530.343C2379.69 530.158 2388.51 530.627 2397.33 531.328C2397.47 531.34 2397.62 531.369 2397.98 531.42C2397.37 531.903 2396.86 532.238 2396.44 532.663C2394.36 534.745 2392.16 536.733 2390.27 538.977C2387.87 541.828 2384.98 543.102 2381.27 542.786C2376.21 542.354 2371.14 541.98 2366.07 541.628C2361.96 541.342 2357.85 541.078 2353.73 540.891C2351.38 540.784 2349.02 540.851 2346.66 540.839C2346.64 540.776 2346.61 540.715 2346.59 540.654Z" fill="white"/>
<path d="M2389.16 569.105C2388.86 571.829 2387.83 574.393 2385.72 576.44C2381.69 580.34 2376.02 579.36 2373.5 574.359C2372.93 573.228 2372.67 572.127 2373.03 570.815C2373.86 567.733 2374.59 564.62 2376.19 561.813C2376.7 560.919 2377.28 560.069 2377.88 559.228C2378.04 558.994 2378.33 558.812 2378.61 558.701C2381.68 557.429 2385.07 558.4 2387.11 561.133C2388.84 563.462 2389.39 566.107 2389.16 569.105Z" fill="white"/>
<path d="M2326.05 551.624C2326.21 550.869 2326.38 550.011 2326.58 549.159C2326.7 548.603 2327.04 548.284 2327.65 548.46C2329.6 549.027 2331.68 549.148 2333.5 550.172C2333.76 550.317 2334.1 550.352 2334.4 550.377C2336.31 550.537 2338.22 550.771 2340.14 550.8C2341.37 550.818 2342.6 550.442 2343.83 550.396C2346.63 550.29 2349.42 550.272 2352.22 550.238C2352.47 550.235 2352.74 550.38 2352.99 550.456C2352.88 550.692 2352.79 550.96 2352.63 551.159C2351.9 552.057 2351.07 552.888 2350.41 553.834C2349.21 555.54 2347.51 556.135 2345.55 556.281C2344.15 556.385 2342.76 556.565 2341.37 556.643C2340.84 556.673 2340.31 556.517 2339.77 556.438C2337.99 556.174 2336.21 555.848 2334.41 555.665C2333.4 555.562 2332.36 555.707 2331.34 555.717C2330.93 555.72 2330.49 555.743 2330.11 555.615C2329.19 555.303 2328.29 554.876 2327.37 554.557C2326.36 554.209 2325.92 553.551 2326.04 552.503C2326.07 552.25 2326.05 551.99 2326.05 551.624Z" fill="white"/>
<path d="M2342.3 563.741C2345.35 563.869 2348.32 564.052 2350.24 566.923C2350.79 567.733 2351.49 568.441 2352.11 569.2C2352.58 569.777 2353.19 570 2353.94 570.029C2357.59 570.167 2361.24 570.347 2364.89 570.513C2364.9 570.577 2364.92 570.641 2364.94 570.706C2364.66 570.778 2364.37 570.92 2364.09 570.911C2361.01 570.81 2357.92 570.842 2354.86 570.541C2345.89 569.659 2336.93 568.649 2327.97 567.673C2326.09 567.469 2324.21 567.214 2322.35 566.935C2321.89 566.868 2321.46 566.618 2321.12 566.49C2321.4 566.017 2321.64 565.681 2321.81 565.317C2322.13 564.647 2322.41 563.954 2322.73 563.285C2323.29 562.124 2324.19 561.662 2325.53 562.046C2325.55 562.144 2325.61 562.287 2325.61 562.428C2325.6 563.223 2325.97 563.546 2326.78 563.624C2331.35 564.064 2335.91 564.547 2340.47 565.021C2341.89 565.165 2341.89 565.171 2342.3 563.741Z" fill="white"/>
<path d="M2394.6 541.004C2394.24 539.97 2394.54 539.284 2395.25 538.637C2396.24 537.732 2397.17 536.757 2398.07 535.764C2400.27 533.333 2403.05 532.57 2406.22 532.897C2408.4 533.121 2408.45 533.116 2408.86 535.266C2409.41 538.174 2409.87 541.098 2410.37 544.015C2410.41 544.239 2410.41 544.47 2410.43 544.819C2407.23 544.881 2404.09 544.942 2400.94 545.003C2400.93 544.961 2400.92 544.92 2400.91 544.877C2401.34 544.794 2401.76 544.715 2402.19 544.627C2403.62 544.33 2404.2 542.969 2403.49 541.67C2402.77 540.381 2401.59 539.869 2400.23 539.727C2399.2 539.62 2398.16 539.666 2397.13 539.618C2396.03 539.563 2395.27 540.119 2394.6 541.004Z" fill="white"/>
<path d="M2425.12 567.429C2425.33 565.576 2425.7 563.77 2426.61 562.11C2426.67 561.998 2426.73 561.884 2426.8 561.777C2427.42 560.865 2428.07 559.936 2429.34 560.023C2430.6 560.11 2431.16 561.097 2431.63 562.089C2432.42 563.752 2432.64 565.542 2432.65 567.355C2432.66 569.827 2432.31 572.24 2431.12 574.452C2430.8 575.051 2430.36 575.621 2429.85 576.08C2428.93 576.912 2427.83 576.88 2427.04 575.939C2426.49 575.283 2426.05 574.487 2425.75 573.683C2425.01 571.664 2424.96 569.55 2425.12 567.429Z" fill="white"/>
<path d="M2410.83 533.521C2412.87 534.277 2414.99 535.005 2417.06 535.853C2418.06 536.262 2418.95 536.928 2419.92 537.415C2421.85 538.383 2422.74 540.03 2423.12 542.046C2423.28 542.924 2423.45 543.801 2423.65 544.815C2421.92 544.84 2420.27 544.885 2418.62 544.882C2416.99 544.878 2415.36 544.841 2413.73 544.774C2413.51 544.764 2413.14 544.531 2413.1 544.345C2412.34 540.806 2411.61 537.258 2410.83 533.521Z" fill="white"/>
<path d="M2392.9 565.724C2393.63 564.631 2394.36 563.852 2395.59 563.769C2399.16 563.53 2402.72 563.305 2406.29 563.069C2411.12 562.749 2415.94 562.314 2420.78 562.151C2423.06 562.073 2424.38 561.141 2425.2 559.13C2425.59 558.16 2426.21 557.28 2426.74 556.365C2426.88 556.119 2427.04 555.886 2427.22 555.668C2428.74 553.83 2431.26 554.097 2432.4 556.269C2433.42 558.21 2433.99 560.285 2433.89 562.54C2433.61 561.728 2433.37 560.931 2433.04 560.175C2432.81 559.638 2432.49 559.12 2432.13 558.658C2431.24 557.523 2429.77 557.238 2428.61 558.089C2427.79 558.687 2427.07 559.458 2426.42 560.241C2425.4 561.464 2424.65 563.011 2423.01 563.504C2421.59 563.936 2420.09 564.195 2418.61 564.322C2414.48 564.675 2410.35 564.959 2406.21 565.193C2402.05 565.43 2397.88 565.572 2393.72 565.754C2393.52 565.764 2393.31 565.741 2392.9 565.724Z" fill="white"/>
<path d="M2334.13 558.869C2336.51 559.084 2338.88 559.319 2341.26 559.501C2341.88 559.548 2342.06 559.762 2341.98 560.364C2341.86 561.31 2341.79 562.263 2341.76 563.216C2341.74 563.849 2341.53 564.046 2340.87 563.974C2336.74 563.518 2332.62 563.102 2328.49 562.673C2327.87 562.61 2327.25 562.527 2326.63 562.488C2326.18 562.46 2325.98 562.3 2326.03 561.817C2326.12 560.791 2326.19 559.76 2326.23 558.73C2326.25 558.162 2326.5 558.055 2327.02 558.107C2329.39 558.342 2331.77 558.547 2334.14 558.762C2334.14 558.798 2334.14 558.833 2334.13 558.869Z" fill="white"/>
<path d="M2426.32 544.029C2426.16 544.318 2426.08 544.675 2425.85 544.886C2425.04 545.651 2424.01 545.901 2422.92 545.915C2416.86 546.004 2410.79 546.039 2404.73 546.181C2399.71 546.299 2394.69 546.505 2389.67 546.737C2385.79 546.915 2381.91 547.193 2378.04 547.419C2377.82 547.432 2377.61 547.385 2377.37 547.241C2378.92 546.528 2380.67 546.694 2382.28 546.286C2382.28 546.19 2382.29 546.095 2382.29 546C2381.94 545.908 2381.6 545.728 2381.25 545.739C2378.33 545.832 2375.4 545.865 2372.49 546.095C2368.31 546.425 2364.16 547.018 2360.09 548.091C2360 548.115 2359.9 548.103 2359.79 548.056C2368.26 545.143 2377.16 544.371 2386.07 542.952C2385.46 543.362 2384.92 543.679 2384.45 544.067C2384.17 544.291 2383.99 544.63 2383.77 544.918C2384.12 545.134 2384.46 545.516 2384.83 545.54C2387.1 545.687 2389.38 545.863 2391.65 545.828C2397.2 545.74 2402.74 545.497 2408.28 545.402C2412.81 545.326 2417.34 545.378 2421.88 545.365C2423.08 545.361 2424.27 545.293 2425.33 544.641C2425.61 544.465 2425.84 544.202 2426.1 543.979C2426.17 543.999 2426.24 544.013 2426.32 544.029Z" fill="white"/>
<path d="M2349.44 556.786C2349.9 556.106 2350.23 555.527 2350.65 555.021C2351.88 553.535 2353.11 552.041 2354.41 550.621C2355.41 549.538 2356.69 549.089 2358.2 548.953C2364.38 548.398 2370.55 547.725 2376.73 547.097C2376.8 547.089 2376.88 547.099 2377.04 547.105C2377 547.314 2377.02 547.535 2376.93 547.685C2376.09 549.008 2375.27 550.35 2374.36 551.624C2373.55 552.752 2372.29 553.214 2370.97 553.49C2364.31 554.887 2357.59 555.926 2350.82 556.642C2350.42 556.684 2350.01 556.727 2349.44 556.786ZM2350.81 556.287C2351.09 556.312 2351.25 556.357 2351.39 556.334C2357.17 555.438 2362.94 554.51 2368.72 553.658C2369.91 553.484 2370.64 552.943 2371.09 551.881C2371.8 550.216 2373.08 549.253 2374.88 549.089C2375.92 548.994 2376.2 548.313 2376.56 547.435C2376.24 547.47 2376.02 547.491 2375.81 547.519C2371.04 548.14 2366.27 548.758 2361.5 549.39C2360.48 549.524 2359.43 549.582 2358.65 550.403C2357.81 551.281 2356.84 552.065 2356.16 553.046C2355.24 554.368 2354.02 554.973 2352.5 554.996C2351.61 555.01 2351.25 555.542 2350.81 556.287Z" fill="white"/>
<path d="M2411.26 526.613C2411.19 527.38 2411.06 528.072 2411.08 528.763C2411.1 529.509 2410.67 529.7 2410.08 529.695C2408.54 529.684 2407 529.68 2405.47 529.586C2403.66 529.475 2401.86 529.271 2400 529.102C2400.12 527.761 2400.24 526.47 2400.36 525.086C2403.99 525.541 2407.67 525.447 2411.26 526.613Z" fill="white"/>
<path d="M2375.21 526.34C2375.31 525.296 2375.4 524.35 2375.49 523.341C2379.05 522.869 2382.55 523.599 2386.14 523.791C2386.02 525.129 2385.9 526.419 2385.77 527.818C2382.26 527.429 2378.69 527.388 2375.21 526.34Z" fill="white"/>
<path d="M2353.62 568.278C2355.78 568.001 2357.93 567.686 2360.09 567.463C2361.32 567.335 2362.13 566.832 2362.41 565.592C2362.49 565.243 2362.72 564.921 2362.76 564.572C2362.89 563.411 2363.59 563.052 2364.66 563.05C2365.43 563.047 2366.21 562.938 2366.98 562.883C2367.57 562.841 2367.85 563.119 2367.62 563.669C2366.97 565.205 2366.32 566.748 2365.57 568.238C2365.17 569.041 2364.31 569.293 2363.45 569.291C2360.55 569.284 2357.65 569.273 2354.75 569.192C2354.32 569.18 2353.91 568.78 2353.49 568.56C2353.53 568.467 2353.58 568.373 2353.62 568.278Z" fill="white"/>
<path d="M2370.03 556.54C2361.68 558.146 2353.31 559.565 2344.86 560.509C2344.84 560.442 2344.82 560.373 2344.8 560.306C2345.04 560.227 2345.27 560.13 2345.52 560.071C2352.21 558.437 2358.98 557.254 2365.81 556.397C2367.06 556.241 2368.34 556.269 2369.61 556.224C2369.74 556.219 2369.88 556.286 2370.02 556.32C2370.02 556.394 2370.02 556.467 2370.03 556.54Z" fill="white"/>
<path d="M2326.35 545.788C2326.76 546.205 2327.07 546.532 2327.41 546.885C2325.9 547.858 2325.95 549.542 2325.65 551.04C2325.42 552.192 2325.42 553.387 2325.3 554.657C2324.42 554.196 2323.57 553.723 2323.14 552.803C2322.97 552.456 2322.85 551.943 2322.99 551.63C2323.69 550.059 2324.45 548.512 2325.26 546.995C2325.5 546.539 2325.97 546.201 2326.35 545.788Z" fill="white"/>
<path d="M2392.46 570.748C2401.83 570.152 2411.17 569.797 2420.43 569.297C2420.03 569.401 2419.52 569.631 2418.99 569.658C2413.46 569.947 2407.93 570.206 2402.39 570.467C2399.5 570.604 2396.6 570.736 2393.7 570.852C2393.29 570.868 2392.88 570.785 2392.46 570.748Z" fill="white"/>
<path d="M2386.43 549.035C2388.03 548.934 2389.62 548.816 2391.22 548.753C2391.42 548.745 2391.75 548.981 2391.82 549.177C2392.36 550.581 2392.13 550.856 2390.63 550.989C2389.28 551.107 2387.98 551.154 2386.94 550.098C2386.69 549.844 2386.49 549.54 2386.27 549.259C2386.32 549.185 2386.38 549.109 2386.43 549.035ZM2391.47 549.577C2390.07 549.674 2388.68 549.769 2387.11 549.878C2388.02 550.452 2390.62 550.315 2391.47 549.577Z" fill="white"/>
<path d="M2435.98 553.873C2434.3 552.822 2433.79 551.278 2433.65 549.525C2435.43 549.107 2436.25 549.74 2436.19 551.455C2436.16 552.243 2436.05 553.027 2435.98 553.873Z" fill="white"/>
<path d="M2325.2 558.358C2324.84 558.326 2324.67 558.352 2324.55 558.293C2323.33 557.695 2322.17 557.016 2321.37 555.886C2320.81 555.103 2320.95 554.198 2321.74 553.53C2322.12 555.602 2323.82 556.76 2325.2 558.358Z" fill="white"/>
<path d="M2412.66 550.141C2412.61 550.634 2411.61 550.921 2410.99 550.828C2410.34 550.732 2409.66 550.891 2408.99 550.928C2408.77 550.94 2408.43 550.995 2408.36 550.89C2408.22 550.666 2408.11 550.318 2408.19 550.082C2408.25 549.905 2408.62 549.701 2408.83 549.727C2409.58 549.824 2410.26 549.951 2410.97 549.441C2411.25 549.246 2411.89 549.539 2412.36 549.651C2412.55 549.696 2412.71 549.852 2412.89 549.958C2412.81 550.02 2412.74 550.081 2412.66 550.141Z" fill="white"/>
<path d="M2390.85 554.665C2392.3 552.971 2394.08 551.75 2396.32 551.486C2400.04 551.046 2403.77 550.725 2407.5 550.356C2407.54 550.352 2407.59 550.393 2407.66 550.577C2407.32 550.609 2406.97 550.64 2406.63 550.674C2403.57 550.97 2400.51 551.273 2397.44 551.56C2395.06 551.782 2393.02 552.75 2391.27 554.338C2391.14 554.457 2390.99 554.556 2390.85 554.665Z" fill="white"/>
<path d="M2424.18 550.294C2424.1 549.813 2423.95 549.458 2424.01 549.147C2424.1 548.689 2424.48 548.862 2424.84 548.864C2425.28 548.868 2425.72 548.563 2426.18 548.523C2426.58 548.488 2427.01 548.597 2427.4 548.728C2427.48 548.756 2427.52 549.3 2427.42 549.372C2427.09 549.6 2426.57 549.951 2426.33 549.836C2425.57 549.488 2425.01 549.709 2424.18 550.294Z" fill="white"/>
<path d="M2397.93 542.824C2398.18 542.673 2398.33 542.508 2398.49 542.499C2399.95 542.411 2401.42 542.338 2402.89 542.294C2403.06 542.289 2403.23 542.487 2403.41 542.591C2403.27 542.677 2403.14 542.831 2403 542.835C2401.44 542.9 2399.86 542.944 2398.29 542.986C2398.23 542.988 2398.16 542.931 2397.93 542.824Z" fill="white"/>
<path d="M2413.08 549.901C2416.57 549.682 2420.05 549.465 2423.54 549.247C2423.54 549.334 2423.55 549.422 2423.55 549.509C2420.07 549.725 2416.58 549.939 2413.1 550.154C2413.09 550.068 2413.09 549.984 2413.08 549.901Z" fill="white"/>
<path d="M2434.78 549.092C2432.53 549.151 2430.29 549.21 2428.04 549.269C2428.04 549.183 2428.04 549.098 2428.03 549.012C2430.29 548.955 2432.54 548.898 2434.79 548.841C2434.79 548.925 2434.78 549.009 2434.78 549.092Z" fill="white"/>
<path d="M2370.22 571.669C2368.61 571.708 2367.01 571.749 2365.41 571.789C2365.39 571.731 2365.37 571.674 2365.35 571.616C2365.61 571.532 2365.86 571.375 2366.11 571.378C2367.48 571.394 2368.84 571.45 2370.2 571.493C2370.2 571.551 2370.21 571.611 2370.22 571.669Z" fill="white"/>
<path d="M2320.18 564.586C2320.42 563.422 2320.65 562.259 2320.84 561.367C2320.76 562.263 2320.65 563.439 2320.54 564.614C2320.42 564.605 2320.3 564.595 2320.18 564.586Z" fill="white"/>
<path d="M2350.81 556.286C2351.25 555.541 2351.61 555.009 2352.49 554.996C2354.02 554.974 2355.23 554.369 2356.16 553.047C2356.84 552.065 2357.81 551.281 2358.64 550.403C2359.43 549.583 2360.48 549.525 2361.5 549.39C2366.27 548.758 2371.04 548.142 2375.8 547.52C2376.02 547.491 2376.24 547.471 2376.56 547.436C2376.2 548.313 2375.92 548.994 2374.87 549.09C2373.08 549.253 2371.8 550.216 2371.09 551.881C2370.64 552.942 2369.91 553.482 2368.72 553.659C2362.94 554.509 2357.17 555.439 2351.39 556.335C2351.25 556.356 2351.09 556.311 2350.81 556.286ZM2374.98 548.249C2374.93 548.14 2374.89 548.03 2374.84 547.919C2370.54 548.613 2366.23 549.288 2361.94 550.02C2361.38 550.115 2360.78 550.399 2360.35 550.772C2359.31 551.688 2358.33 552.678 2357.38 553.69C2356.76 554.358 2356.09 554.838 2355.14 554.909C2354.45 554.959 2353.76 555.098 2353.08 555.254C2352.81 555.315 2352.57 555.527 2352.32 555.671C2352.5 555.858 2352.6 555.887 2352.7 555.874C2357.55 555.135 2362.41 554.404 2367.25 553.64C2368.16 553.497 2368.86 552.96 2369.32 552.148C2369.55 551.746 2369.83 551.37 2370.04 550.958C2370.93 549.201 2372.36 548.414 2374.32 548.505C2374.53 548.518 2374.76 548.339 2374.98 548.249Z" fill="#141414"/>
<path d="M2391.47 549.576C2390.62 550.316 2388.02 550.453 2387.11 549.877C2388.68 549.769 2390.07 549.671 2391.47 549.576Z" fill="#141414"/>
<path d="M2374.98 548.25C2374.76 548.34 2374.53 548.519 2374.32 548.509C2372.35 548.418 2370.92 549.205 2370.03 550.961C2369.82 551.373 2369.54 551.748 2369.32 552.151C2368.85 552.964 2368.16 553.499 2367.25 553.643C2362.4 554.408 2357.55 555.139 2352.7 555.878C2352.6 555.892 2352.5 555.863 2352.32 555.674C2352.57 555.531 2352.8 555.319 2353.07 555.258C2353.75 555.102 2354.44 554.964 2355.14 554.912C2356.09 554.842 2356.75 554.361 2357.38 553.694C2358.33 552.682 2359.31 551.691 2360.35 550.776C2360.77 550.403 2361.37 550.119 2361.93 550.024C2366.23 549.292 2370.54 548.615 2374.84 547.923C2374.89 548.031 2374.93 548.141 2374.98 548.25Z" fill="white"/>
<path d="M2463.43 514.947L2295.89 596.128" stroke="#DE2B2B" stroke-width="9.07866"/>
</g>
<rect x="2311.25" y="404.138" width="158.228" height="213.997" rx="20.1027" transform="rotate(5.17926 2311.25 404.138)" stroke="#DE2B2B" stroke-width="9.07866"/>
<path d="M1999.22 160.704L1852.81 28.977C1849.37 25.8818 1847.41 21.4718 1847.41 16.8442C1847.41 7.83049 1854.71 0.523438 1863.73 0.523438H2952.85C2962.1 0.523438 2969.59 8.0193 2969.59 17.2659C2969.59 22.1956 2967.42 26.8747 2963.66 30.0558L2807.78 161.73C2798.76 169.345 2787.34 173.523 2775.54 173.523H2032.63C2020.3 173.523 2008.39 168.957 1999.22 160.704Z" fill="#565656"/>
<path d="M2343 74.2064V122.523C2343 127.494 2347.03 131.523 2352 131.523H2467C2471.97 131.523 2476 127.494 2476 122.523V74.2412C2476 71.0164 2474.27 68.038 2471.48 66.4338L2440.58 48.716C2439.22 47.9346 2437.67 47.5234 2436.1 47.5234H2382.43C2380.84 47.5234 2379.28 47.9439 2377.9 48.7422L2347.48 66.4251C2344.71 68.0361 2343 71.0002 2343 74.2064Z" fill="#3D3D3D"/>
<path d="M2343 74.2064V122.523C2343 127.494 2347.03 131.523 2352 131.523H2467C2471.97 131.523 2476 127.494 2476 122.523V74.2412C2476 71.0164 2474.27 68.038 2471.48 66.4338L2440.58 48.716C2439.22 47.9346 2437.67 47.5234 2436.1 47.5234H2382.43C2380.84 47.5234 2379.28 47.9439 2377.9 48.7422L2347.48 66.4251C2344.71 68.0361 2343 71.0002 2343 74.2064Z" fill="black" fill-opacity="0.2"/>
<path d="M2008.61 282.023C1993.81 264.823 2004.43 206.023 2008.61 188.523C2012.78 171.023 2018.99 128.442 2051.11 116.023C2083.43 103.523 2154.11 103.523 2207.61 101.023C2261.11 98.5232 2515.43 101.023 2573.43 101.023C2631.43 101.023 2710.43 108.023 2735.61 113.023C2756.75 117.222 2773.72 125.886 2786.43 146.023C2804.43 174.523 2817.61 220.023 2816.11 259.023C2814.62 297.644 2783.72 306.355 2764.18 311.862L2763.61 312.023C2744.11 317.523 2532.61 319.023 2525.11 319.023C2517.61 319.023 2491.61 336.023 2484.61 336.023H2333.61C2327.11 336.023 2305.11 319.023 2296.11 319.023C2287.11 319.023 2142.11 313.523 2095.61 311.523C2049.11 309.523 2027.11 303.523 2008.61 282.023Z" fill="#979797"/>
<path d="M2027.26 273.953C2013.13 258.8 2023.28 207.001 2027.26 191.585C2031.24 176.168 2037.17 138.656 2067.82 127.716C2098.67 116.705 2166.12 116.705 2217.17 114.502C2268.23 112.3 2510.95 114.502 2566.3 114.502C2621.65 114.502 2697.04 120.669 2721.06 125.074C2741.24 128.772 2757.43 136.405 2769.57 154.145C2786.75 179.251 2799.32 219.334 2797.89 253.691C2796.47 287.714 2766.98 295.388 2748.33 300.239L2747.79 300.381C2729.18 305.226 2527.33 306.547 2520.18 306.547H2301.63C2293.04 306.547 2154.66 301.702 2110.29 299.94C2065.91 298.178 2044.91 292.893 2027.26 273.953Z" fill="#565656"/>
<path d="M2547 307.523L2646 113.523H2736L2633.5 307.523H2547Z" fill="#979797" fill-opacity="0.26"/>
<rect x="2384" y="315.523" width="50" height="13" rx="6.5" fill="#3D3D3D"/>
<rect x="2384" y="315.523" width="50" height="13" rx="6.5" fill="black" fill-opacity="0.2"/>
<defs>
<clipPath id="clip0_125_73">
<rect x="2307.14" y="399.207" width="167.307" height="223.076" rx="24.6421" transform="rotate(5.17926 2307.14 399.207)" fill="white"/>
</clipPath>
</defs>
</svg>
