<svg width="4818" height="320" viewBox="0 0 4818 320" fill="none" xmlns="http://www.w3.org/2000/svg">
<rect x="2479" y="193.33" width="256" height="87" rx="22" fill="#565656"/>
<rect x="1751" y="193.33" width="122" height="87" rx="22" fill="#565656"/>
<rect x="1910" y="193.33" width="122" height="87" rx="22" fill="#565656"/>
<rect x="2975" y="193.33" width="125" height="87" rx="22" fill="#565656"/>
<rect x="3784" y="193.33" width="125" height="87" rx="22" fill="#565656"/>
<rect x="1267" y="193.33" width="125" height="87" rx="22" fill="#565656"/>
<rect x="244" y="193" width="125" height="87" rx="22" fill="#565656"/>
<rect x="3004" y="34.3301" width="138" height="87" rx="22" fill="#565656"/>
<rect x="2192" y="34.3301" width="138" height="87" rx="22" fill="#565656"/>
<rect x="1457" y="34.3301" width="138" height="87" rx="22" fill="#565656"/>
<rect x="645" y="53" width="138" height="87" rx="22" fill="#565656"/>
<rect x="1712" y="34.3301" width="396" height="87" rx="22" fill="#565656"/>
<rect x="3175" y="34.3301" width="201" height="87" rx="22" fill="#565656"/>
<rect x="3175" y="34" width="201" height="87" rx="22" fill="#565656"/>
<rect x="4221" y="34" width="201" height="87" rx="22" fill="#565656"/>
<path d="M0 6L4818 6.00013" stroke="#3D3D3D" stroke-width="11"/>
<path d="M0 6L4818 6.00013" stroke="black" stroke-opacity="0.2" stroke-width="11"/>
<path d="M0 314L4818 314" stroke="#3D3D3D" stroke-width="11"/>
<path d="M0 314L4818 314" stroke="black" stroke-opacity="0.2" stroke-width="11"/>
<path d="M0 160L4818 160" stroke="#3D3D3D" stroke-width="11" stroke-dasharray="50 50"/>
<path d="M0 160L4818 160" stroke="black" stroke-opacity="0.2" stroke-width="11" stroke-dasharray="50 50"/>
</svg>
