<svg width="4818" height="587" viewBox="0 0 4818 587" fill="none" xmlns="http://www.w3.org/2000/svg">
<path d="M1885 581L1885 348" stroke="white" stroke-width="12" stroke-linecap="round" stroke-linejoin="round"/>
<path d="M1893.22 146.512L2000.76 326.382C2004.34 332.381 2000.02 340 1993.03 340H1777.97C1770.98 340 1766.66 332.381 1770.24 326.382L1877.78 146.512C1881.27 140.67 1889.73 140.67 1893.22 146.512Z" fill="#FFE661" stroke="#DE2B2B" stroke-width="16"/>
<path fill-rule="evenodd" clip-rule="evenodd" d="M1890.5 287.5V315.5C1890.5 323.5 1904.5 328 1904.5 315.5V289C1904.5 287.8 1904.17 286.167 1904 285.5H1907L1933 300.5L1908.5 324L1977.5 323.5L1950.5 279L1938 296L1911.5 280.5C1911.67 279.667 1911.7 277.2 1910.5 274C1909.3 270.8 1899.67 244 1895 231C1891.67 227.5 1884.6 220.4 1883 220C1881 219.5 1861 219.5 1856.5 219.5C1852.9 219.5 1850.33 222.5 1849.5 224C1847 229.333 1841.7 240.7 1840.5 243.5C1839 247 1840.5 255.5 1848.5 252C1855.7 256 1861.5 259.667 1863.5 261C1862.17 263.333 1860.8 268.8 1866 272C1871.2 275.2 1884.5 283.667 1890.5 287.5ZM1866 254.5L1876 232.5H1858L1852 246.5L1866 254.5ZM1896.5 272L1889 250L1883 264L1896.5 272Z" fill="#141414"/>
<path d="M1848.5 311.5C1841 321.5 1853.5 328.5 1858.5 321.5L1876 297V281.5L1863 273V290L1848.5 311.5Z" fill="#141414"/>
<path d="M1891 223.5C1888 221 1881 214 1886 207C1886.71 206 1888 203.8 1892 203C1897 202 1902 207.5 1904 210.5C1906 213.5 1906.5 219.5 1903.5 224.5C1900.5 229.5 1894 226 1891 223.5Z" fill="#141414"/>
</svg>
