<svg width="656" height="380" viewBox="0 0 656 380" fill="none" xmlns="http://www.w3.org/2000/svg">
<g clip-path="url(#clip0_54_440)">
<rect x="0.138428" y="0.453613" width="655" height="379" rx="20" fill="white"/>
<path d="M642.138 379.513C638.808 379.413 635.488 379.233 632.158 379.223C433.738 379.203 235.328 379.203 36.9084 379.213C29.6584 379.213 22.4084 379.323 15.1584 379.293C14.1484 379.293 13.1384 378.793 12.1384 378.513C12.1384 378.343 12.1384 378.183 12.1384 378.013C17.3484 374.603 22.7884 371.393 26.6584 366.413C28.9784 363.433 30.8584 360.063 32.6284 356.703C34.0184 354.063 36.3684 352.943 39.1284 354.103C40.9584 354.873 42.7884 355.693 44.6984 356.243C49.1884 357.543 54.6584 355.523 57.1284 351.463C58.9284 348.503 60.1384 345.183 61.9884 342.253C63.0884 340.513 64.6584 338.473 66.4384 337.913C70.0984 336.773 71.8084 334.253 73.1484 331.103C74.8284 327.133 76.2884 323.053 78.2584 319.233C79.0084 317.783 80.7684 316.183 82.2784 315.923C86.4384 315.223 88.9384 312.383 91.1584 309.503C96.1084 303.063 100.508 296.183 105.378 289.673C108.808 285.083 112.648 280.803 116.278 276.373C118.428 273.753 120.528 271.093 122.568 268.543C124.988 270.373 126.998 272.273 129.358 273.533C130.598 274.203 132.618 274.263 133.948 273.743C137.178 272.483 140.188 270.653 143.348 269.203C145.138 268.383 147.018 267.643 148.938 267.223C158.678 265.053 165.908 259.593 172.198 251.843C176.408 246.653 182.348 242.823 187.648 238.543C192.678 234.483 197.898 230.653 203.018 226.713C207.118 223.553 207.998 218.973 208.118 214.263C208.188 211.453 209.688 210.353 211.968 209.943C213.408 209.683 214.978 209.723 216.418 210.013C221.708 211.093 226.938 212.423 232.228 213.483C238.408 214.723 244.638 214.033 249.848 210.743C253.658 208.333 256.738 204.513 259.548 200.853C263.588 195.603 267.028 189.883 270.828 184.443C274.738 178.853 279.138 173.813 284.688 169.623C291.218 164.683 295.968 157.973 300.048 150.893C302.988 145.793 305.588 140.503 308.498 135.373C309.088 134.323 310.278 133.043 311.308 132.923C316.058 132.393 321.058 131.483 324.848 135.663C326.168 137.123 327.148 138.883 328.318 140.483C334.798 149.353 342.938 156.623 351.068 163.873C357.578 169.673 364.808 174.713 370.918 180.883C376.378 186.393 380.858 192.903 385.578 199.113C390.498 205.583 395.168 212.233 399.988 218.783C409.058 231.093 419.908 241.793 430.748 252.483C432.168 253.883 433.738 255.143 435.138 256.573C436.418 257.873 437.448 257.603 438.468 256.333C440.758 253.493 442.928 250.543 445.348 247.803C451.578 240.753 458.048 234.103 467.338 230.863C472.968 228.903 478.198 225.853 483.758 223.673C487.848 222.063 492.158 221.313 496.658 222.323C503.138 223.773 507.748 227.933 511.608 232.853C516.938 239.633 521.748 246.823 526.938 253.703C532.088 260.523 538.938 265.413 546.158 269.803C556.288 275.963 566.568 281.883 576.558 288.263C584.408 293.273 591.778 298.993 598.058 305.963C599.048 307.063 599.818 308.383 600.588 309.653C606.628 319.693 612.468 329.853 618.738 339.753C624.158 348.313 630.058 356.583 635.748 364.983C637.888 368.143 640.008 371.323 642.148 374.493C642.138 376.183 642.138 377.843 642.138 379.513ZM321.918 207.403C321.638 207.403 321.368 207.403 321.088 207.403C317.498 192.983 314.978 178.293 310.828 163.913C309.918 164.543 309.418 165.163 308.968 165.823C304.848 172.003 300.418 178.093 294.408 182.443C288.198 186.933 283.958 192.833 279.918 199.023C274.608 207.153 269.288 215.213 261.898 221.713C257.758 225.353 253.178 227.963 247.778 229.033C246.098 229.363 245.878 230.363 246.538 231.543C246.988 232.363 247.868 233.013 248.688 233.543C250.838 234.953 253.058 236.263 255.238 237.623C259.528 240.303 263.818 242.963 268.078 245.693C268.988 246.273 269.758 247.083 270.588 247.783C270.478 248.033 270.368 248.293 270.248 248.543C267.408 248.003 264.568 247.463 261.728 246.923C261.708 248.023 261.848 248.593 262.198 248.783C265.758 250.753 269.428 252.543 272.908 254.643C274.718 255.733 277.788 255.953 277.308 259.233C276.808 262.603 276.178 265.953 275.508 269.293C275.158 271.043 275.148 272.533 276.748 273.753C282.778 278.333 288.748 282.973 294.768 287.563C296.368 288.783 298.048 289.883 295.288 292.163C300.208 293.393 300.028 296.833 299.478 300.353C298.968 303.553 298.218 306.713 297.758 309.923C297.198 313.863 296.778 317.833 296.418 321.803C296.258 323.583 296.388 325.403 296.388 327.203C296.678 327.253 296.958 327.293 297.248 327.343C298.718 324.153 300.178 320.963 301.648 317.773C301.858 317.823 302.068 317.873 302.278 317.923C302.368 318.533 302.578 319.143 302.538 319.743C302.148 324.953 301.708 330.163 301.308 335.383C301.188 336.883 301.678 337.713 303.348 336.963C303.958 336.693 304.598 336.463 305.148 336.103C308.408 333.953 311.618 331.703 314.928 329.633C315.598 329.213 316.948 328.983 317.468 329.363C320.598 331.683 323.608 334.153 326.568 336.683C328.048 337.953 329.048 337.883 330.248 336.293C337.458 326.753 344.718 317.243 352.008 307.763C353.268 306.123 354.718 304.613 356.088 303.053C356.338 303.203 356.578 303.343 356.828 303.493C354.268 308.983 351.708 314.473 349.158 319.973C349.428 320.133 349.698 320.293 349.968 320.453C350.538 319.833 351.158 319.263 351.658 318.603C355.898 312.953 360.008 307.213 364.378 301.663C365.848 299.803 365.948 298.483 364.538 296.633C361.348 292.473 358.258 288.233 355.288 283.913C354.518 282.783 353.968 281.213 354.008 279.873C354.248 272.473 354.728 265.093 355.078 257.703C355.188 255.313 355.538 252.933 353.378 251.003C348.978 247.073 344.708 243.013 340.418 238.963C339.658 238.243 339.118 237.303 338.028 235.893C340.948 236.443 343.008 236.833 345.058 237.223C345.268 236.953 345.488 236.693 345.698 236.423C344.808 235.833 343.918 235.243 343.038 234.633C339.468 232.193 335.878 229.793 332.368 227.263C331.328 226.513 330.018 225.563 329.708 224.453C328.508 220.063 327.528 215.603 326.718 211.123C325.558 204.673 324.638 198.183 323.568 191.713C323.448 190.993 323.048 190.333 322.778 189.643C322.498 189.693 322.208 189.733 321.928 189.783C321.918 195.653 321.918 201.533 321.918 207.403ZM175.688 336.033C175.968 335.923 176.238 335.813 176.518 335.703C177.688 337.083 178.848 338.473 180.038 339.843C183.348 343.673 186.818 347.383 189.918 351.373C191.118 352.913 192.178 353.093 193.718 352.563C200.208 350.313 206.718 348.083 213.178 345.733C213.828 345.503 214.638 344.513 214.628 343.893C214.568 340.493 214.528 337.043 213.978 333.703C213.568 331.183 214.088 329.353 215.898 327.663C219.658 324.143 223.398 320.593 227.048 316.963C228.228 315.793 229.128 314.333 230.158 313.003C229.918 312.783 229.678 312.563 229.438 312.343C226.248 314.353 223.048 316.373 219.858 318.383C219.688 318.253 219.518 318.113 219.338 317.983C219.668 317.323 219.888 316.563 220.358 316.023C224.068 311.673 227.688 307.223 231.618 303.063C236.698 297.683 240.678 292.003 240.888 284.133C240.998 280.053 242.328 276.013 243.008 271.943C243.138 271.193 243.008 270.243 242.638 269.593C239.108 263.323 235.468 257.113 231.948 250.843C229.748 246.933 227.638 242.983 225.588 238.993C224.438 236.753 224.258 236.753 222.228 238.413C215.868 243.623 209.458 248.763 203.008 253.853C202.248 254.453 201.138 254.613 199.598 255.203C201.408 251.393 205.058 249.623 206.108 245.663C205.218 245.893 204.758 245.893 204.458 246.113C200.078 249.273 195.588 252.293 191.388 255.683C188.058 258.373 184.608 261.143 182.048 264.513C176.438 271.883 169.478 277.233 160.938 280.563C157.558 281.883 153.958 282.613 150.578 283.933C147.268 285.223 144.108 286.893 140.918 288.473C140.408 288.733 139.788 289.433 139.808 289.913C139.828 290.353 140.558 290.913 141.088 291.163C144.018 292.523 146.928 293.933 149.948 295.073C153.438 296.393 154.828 298.953 155.198 302.473C156.298 312.883 157.468 323.283 158.688 333.673C158.908 335.523 159.548 337.323 159.998 339.143C160.248 339.103 160.508 339.053 160.758 339.013C162.118 336.713 163.478 334.413 165.068 331.723C167.468 334.623 169.488 337.123 171.578 339.553C173.598 341.903 175.008 344.853 177.758 346.493C177.978 346.383 178.188 346.263 178.408 346.153C177.508 342.793 176.598 339.413 175.688 336.033ZM520.168 302.493C519.928 302.553 519.688 302.613 519.448 302.673C518.938 302.143 518.298 301.683 517.948 301.063C514.748 295.443 511.648 289.773 508.398 284.193C507.818 283.193 506.788 282.013 505.778 281.793C500.918 280.723 496.018 279.753 491.078 279.173C488.828 278.903 488.308 278.063 488.328 276.053C488.408 268.383 488.398 260.723 488.418 253.053C488.428 249.383 488.468 245.723 488.468 242.053C488.468 240.953 488.508 239.613 486.758 240.203C485.278 240.703 483.858 241.403 482.418 242.033C478.378 243.773 474.398 245.673 470.278 247.213C465.698 248.933 463.968 250.993 463.948 255.813C463.918 263.983 463.938 272.143 463.938 280.313C463.938 282.313 463.938 284.323 463.938 286.323C463.538 286.373 463.138 286.423 462.738 286.463C462.038 284.363 461.338 282.263 460.628 280.163C460.258 280.243 459.888 280.323 459.518 280.413C459.518 281.943 459.378 283.493 459.548 285.003C460.018 289.363 459.658 293.253 454.938 295.313C453.898 295.763 452.968 296.573 452.148 297.383C451.468 298.043 450.738 298.853 450.518 299.723C450.068 301.483 449.878 303.323 449.708 305.143C449.148 310.933 448.608 316.733 448.118 322.523C447.998 323.913 448.098 325.323 448.098 327.363C453.288 323.783 457.758 320.693 462.478 317.423C462.978 318.653 463.528 319.673 463.798 320.753C465.308 326.863 466.758 332.993 468.228 339.123C468.748 341.293 469.198 343.493 469.838 345.633C470.298 347.163 471.258 347.633 472.608 346.363C474.848 344.263 477.198 342.253 479.378 340.093C481.548 337.953 482.368 338.123 484.138 340.713C486.478 344.143 488.988 347.473 491.618 350.693C492.298 351.533 493.778 352.373 494.738 352.223C498.168 351.683 501.538 350.783 504.918 349.913C509.888 348.633 514.838 347.303 519.778 345.943C522.658 345.153 525.518 344.263 528.378 343.413C528.378 343.193 528.378 342.973 528.378 342.753C527.578 342.573 526.748 342.173 525.968 342.263C524.078 342.473 522.218 343.003 520.328 343.243C517.508 343.603 514.668 343.833 511.838 344.113C511.768 343.803 511.708 343.503 511.638 343.193C512.328 342.903 512.988 342.543 513.698 342.333C517.568 341.163 521.458 340.063 525.328 338.883C531.248 337.063 537.138 335.153 543.058 333.363C548.438 331.733 553.868 330.233 559.238 328.583C560.078 328.323 560.758 327.553 561.968 326.683C560.528 326.163 559.698 325.893 558.878 325.573C551.418 322.633 543.948 319.713 536.508 316.743C533.388 315.493 530.268 314.443 528.838 310.733C527.558 307.433 525.628 304.373 523.888 301.263C522.688 299.123 521.338 297.063 520.058 294.963C519.878 295.063 519.698 295.153 519.508 295.253C519.738 297.653 519.958 300.073 520.168 302.493ZM111.058 342.783C111.368 342.723 111.678 342.673 111.988 342.613C112.388 343.933 112.968 345.223 113.158 346.573C113.388 348.183 114.088 348.813 115.648 348.393C116.448 348.183 117.238 347.913 118.008 347.623C121.728 346.223 125.408 344.713 129.158 343.423C132.488 342.283 135.318 340.863 136.758 337.253C138.288 333.413 140.328 329.783 142.168 326.073C143.298 323.793 142.708 322.263 140.828 320.453C135.838 315.633 131.918 309.953 128.768 303.743C128.048 302.323 127.088 301.023 125.838 299.033C124.608 300.543 123.848 301.663 122.908 302.573C119.038 306.333 115.118 310.043 111.178 313.733C110.658 314.223 109.668 314.943 109.328 314.753C107.248 313.623 106.688 315.353 105.848 316.443C102.078 321.333 98.3284 326.403 92.7084 329.193C89.2684 330.903 88.4384 333.823 87.3884 336.753C85.8184 341.143 83.5584 345.073 80.3184 348.363C78.7084 349.993 76.5884 351.113 74.8284 352.613C74.1384 353.203 73.8084 354.203 73.3084 355.013C74.1284 355.433 74.9084 356.123 75.7584 356.213C77.7384 356.423 79.7584 356.233 81.7384 356.433C82.8184 356.543 84.1984 356.843 84.8384 357.583C87.8184 361.033 92.9084 360.743 95.1284 356.873C98.9784 350.193 102.848 343.523 106.778 336.893C107.298 336.013 108.188 335.343 109.318 334.123C109.088 338.143 108.908 341.333 108.728 344.523C108.998 344.553 109.268 344.593 109.528 344.623C110.058 344.033 110.558 343.403 111.058 342.783ZM382.928 245.883C383.198 245.873 383.478 245.873 383.748 245.863C383.898 246.993 384.118 248.113 384.188 249.243C384.678 257.543 385.108 265.843 385.698 274.143C385.748 274.813 386.748 275.833 387.458 275.983C395.088 277.573 402.728 279.093 410.398 280.483C417.168 281.713 423.978 282.743 430.768 283.913C432.508 284.213 432.768 283.453 432.178 282.133C430.568 278.493 428.898 274.873 427.188 271.283C426.878 270.643 426.268 270.133 425.758 269.613C417.268 261.073 408.268 252.963 400.398 243.883C391.768 233.923 384.188 223.053 376.138 212.583C374.998 211.103 373.858 209.613 372.618 208.003C372.088 208.973 371.708 209.653 371.178 210.613C367.628 207.463 364.238 204.463 360.848 201.453C360.508 201.643 360.158 201.833 359.818 202.023C360.118 203.633 360.018 205.473 360.788 206.813C365.668 215.413 370.718 223.913 375.778 232.413C377.338 235.033 378.378 237.633 378.218 240.833C377.958 245.983 378.128 251.163 378.148 256.323C378.148 257.093 378.308 257.873 378.388 258.643C378.728 258.703 379.068 258.773 379.408 258.833C380.558 254.503 381.738 250.193 382.928 245.883Z" fill="#979797" fill-opacity="0.26"/>
<g clip-path="url(#clip1_54_440)">
<rect x="507.138" y="24.4536" width="97" height="66.7662" rx="2.51948" fill="#3F94F9"/>
<path d="M551.572 30.7887H558.707V52.9198H564.331V60.7806H558.707V73.116H550.363V60.7806H532.585V54.1292L551.572 30.7887ZM543.107 52.9198H550.363V43.8497L543.107 52.9198Z" fill="white"/>
<path d="M591.707 40.7134L590.755 38.2191H587.293L586.356 40.7134H584.134L588.14 30.1316H589.924L593.93 40.7134H591.707ZM589.032 33.6084L588.034 36.2539H590.014L589.032 33.6084Z" fill="white"/>
<path d="M585.343 54.5706V43.9887H590.075C590.982 43.9887 591.763 44.3163 592.418 44.9713C593.073 45.6264 593.4 46.4074 593.4 47.3145C593.4 48.2215 593.073 49.0025 592.418 49.6576C591.763 50.3126 590.982 50.6402 590.075 50.6402H587.429V54.5706H585.343ZM590.876 48.2819C591.168 48.0199 591.314 47.6974 591.314 47.3145C591.314 46.9315 591.168 46.609 590.876 46.347C590.584 46.0849 590.246 45.9539 589.863 45.9539H587.429V48.675H589.863C590.246 48.675 590.584 48.544 590.876 48.2819Z" fill="white"/>
<path d="M585.343 57.8459H589.803C590.659 57.8459 591.4 58.1583 592.025 58.7832C592.66 59.408 592.977 60.1538 592.977 61.0205C592.977 61.6654 592.796 62.25 592.433 62.774C592.08 63.2981 591.617 63.6861 591.042 63.938L593.793 68.4277H591.345L588.76 64.195H587.429V68.4277H585.343V57.8459ZM590.498 61.8821C590.76 61.6403 590.891 61.353 590.891 61.0205C590.891 60.6879 590.76 60.4057 590.498 60.1739C590.236 59.932 589.934 59.8111 589.591 59.8111H587.429V62.2298H589.591C589.934 62.2298 590.236 62.1139 590.498 61.8821Z" fill="white"/>
<path d="M521.284 76.8502L522.459 81.0334L523.656 76.8502H525.149L523.137 84.2634H521.887L520.659 79.8684L519.43 84.2634H518.181L516.168 76.8502H517.662L518.858 81.0334L520.034 76.8502H521.284ZM531.198 84.2634L530.531 82.516H528.105L527.449 84.2634H525.892L528.699 76.8502H529.948L532.755 84.2634H531.198ZM529.323 79.286L528.624 81.1393H530.012L529.323 79.286ZM537.509 81.2028H536.63C535.953 81.2028 535.367 81.0122 534.872 80.6309C534.378 80.2497 534.131 79.7555 534.131 79.1483C534.131 78.527 534.403 77.9692 534.947 77.475C535.497 76.9737 536.171 76.7231 536.969 76.7231C537.647 76.7231 538.251 76.9349 538.78 77.3585C539.31 77.7751 539.723 78.3293 540.019 79.0212H538.42C538.272 78.7388 538.071 78.5164 537.817 78.354C537.569 78.1846 537.287 78.0998 536.969 78.0998C536.609 78.0998 536.288 78.2022 536.006 78.407C535.73 78.6046 535.593 78.8447 535.593 79.1271C535.593 79.353 535.681 79.526 535.857 79.646C536.041 79.7661 536.27 79.8261 536.546 79.8261H537.414C538.141 79.8261 538.756 80.0167 539.257 80.3979C539.765 80.7792 540.019 81.2911 540.019 81.9335C540.019 82.569 539.733 83.1373 539.161 83.6386C538.59 84.1399 537.88 84.3905 537.033 84.3905C536.355 84.3905 535.734 84.1787 535.169 83.7551C534.604 83.3244 534.17 82.7702 533.866 82.0924H535.455C535.829 82.7066 536.355 83.0138 537.033 83.0138C537.435 83.0138 537.788 82.9079 538.092 82.6961C538.403 82.4842 538.558 82.2407 538.558 81.9653C538.558 81.7182 538.455 81.5311 538.251 81.404C538.053 81.2699 537.806 81.2028 537.509 81.2028ZM548.089 84.2634H546.628V81.1499H543.599V84.2634H542.138V76.8502H543.599V79.7731H546.628V76.8502H548.089V84.2634ZM552.094 84.2634H550.633V76.8502H552.094V84.2634ZM560.592 84.2634H559.342L556.101 79.6778V84.2634H554.64V76.8502H555.89L559.13 81.4358V76.8502H560.592V84.2634ZM566.122 83.0138C566.503 83.0138 566.835 82.8796 567.117 82.6113C567.4 82.336 567.601 81.9936 567.721 81.5841H565.878V80.2073H569.288V80.7051C569.288 81.6935 568.974 82.5548 568.346 83.2891C567.718 84.0234 566.976 84.3905 566.122 84.3905C565.501 84.3905 564.925 84.2069 564.396 83.8398C563.866 83.4656 563.453 82.9855 563.157 82.3995C562.86 81.8065 562.712 81.1922 562.712 80.5568C562.712 79.9214 562.86 79.3107 563.157 78.7247C563.453 78.1316 563.866 77.6515 564.396 77.2844C564.925 76.9102 565.501 76.7231 566.122 76.7231C566.793 76.7231 567.407 76.9384 567.965 77.3691C568.529 77.7998 568.95 78.3505 569.225 79.0212H567.605C567.216 78.407 566.722 78.0998 566.122 78.0998C565.578 78.0998 565.116 78.3575 564.735 78.8729C564.36 79.3883 564.173 79.9496 564.173 80.5568C564.173 81.164 564.36 81.7253 564.735 82.2407C565.116 82.7561 565.578 83.0138 566.122 83.0138ZM576.145 78.2269H573.921V84.2634H572.459V78.2269H570.235V76.8502H576.145V78.2269ZM578.78 77.2844C579.31 76.9102 579.885 76.7231 580.507 76.7231C581.128 76.7231 581.703 76.9102 582.233 77.2844C582.762 77.6515 583.175 78.1316 583.472 78.7247C583.768 79.3107 583.917 79.9214 583.917 80.5568C583.917 81.1922 583.768 81.8065 583.472 82.3995C583.175 82.9855 582.762 83.4656 582.233 83.8398C581.703 84.2069 581.128 84.3905 580.507 84.3905C579.885 84.3905 579.31 84.2069 578.78 83.8398C578.251 83.4656 577.838 82.9855 577.541 82.3995C577.245 81.8065 577.096 81.1922 577.096 80.5568C577.096 79.9214 577.245 79.3107 577.541 78.7247C577.838 78.1316 578.251 77.6515 578.78 77.2844ZM579.119 82.2407C579.5 82.7561 579.963 83.0138 580.507 83.0138C581.05 83.0138 581.509 82.7561 581.883 82.2407C582.265 81.7253 582.455 81.164 582.455 80.5568C582.455 79.9496 582.265 79.3883 581.883 78.8729C581.509 78.3575 581.05 78.0998 580.507 78.0998C579.963 78.0998 579.5 78.3575 579.119 78.8729C578.745 79.3883 578.558 79.9496 578.558 80.5568C578.558 81.164 578.745 81.7253 579.119 82.2407ZM591.988 84.2634H590.738L587.498 79.6778V84.2634H586.036V76.8502H587.286L590.527 81.4358V76.8502H591.988V84.2634Z" fill="white"/>
</g>
</g>
<defs>
<clipPath id="clip0_54_440">
<rect x="0.138428" y="0.453613" width="655" height="379" rx="20" fill="white"/>
</clipPath>
<clipPath id="clip1_54_440">
<rect x="507.138" y="24.4536" width="97" height="66.7662" rx="2.51948" fill="white"/>
</clipPath>
</defs>
</svg>
