<svg width="538" height="182" viewBox="0 0 538 182" fill="none" xmlns="http://www.w3.org/2000/svg">
<path d="M91 2H15C7.8203 2 2 7.8203 2 15V91M91 2V91M91 2H180M91 91H2M91 91V180M91 91H180M2 91V167C2 174.18 7.8203 180 15 180H91M91 180H180M180 2V91M180 2H269M180 91V180M180 91H269M180 180H269M269 2V91M269 2H358M269 91V180M269 91H358M269 180H358M358 2V91M358 2H447M358 91V180M358 91H447M358 180H447M447 2V91M447 2H523C530.18 2 536 7.8203 536 15V91M447 91V180M447 91H536M447 180H523C530.18 180 536 174.18 536 167V91" stroke="#565656" stroke-width="3"/>
</svg>
