<svg width="656" height="380" viewBox="0 0 656 380" fill="none" xmlns="http://www.w3.org/2000/svg">
<g clip-path="url(#clip0_54_469)">
<rect x="0.809326" y="0.453857" width="655" height="379" rx="20" fill="white"/>
<path d="M16.8209 355.86C38.6809 371.82 61.8009 371.2 85.5709 361.64C102.391 354.88 116.961 344.49 130.341 332.46C159.961 305.82 189.361 278.93 219.041 252.36C232.131 240.64 245.921 229.8 261.001 220.62C275.461 211.81 291.531 208.44 307.871 205.63C332.791 201.33 356.231 206.3 378.881 216.55C379.281 216.73 379.641 216.98 380.141 217.27C378.051 221.06 375.851 224.67 374.021 228.46C361.491 254.48 364.461 279.01 381.731 301.85C395.661 320.27 414.381 332.57 435.091 342.02C458.281 352.61 482.661 358.65 508.141 360.19C509.401 360.27 510.661 360.39 511.911 360.53C512.221 360.56 512.521 360.72 513.881 361.18C508.481 363.18 503.981 365.11 499.341 366.52C482.901 371.54 465.971 374.29 448.881 374.93C425.401 375.81 404.491 367.83 385.811 353.9C383.321 352.05 381.421 351.63 378.451 352.71C355.701 361.01 332.431 367.45 308.771 372.76C283.131 378.52 259.451 374.4 236.521 362.43C221.111 354.39 206.471 345.2 192.581 334.79C191.671 334.11 190.751 333.45 190.311 333.13C177.521 340.88 165.321 348.89 152.551 355.82C141.801 361.66 130.491 366.51 119.221 371.33C100.721 379.25 81.4209 380.03 61.7509 377.07C45.4309 374.62 29.7409 370.07 14.5709 363.64C13.7409 363.29 12.9309 362.89 11.9709 362.46C13.5909 360.24 15.1409 358.14 16.8209 355.86Z" fill="#979797" fill-opacity="0.26"/>
<path d="M186.171 364.63C171.651 376.62 155.441 384.65 137.441 389.03C109.311 395.88 81.4109 394.14 53.7109 386.6C39.9309 382.85 26.7609 377.56 14.3909 370.37C13.5109 369.86 12.6509 369.31 11.9909 368.22C13.0809 368.58 14.1809 368.94 15.2709 369.32C34.5409 375.93 54.1909 380.68 74.5909 382.33C92.5309 383.78 109.481 379.86 126.211 374.2C146.681 367.27 166.341 358.49 185.421 348.38C187.481 347.29 188.851 347.3 190.841 348.74C214.181 365.59 239.181 379.04 267.471 385.73C286.011 390.12 304.421 388.52 322.821 385.11C343.361 381.3 362.981 374.77 381.461 364.92C382.381 364.43 384.131 364.59 385.051 365.16C419.641 386.57 456.351 391.59 495.341 379.74C526.291 370.33 556.871 359.93 586.881 346.04C605.531 368.4 630.711 381.82 656.501 394.36C656.361 394.74 656.231 395.12 656.091 395.5C647.571 394.12 638.991 393.01 630.531 391.31C615.031 388.2 600.351 382.68 586.431 375.19C584.411 374.1 582.821 374.11 580.721 375.02C556.951 385.32 532.511 393.3 506.691 396.69C471.781 401.27 438.321 396.02 406.041 382.37C399.811 379.74 393.701 376.82 387.681 373.74C385.401 372.57 384.041 372.65 382.061 374.41C365.111 389.5 345.981 400.82 323.951 406.74C288.901 416.16 255.751 410.7 224.271 393.33C211.331 386.19 199.681 377.3 188.931 367.19C188.121 366.4 187.271 365.64 186.171 364.63Z" fill="#979797" fill-opacity="0.26"/>
<rect x="466.86" y="295.112" width="141" height="67" rx="5" transform="rotate(-3.29812 466.86 295.112)" fill="#DE2B2B"/>
<path d="M511.254 343.638L507.779 335.905L496.805 336.538L494.29 344.616L487.246 345.022L498.011 310.746L503.666 310.42L518.298 343.232L511.254 343.638ZM501.474 321.604L498.794 330.173L505.072 329.811L501.474 321.604ZM533.184 334.586C534.638 335.912 536.276 336.523 538.097 336.418C539.918 336.313 541.459 335.519 542.72 334.036C544.013 332.551 544.606 330.882 544.499 329.029L543.295 308.136L549.908 307.755L551.112 328.648C551.32 332.258 550.174 335.45 547.673 338.222C545.202 340.961 542.13 342.436 538.456 342.648C534.782 342.859 531.545 341.748 528.744 339.313C525.974 336.844 524.484 333.805 524.276 330.195L523.072 309.301L529.685 308.92L530.889 329.814C530.996 331.667 531.761 333.257 533.184 334.586ZM575.558 334.259C577.283 334.16 578.75 333.466 579.958 332.179C581.164 330.859 581.985 329.257 582.421 327.373L574.083 327.853L573.724 321.624L589.154 320.735L589.284 322.987C589.542 327.459 588.345 331.439 585.693 334.925C583.041 338.412 579.783 340.266 575.917 340.489C573.106 340.651 570.454 339.97 567.962 338.447C565.469 336.892 563.475 334.827 561.98 332.253C560.484 329.647 559.653 326.906 559.487 324.031C559.321 321.156 559.833 318.354 561.022 315.625C562.209 312.864 563.953 310.584 566.253 308.784C568.551 306.953 571.106 305.956 573.918 305.794C576.953 305.62 579.788 306.434 582.424 308.237C585.092 310.039 587.137 312.421 588.558 315.384L581.226 315.807C579.309 313.128 576.992 311.868 574.277 312.024C571.817 312.166 569.791 313.453 568.201 315.884C566.642 318.314 565.942 320.902 566.1 323.65C566.258 326.397 567.251 328.888 569.079 331.123C570.938 333.356 573.098 334.401 575.558 334.259Z" fill="white"/>
</g>
<defs>
<clipPath id="clip0_54_469">
<rect x="0.809326" y="0.453857" width="655" height="379" rx="20" fill="white"/>
</clipPath>
</defs>
</svg>
