<svg width="656" height="380" viewBox="0 0 656 380" fill="none" xmlns="http://www.w3.org/2000/svg">
<g clip-path="url(#clip0_54_494)">
<rect x="0.770813" y="0.453369" width="655" height="379" rx="20" fill="white"/>
<rect x="36.0146" y="20.6396" width="141" height="67" rx="5" transform="rotate(3.6 36.0146 20.6396)" fill="#DE2B2B"/>
<path d="M120.481 49.2098L118.535 49.0873C117.034 48.9929 115.763 48.4892 114.722 47.5763C113.681 46.6634 113.203 45.5348 113.287 44.1905C113.374 42.8149 114.053 41.6179 115.326 40.5994C116.615 39.5663 118.143 39.1053 119.909 39.2165C121.41 39.3109 122.717 39.8639 123.83 40.8755C124.944 41.8715 125.781 43.1561 126.342 44.7293L122.801 44.5066C122.512 43.8606 122.098 43.3402 121.558 42.9453C121.034 42.5357 120.421 42.3088 119.717 42.2646C118.92 42.2144 118.195 42.3963 117.541 42.8103C116.904 43.2096 116.565 43.7219 116.526 44.3472C116.495 44.8474 116.666 45.2426 117.04 45.5329C117.43 45.8242 117.929 45.9891 118.539 46.0274L120.462 46.1484C122.072 46.2497 123.405 46.7573 124.462 47.6712C125.534 48.5861 126.025 49.7548 125.936 51.1772C125.847 52.584 125.135 53.8025 123.799 54.8327C122.463 55.8628 120.857 56.3189 118.982 56.2009C117.481 56.1065 116.135 55.551 114.944 54.5345C113.753 53.5023 112.869 52.2147 112.291 50.6718L115.808 50.8931C116.551 52.3052 117.673 53.0584 119.173 53.1528C120.064 53.2089 120.861 53.0236 121.562 52.5969C122.28 52.1712 122.657 51.6536 122.696 51.044C122.73 50.4969 122.53 50.0684 122.094 49.7585C121.675 49.434 121.137 49.2511 120.481 49.2098ZM142.608 43.9872L134.143 43.4547L133.928 46.8779L140.915 47.3175L140.723 50.3656L133.736 49.926L133.494 53.7713L141.958 54.3038L141.767 57.3519L130.067 56.6158L131.099 40.203L142.799 40.9391L142.608 43.9872ZM146.099 57.6245L147.132 41.2117L154.471 41.6734C155.878 41.7619 157.057 42.3461 158.009 43.4261C158.961 44.5061 159.393 45.7494 159.305 47.1563C159.216 48.5631 158.632 49.7425 157.552 50.6947C156.472 51.6468 155.229 52.0786 153.822 51.9901L149.719 51.7319L149.335 57.8281L146.099 57.6245ZM155.295 48.4105C155.774 48.0326 156.032 47.5467 156.069 46.9527C156.106 46.3587 155.911 45.8442 155.484 45.4093C155.056 44.9744 154.545 44.7382 153.951 44.7008L150.176 44.4633L149.91 48.6838L153.685 48.9213C154.279 48.9587 154.816 48.7884 155.295 48.4105ZM112.804 63.0994L119.182 63.5006C120.557 63.5872 121.783 64.0566 122.859 64.909C123.951 65.7624 124.763 66.8335 125.294 68.1223C125.84 69.4122 126.069 70.7605 125.981 72.1673C125.892 73.5741 125.496 74.8831 124.792 76.0943C124.104 77.3064 123.164 78.2674 121.974 78.9772C120.8 79.6879 119.524 80 118.149 79.9135L111.771 79.5122L112.804 63.0994ZM115.199 76.6677L118.294 76.8624C119.466 76.9362 120.469 76.4657 121.302 75.451C122.15 74.4372 122.615 73.2738 122.698 71.9608C122.781 70.6478 122.465 69.4352 121.75 68.3231C121.051 67.212 120.115 66.6195 118.943 66.5458L115.848 66.3511L115.199 76.6677ZM142.452 68.0248L133.987 67.4923L133.772 70.9155L140.759 71.3551L140.567 74.4032L133.58 73.9636L133.338 77.8089L141.802 78.3415L141.611 81.3896L129.911 80.6535L130.943 64.2406L142.643 64.9767L142.452 68.0248ZM152.501 79.297C153.829 79.3806 154.966 78.7695 155.911 77.4637L159.499 77.6894C158.78 79.135 157.773 80.2957 156.479 81.1715C155.199 82.0483 153.809 82.4395 152.309 82.3451C150.933 82.2586 149.685 81.772 148.564 80.8854C147.443 79.9832 146.596 78.8628 146.021 77.5241C145.447 76.1697 145.204 74.7891 145.293 73.3823C145.381 71.9755 145.795 70.6441 146.533 69.388C147.272 68.1162 148.253 67.1108 149.477 66.3718C150.701 65.6171 152.001 65.283 153.377 65.3695C154.862 65.463 156.192 66.0253 157.367 67.0565C158.557 68.0887 159.41 69.3664 159.927 70.8897L156.339 70.664C155.565 69.25 154.514 68.5012 153.185 68.4176C151.981 68.3419 150.922 68.848 150.006 69.936C149.106 71.025 148.613 72.2416 148.529 73.5859C148.444 74.9302 148.78 76.1989 149.537 77.3921C150.309 78.5863 151.297 79.2213 152.501 79.297Z" fill="white"/>
<path d="M65.4162 56.2772L56.8408 65.1584L68.3446 65.8821L67.9757 71.7468L47.359 70.4497L47.6684 65.5324L60.5934 52.3052C61.1049 51.8542 61.5779 51.2952 62.0124 50.6281C62.4789 49.9327 62.7272 49.3445 62.7575 48.8633C62.8256 47.7806 62.5215 46.8556 61.8451 46.0884C61.1988 45.323 60.3042 44.9044 59.1613 44.8325C58.1688 44.7701 57.2899 45.062 56.5246 45.7083C55.7912 46.3265 55.2439 47.1073 54.8826 48.0508L48.3412 47.6392C49.0772 45.0586 50.4795 42.9276 52.5479 41.246C54.6163 39.5645 56.9438 38.8051 59.5303 38.9678C62.2972 39.1419 64.5985 40.2378 66.4342 42.2555C68.3 44.2752 69.1496 46.6083 68.9831 49.255C68.8336 51.6309 67.6447 53.9717 65.4162 56.2772ZM97.4278 63.4545C97.2442 66.3718 95.9734 68.813 93.6154 70.7783C91.2893 72.7154 88.6225 73.5893 85.615 73.4001C82.6075 73.2109 80.0562 72.0086 77.9612 69.7934C75.8981 67.55 74.9584 64.9697 75.1419 62.0523C75.3217 59.1952 76.5624 56.752 78.864 54.7228C77.7012 53.0493 77.1765 51.3104 77.29 49.5058C77.4527 46.9193 78.5542 44.7694 80.5945 43.0559C82.6648 41.3442 85.0233 40.5717 87.6699 40.7382C90.3166 40.9047 92.5446 41.9658 94.354 43.9215C96.1935 45.8791 97.0318 48.1512 96.8691 50.7376C96.7556 52.5422 96.0171 54.2017 94.6536 55.7162C96.6828 58.0179 97.6075 60.5973 97.4278 63.4545ZM82.6405 65.9663C83.5763 66.931 84.6907 67.454 85.984 67.5354C87.2772 67.6167 88.4485 67.2375 89.4977 66.3977C90.547 65.5579 91.1104 64.5214 91.188 63.2883C91.2656 62.0552 90.8365 60.9563 89.9008 59.9916C88.965 59.0269 87.8506 58.5039 86.5573 58.4225C85.2641 58.3412 84.0928 58.7204 83.0436 59.5602C81.9943 60.4 81.4309 61.4365 81.3533 62.6696C81.2757 63.9027 81.7048 65.0016 82.6405 65.9663ZM89.4302 52.353C90.1937 51.7368 90.6028 50.9926 90.6577 50.1204C90.7126 49.2482 90.3999 48.4586 89.7197 47.7515C89.0395 47.0444 88.2333 46.6616 87.3009 46.6029C86.3686 46.5443 85.5207 46.8231 84.7573 47.4393C83.9938 48.0555 83.5847 48.7998 83.5298 49.6719C83.4749 50.5441 83.7876 51.3338 84.4678 52.0408C85.148 52.7479 85.9542 53.1308 86.8866 53.1894C87.8189 53.2481 88.6668 52.9693 89.4302 52.353Z" fill="white"/>
<path d="M0.961487 278.617C28.4585 264.746 55.9646 250.875 83.4526 236.995C103.892 226.676 124.485 216.655 144.626 205.793C150.279 202.748 153.74 203.464 158.65 206.789C196.449 232.411 234.455 257.742 272.389 283.156C274.654 284.669 277.191 285.865 279.184 287.677C282.609 290.784 285.852 290.458 289.821 288.691C317.309 276.451 344.887 264.411 372.411 252.252C432.126 225.897 491.831 199.514 551.545 173.131C558.023 170.268 564.411 167.17 571.006 164.606C572.999 163.836 575.898 163.754 577.792 164.624C602.933 176.166 627.966 187.953 653.053 199.623C654.956 200.511 655.961 201.435 655.961 203.817C655.889 289.19 655.898 374.562 655.889 459.934C655.889 460.459 655.807 460.985 655.708 462.126C649.04 458.448 642.788 454.634 636.229 451.463C617.312 442.339 598.684 432.727 581.035 421.284C559.201 407.123 536.805 393.769 515.459 378.911C498.834 367.341 484.094 353.343 475.432 334.381C466.572 314.983 465.004 294.961 471.981 274.676C474.853 266.304 480.089 259.074 487.038 253.611C505.475 239.133 524.338 225.19 542.748 210.667C550.304 204.705 557.579 198.237 564.121 191.206C570.154 184.719 571.976 176.185 572.229 166.518C476.909 208.52 382.106 250.286 286.541 292.397C290.391 295.015 293.671 297.289 296.987 299.5C379.723 354.829 462.531 410.059 545.095 465.651C552.66 470.752 558.685 478.135 566.286 485.275C460.683 485.275 356.339 485.275 251.289 485.275C252.53 483.961 253.563 482.865 254.605 481.777C265.504 470.407 274.7 457.986 277.952 442.158C281.123 426.702 281.069 411.218 276.747 395.989C271.782 378.467 259.714 366.825 243.533 359.876C224.145 351.558 204.258 344.41 184.616 336.691C169.93 330.92 155.017 325.602 140.721 318.961C134.125 315.889 128.309 310.616 122.99 305.47C115.987 298.693 113.758 289.724 113.776 280.057C113.813 260.488 120.988 243.364 131.48 227.355C135.412 221.348 139.652 215.55 144.318 208.846C134.216 213.956 124.92 218.658 115.615 223.369C78.4062 242.214 41.1968 261.058 3.97846 279.894C3.0181 280.383 1.96714 280.682 0.961487 281.072C0.961487 280.247 0.961487 279.432 0.961487 278.617Z" fill="#979797" fill-opacity="0.26"/>
</g>
<defs>
<clipPath id="clip0_54_494">
<rect x="0.770813" y="0.453369" width="655" height="379" rx="20" fill="white"/>
</clipPath>
</defs>
</svg>
