<svg width="655" height="380" viewBox="0 0 655 380" fill="none" xmlns="http://www.w3.org/2000/svg">
<g clip-path="url(#clip0_58_196)">
<rect y="0.157715" width="655" height="379" rx="20" fill="#DE2B2B"/>
<g clip-path="url(#clip1_58_196)">
<path d="M200.673 320.657L275.615 276.374V365.182V373.078H283.51H370.365H378.26V365.182V276.374L453.202 320.657L460.06 324.71L464.052 317.816L507.479 242.805L511.467 235.916L504.546 231.984L429.539 189.366L504.663 144.975L511.4 140.994L507.479 134.221L464.052 59.2107L460.099 52.3835L453.269 56.3301L376.286 100.809V13.8179V5.92204H368.391H283.51H275.615V13.8179V100.653L200.673 56.3691L193.815 52.3163L189.823 59.2107L146.396 134.221L142.475 140.994L149.212 144.975L224.336 189.366L149.329 231.984L142.408 235.916L146.396 242.805L189.823 317.816L193.815 324.71L200.673 320.657Z" stroke="#AE1818" stroke-width="15.7917"/>
<path fill-rule="evenodd" clip-rule="evenodd" d="M321.151 327.677C321.151 341.494 332.995 341.494 332.995 327.677L338.917 55.2705C338.917 39.4788 315.229 39.4788 315.229 55.2705L321.151 321.755V327.677Z" fill="#AE1818"/>
<path fill-rule="evenodd" clip-rule="evenodd" d="M337.734 302.015C351.552 309.911 343.656 331.625 331.812 331.625C335.76 321.755 337.734 313.859 337.734 302.015ZM339.708 223.057C359.448 240.823 347.604 266.484 333.786 274.38C321.942 280.302 321.942 288.198 321.942 303.989C304.177 284.25 314.047 266.484 329.838 256.614C339.708 248.718 339.708 236.875 339.708 223.057ZM341.682 163.838C341.682 185.552 308.125 191.474 308.125 207.265C308.125 213.187 310.099 225.031 319.968 230.953C319.968 209.239 337.734 207.265 349.578 195.421C363.396 181.604 363.396 157.916 341.682 140.151C341.682 148.046 341.682 155.942 341.682 163.838ZM317.994 151.994C298.255 136.203 290.359 108.567 298.255 90.8017C304.177 71.0621 337.734 69.0882 337.734 84.8798C337.734 100.671 298.255 90.8017 312.073 116.463L317.994 126.333V151.994Z" fill="#AE1818"/>
</g>
<g clip-path="url(#clip2_58_196)">
<rect x="534.938" y="23.0654" width="96.454" height="68.6116" rx="5.96623" transform="rotate(9.90124 534.938 23.0654)" fill="white"/>
<path d="M585.183 65.9451C584.494 69.8938 582.374 73.0639 578.824 75.4553C575.28 77.8072 571.514 78.635 567.526 77.9389C563.537 77.2427 560.275 75.188 557.737 71.7746C555.207 68.3218 554.286 64.621 554.975 60.6722C555.396 58.2635 556.374 56.1556 557.91 54.3485L573.702 35.5592L583.061 37.1927L573.215 48.8411C577.057 49.6745 580.168 51.7841 582.548 55.1698C584.973 58.523 585.852 62.1148 585.183 65.9451ZM574.089 69.0134C575.712 67.8726 576.685 66.3742 577.009 64.5183C577.333 62.6624 576.925 60.9228 575.784 59.2994C574.643 57.6761 573.145 56.7025 571.289 56.3785C569.433 56.0546 567.693 56.463 566.07 57.6039C564.447 58.7447 563.473 60.2431 563.149 62.099C562.825 63.9549 563.234 65.6945 564.375 67.3179C565.515 68.9412 567.014 69.9148 568.87 70.2388C570.726 70.5627 572.465 70.1543 574.089 69.0134Z" fill="#DE2B2B"/>
<path d="M614.136 55.4058L612.684 55.1525L611.516 50.2183L610.715 54.8088L608.671 54.4521L610.481 44.0865L612.228 44.3915L614.002 51.8882L618.211 45.4358L619.958 45.7408L618.149 56.1063L616.105 55.7496L616.906 51.1592L614.136 55.4058Z" fill="#DE2B2B"/>
<path d="M613.516 69.2854L613.009 66.6792L609.618 66.0873L608.274 68.3704L606.097 67.9904L611.831 58.3098L613.578 58.6148L615.693 69.6653L613.516 69.2854ZM612.11 61.8682L610.68 64.2889L612.62 64.6275L612.11 61.8682Z" fill="#DE2B2B"/>
<path d="M607.847 71.6018L609.452 75.9562L612.452 72.4057L614.836 72.8218L610.078 78.4916L609.37 82.5489L607.326 82.1922L608.037 78.1201L605.463 71.1857L607.847 71.6018Z" fill="#DE2B2B"/>
<path d="M542.946 86.9163L541.929 86.7389L541.111 83.2821L540.549 86.498L539.118 86.2482L540.385 78.9864L541.609 79.2001L542.852 84.452L545.8 79.9316L547.025 80.1453L545.757 87.407L544.325 87.1572L544.887 83.9412L542.946 86.9163ZM550.678 81.2213C551.26 80.9453 551.856 80.8604 552.465 80.9666C553.073 81.0728 553.605 81.3545 554.06 81.8116C554.516 82.2618 554.838 82.8027 555.027 83.4343C555.217 84.059 555.258 84.6826 555.15 85.305C555.041 85.9275 554.791 86.5038 554.399 87.034C554.008 87.5574 553.521 87.957 552.939 88.233C552.357 88.5021 551.762 88.5836 551.154 88.4773C550.545 88.3711 550.013 88.0929 549.557 87.6427C549.102 87.1856 548.78 86.6447 548.589 86.02C548.4 85.3884 548.36 84.7613 548.469 84.1389C548.577 83.5165 548.827 82.9436 549.218 82.4203C549.61 81.89 550.096 81.4904 550.678 81.2213ZM550.162 86.1342C550.448 86.7043 550.857 87.0358 551.389 87.1287C551.922 87.2217 552.415 87.0477 552.87 86.6068C553.331 86.1671 553.614 85.6499 553.718 85.0551C553.822 84.4604 553.731 83.878 553.446 83.3079C553.167 82.7391 552.762 82.4082 552.229 82.3152C551.697 82.2223 551.2 82.3956 550.738 82.8353C550.283 83.2762 550.004 83.794 549.9 84.3888C549.797 84.9836 549.884 85.5654 550.162 86.1342ZM562.422 90.316L561.198 90.1023L558.808 85.0563L558.024 89.5482L556.592 89.2983L557.86 82.0366L559.084 82.2502L561.474 87.2962L562.258 82.8043L563.69 83.0542L562.422 90.316ZM570.905 85.7033L568.726 85.323L567.694 91.2362L566.262 90.9863L567.295 85.0732L565.116 84.6929L565.351 83.3443L571.14 84.3547L570.905 85.7033ZM575.283 92.5608L574.928 90.7351L572.553 90.3204L571.611 91.9198L570.086 91.6536L574.102 84.8718L575.327 85.0854L576.808 92.827L575.283 92.5608ZM574.298 87.3646L573.296 89.0605L574.655 89.2977L574.298 87.3646ZM584.298 94.1343L583.074 93.9207L580.683 88.8747L579.899 93.3666L578.468 93.1167L579.735 85.855L580.959 86.0686L583.35 91.1146L584.134 86.6227L585.565 86.8726L584.298 94.1343ZM591.157 95.3316L590.802 93.5058L588.426 93.0912L587.484 94.6906L585.959 94.4244L589.976 87.6425L591.2 87.8562L592.682 95.5978L591.157 95.3316ZM590.172 90.1354L589.17 91.8313L590.529 92.0685L590.172 90.1354Z" fill="#DE2B2B"/>
</g>
</g>
<rect x="5" y="5.15771" width="645" height="369" rx="15" stroke="white" stroke-width="10"/>
<defs>
<clipPath id="clip0_58_196">
<rect y="0.157715" width="655" height="379" rx="20" fill="white"/>
</clipPath>
<clipPath id="clip1_58_196">
<rect width="404.267" height="379" fill="white" transform="translate(125.229)"/>
</clipPath>
<clipPath id="clip2_58_196">
<rect x="534.938" y="23.0654" width="96.454" height="68.6116" rx="5.96623" transform="rotate(9.90124 534.938 23.0654)" fill="white"/>
</clipPath>
</defs>
</svg>
