<svg width="46" height="46" viewBox="0 0 46 46" fill="none" xmlns="http://www.w3.org/2000/svg">
<g clip-path="url(#clip0_64_55)">
<path d="M2.02677 2.02637H9.6534L14.7632 27.5565C14.9376 28.4343 15.4151 29.2228 16.1123 29.784C16.8094 30.3452 17.6818 30.6434 18.5766 30.6262H37.1093C38.0041 30.6434 38.8764 30.3452 39.5735 29.784C40.2707 29.2228 40.7482 28.4343 40.9226 27.5565L43.9732 11.5597H11.5601M19.1867 40.1595C19.1867 41.2125 18.333 42.0662 17.28 42.0662C16.227 42.0662 15.3734 41.2125 15.3734 40.1595C15.3734 39.1065 16.227 38.2528 17.28 38.2528C18.333 38.2528 19.1867 39.1065 19.1867 40.1595ZM40.1599 40.1595C40.1599 41.2125 39.3063 42.0662 38.2532 42.0662C37.2002 42.0662 36.3466 41.2125 36.3466 40.1595C36.3466 39.1065 37.2002 38.2528 38.2532 38.2528C39.3063 38.2528 40.1599 39.1065 40.1599 40.1595Z" stroke="black" stroke-width="3" stroke-linecap="round" stroke-linejoin="round"/>
</g>
<defs>
<clipPath id="clip0_64_55">
<rect width="45.7598" height="45.7598" fill="white" transform="translate(0.120117 0.120117)"/>
</clipPath>
</defs>
</svg>
