<svg width="161" height="9" viewBox="0 0 161 9" fill="none" xmlns="http://www.w3.org/2000/svg">
<path d="M17.5192 6.604L16.1172 4.74392H15.8018V6.604H14.8793V2.24037H15.8018V3.98327H15.9872L17.4361 2.24037H18.5845L16.8821 4.26452L18.6634 6.604H17.5192ZM19.5982 6.66366V5.91366H19.8347C19.9526 5.91366 20.0478 5.89946 20.1202 5.87105C20.1926 5.84122 20.2502 5.7979 20.2928 5.74108C20.3368 5.68284 20.3738 5.6104 20.4036 5.52375L20.4569 5.38099L18.8716 2.24037H19.8262L20.8532 4.38809L21.7118 2.24037H22.6536L21.1493 5.74747C21.0769 5.9094 20.9909 6.05997 20.8915 6.19917C20.7935 6.33838 20.6678 6.45059 20.5144 6.53582C20.361 6.62105 20.165 6.66366 19.9263 6.66366H19.5982ZM26.8622 2.24037V6.604H25.9503V2.99037H24.1861V6.604H23.2741V2.24037H26.8622ZM27.7406 2.24037H28.661V4.98469H28.6973L30.5829 2.24037H31.3904V6.604H30.4679V3.85755H30.4359L28.5396 6.604H27.7406V2.24037ZM31.9865 3.00102V2.24037H35.5703V3.00102H34.2344V6.604H33.3224V3.00102H31.9865ZM36.7678 3.85329H37.8075C38.1541 3.85329 38.4524 3.9094 38.7024 4.02162C38.9538 4.13241 39.1477 4.28937 39.2841 4.4925C39.4205 4.69562 39.4879 4.93497 39.4865 5.21054C39.4879 5.48469 39.4205 5.72687 39.2841 5.9371C39.1477 6.14591 38.9538 6.30926 38.7024 6.42716C38.4524 6.54506 38.1541 6.604 37.8075 6.604H36.1776V2.24037H37.098V5.86253H37.8075C37.9737 5.86253 38.1136 5.8327 38.2273 5.77304C38.3409 5.71196 38.4268 5.6317 38.4851 5.53227C38.5447 5.43142 38.5739 5.32133 38.5724 5.20202C38.5739 5.02872 38.5085 4.88241 38.3764 4.76309C38.2457 4.64236 38.0561 4.58199 37.8075 4.58199H36.7678V3.85329Z" fill="white"/>
<path d="M1 4.66646H10M55.5 4.66646L52.5841 7.33918M55.5 4.66646L52.5841 2.104M55.5 4.66646H44.2846" stroke="white" stroke-width="1.5" stroke-linecap="square"/>
<path d="M91.3501 6.66366V5.91366H91.5866C91.7045 5.91366 91.7997 5.89946 91.8722 5.87105C91.9446 5.84122 92.0021 5.7979 92.0447 5.74108C92.0888 5.68284 92.1257 5.6104 92.1555 5.52375L92.2088 5.38099L90.6236 2.24037H91.5781L92.6051 4.38809L93.4638 2.24037H94.4055L92.9013 5.74747C92.8288 5.9094 92.7429 6.05997 92.6435 6.19917C92.5455 6.33838 92.4197 6.45059 92.2663 6.53582C92.1129 6.62105 91.9169 6.66366 91.6783 6.66366H91.3501ZM96.492 6.66366C96.1738 6.66366 95.8904 6.60898 95.6419 6.4996C95.3947 6.38881 95.1994 6.23682 95.0559 6.04363C94.9139 5.84903 94.8407 5.6246 94.8365 5.37034H95.7654C95.7711 5.47687 95.8059 5.57062 95.8699 5.65159C95.9352 5.73113 96.0218 5.79292 96.1298 5.83696C96.2377 5.88099 96.3592 5.90301 96.4941 5.90301C96.6348 5.90301 96.7591 5.87815 96.867 5.82844C96.975 5.77872 97.0595 5.70983 97.1206 5.62176C97.1816 5.53369 97.2122 5.43213 97.2122 5.31707C97.2122 5.20059 97.1795 5.09761 97.1142 5.00812C97.0502 4.91721 96.9579 4.84619 96.8372 4.79505C96.7179 4.74392 96.5758 4.71835 96.411 4.71835H96.0041V4.04079H96.411C96.5502 4.04079 96.6731 4.01665 96.7797 3.96835C96.8876 3.92005 96.9714 3.85329 97.0311 3.76807C97.0907 3.68142 97.1206 3.58057 97.1206 3.46551C97.1206 3.35613 97.0943 3.26025 97.0417 3.17787C96.9906 3.09406 96.9181 3.02872 96.8244 2.98184C96.7321 2.93497 96.6241 2.91153 96.5005 2.91153C96.3755 2.91153 96.2612 2.93426 96.1575 2.97971C96.0538 3.02375 95.9707 3.08696 95.9082 3.16934C95.8457 3.25173 95.8123 3.34832 95.8081 3.45912H94.9238C94.9281 3.2077 94.9998 2.98611 95.139 2.79434C95.2782 2.60258 95.4657 2.45273 95.7015 2.34477C95.9387 2.2354 96.2065 2.18071 96.5048 2.18071C96.8059 2.18071 97.0694 2.2354 97.2953 2.34477C97.5211 2.45415 97.6966 2.60187 97.8216 2.78795C97.948 2.97261 98.0105 3.18 98.0091 3.41011C98.0105 3.65443 97.9345 3.85827 97.7811 4.02162C97.6291 4.18497 97.4309 4.28866 97.1866 4.3327V4.36679C97.5076 4.40798 97.752 4.51949 97.9196 4.7013C98.0886 4.8817 98.1724 5.10755 98.171 5.37886C98.1724 5.62744 98.1007 5.84832 97.9558 6.0415C97.8123 6.23469 97.6142 6.38667 97.3613 6.49747C97.1085 6.60827 96.8187 6.66366 96.492 6.66366ZM98.8597 6.604V2.24037H99.7823V4.04079H101.655V2.24037H102.576V6.604H101.655V4.80145H99.7823V6.604H98.8597ZM104.088 6.604H103.1L104.606 2.24037H105.795L107.299 6.604H106.311L105.218 3.23753H105.184L104.088 6.604ZM104.027 4.8888H106.362V5.60898H104.027V4.8888ZM107.125 3.00102V2.24037H110.709V3.00102H109.373V6.604H108.461V3.00102H107.125ZM111.906 3.85329H112.946C113.293 3.85329 113.591 3.9094 113.841 4.02162C114.093 4.13241 114.286 4.28937 114.423 4.4925C114.559 4.69562 114.627 4.93497 114.625 5.21054C114.627 5.48469 114.559 5.72687 114.423 5.9371C114.286 6.14591 114.093 6.30926 113.841 6.42716C113.591 6.54506 113.293 6.604 112.946 6.604H111.316V2.24037H112.237V5.86253H112.946C113.112 5.86253 113.252 5.8327 113.366 5.77304C113.48 5.71196 113.566 5.6317 113.624 5.53227C113.683 5.43142 113.713 5.32133 113.711 5.20202C113.713 5.02872 113.647 4.88241 113.515 4.76309C113.384 4.64236 113.195 4.58199 112.946 4.58199H111.906V3.85329ZM116.748 6.604V2.24037H119.644V3.00102H117.671V3.85329H118.381C118.726 3.85329 119.023 3.9094 119.273 4.02162C119.525 4.13241 119.719 4.28937 119.855 4.4925C119.991 4.69562 120.059 4.93497 120.059 5.21054C120.059 5.48469 119.991 5.72687 119.855 5.9371C119.719 6.14591 119.525 6.30926 119.273 6.42716C119.023 6.54506 118.726 6.604 118.381 6.604H116.748ZM117.671 5.86253H118.381C118.545 5.86253 118.684 5.8327 118.798 5.77304C118.912 5.71196 118.998 5.6317 119.056 5.53227C119.116 5.43142 119.145 5.32133 119.145 5.20202C119.145 5.02872 119.079 4.88241 118.947 4.76309C118.817 4.64236 118.628 4.58199 118.381 4.58199H117.671V5.86253ZM124.667 4.42219C124.667 4.89804 124.576 5.30287 124.396 5.63667C124.217 5.97048 123.973 6.22545 123.663 6.40159C123.355 6.57631 123.008 6.66366 122.623 6.66366C122.235 6.66366 121.887 6.57559 121.579 6.39946C121.271 6.22332 121.027 5.96835 120.848 5.63454C120.669 5.30074 120.58 4.89662 120.58 4.42219C120.58 3.94633 120.669 3.5415 120.848 3.2077C121.027 2.87389 121.271 2.61963 121.579 2.44491C121.887 2.26878 122.235 2.18071 122.623 2.18071C123.008 2.18071 123.355 2.26878 123.663 2.44491C123.973 2.61963 124.217 2.87389 124.396 3.2077C124.576 3.5415 124.667 3.94633 124.667 4.42219ZM123.731 4.42219C123.731 4.11395 123.685 3.854 123.593 3.64236C123.502 3.43071 123.373 3.2702 123.207 3.16082C123.041 3.05145 122.846 2.99676 122.623 2.99676C122.4 2.99676 122.206 3.05145 122.039 3.16082C121.873 3.2702 121.744 3.43071 121.652 3.64236C121.561 3.854 121.515 4.11395 121.515 4.42219C121.515 4.73042 121.561 4.99037 121.652 5.20202C121.744 5.41366 121.873 5.57417 122.039 5.68355C122.206 5.79292 122.4 5.84761 122.623 5.84761C122.846 5.84761 123.041 5.79292 123.207 5.68355C123.373 5.57417 123.502 5.41366 123.593 5.20202C123.685 4.99037 123.731 4.73042 123.731 4.42219ZM125.113 6.604V5.86253L125.237 5.85187C125.396 5.83909 125.525 5.77872 125.623 5.67077C125.721 5.56139 125.794 5.38738 125.842 5.14875C125.892 4.90869 125.924 4.58625 125.938 4.18142L126.01 2.24037H128.972V6.604H128.075V2.97971H126.867L126.799 4.49889C126.776 4.98753 126.718 5.38667 126.624 5.69633C126.532 6.00599 126.384 6.23469 126.181 6.38241C125.979 6.53014 125.703 6.604 125.352 6.604H125.113ZM130.34 3.85329H131.38C131.726 3.85329 132.025 3.9094 132.275 4.02162C132.526 4.13241 132.72 4.28937 132.856 4.4925C132.993 4.69562 133.06 4.93497 133.059 5.21054C133.06 5.48469 132.993 5.72687 132.856 5.9371C132.72 6.14591 132.526 6.30926 132.275 6.42716C132.025 6.54506 131.726 6.604 131.38 6.604H129.75V2.24037H130.67V5.86253H131.38C131.546 5.86253 131.686 5.8327 131.8 5.77304C131.913 5.71196 131.999 5.6317 132.057 5.53227C132.117 5.43142 132.146 5.32133 132.145 5.20202C132.146 5.02872 132.081 4.88241 131.949 4.76309C131.818 4.64236 131.628 4.58199 131.38 4.58199H130.34V3.85329ZM133.968 2.24037H134.869V5.86253H136.122V2.24037H137.019V5.86253H138.257V2.24037H139.154V6.604H133.968V2.24037ZM140.086 6.604V2.24037H143.027V3.00102H141.009V4.04079H142.875V4.80145H141.009V5.84335H143.035V6.604H140.086Z" fill="white"/>
<path d="M77 4.66646H86M159 4.66646L156.084 7.33918M159 4.66646L156.084 2.104M159 4.66646H147.785" stroke="white" stroke-width="1.5" stroke-linecap="square"/>
</svg>
