<svg width="67" height="8" viewBox="0 0 67 8" fill="none" xmlns="http://www.w3.org/2000/svg">
<path d="M14.8793 6V1.63636H16.6264C16.9474 1.63636 17.2152 1.68395 17.4297 1.77912C17.6442 1.87429 17.8054 2.00639 17.9134 2.17543C18.0213 2.34304 18.0753 2.53622 18.0753 2.75497C18.0753 2.92543 18.0412 3.07528 17.973 3.20455C17.9048 3.33239 17.8111 3.4375 17.6918 3.51989C17.5739 3.60085 17.4389 3.65838 17.2869 3.69247V3.73509C17.4531 3.74219 17.6087 3.78906 17.7536 3.87571C17.8999 3.96236 18.0185 4.08381 18.1094 4.24006C18.2003 4.39489 18.2457 4.57955 18.2457 4.79403C18.2457 5.02557 18.1882 5.23224 18.0732 5.41406C17.9595 5.59446 17.7912 5.73722 17.5682 5.84233C17.3452 5.94744 17.0703 6 16.7436 6H14.8793ZM15.8018 5.24574H16.554C16.8111 5.24574 16.9986 5.19673 17.1165 5.09872C17.2344 4.99929 17.2933 4.86719 17.2933 4.70241C17.2933 4.58168 17.2642 4.47514 17.206 4.38281C17.1477 4.29048 17.0646 4.21804 16.9567 4.16548C16.8501 4.11293 16.723 4.08665 16.5753 4.08665H15.8018V5.24574ZM15.8018 3.46236H16.4858C16.6122 3.46236 16.7244 3.44034 16.8224 3.39631C16.9219 3.35085 17 3.28693 17.0568 3.20455C17.1151 3.12216 17.1442 3.02344 17.1442 2.90838C17.1442 2.75071 17.0881 2.62358 16.9759 2.52699C16.8651 2.4304 16.7074 2.3821 16.5028 2.3821H15.8018V3.46236ZM20.2347 1.63636H21.3725L22.5742 4.56818H22.6254L23.8271 1.63636H24.9648V6H24.07V3.1598H24.0337L22.9045 5.97869H22.2951L21.1658 3.14915H21.1296V6H20.2347V1.63636ZM26.4771 6H25.4885L26.9949 1.63636H28.1838L29.688 6H28.6994L27.6064 2.63352H27.5723L26.4771 6ZM26.4153 4.2848H28.7505V5.00497H26.4153V4.2848ZM33.1088 1.63636V2.39702H31.1358V6H30.2132V1.63636H33.1088ZM33.9185 6H32.9299L34.4363 1.63636H35.6252L37.1294 6H36.1408L35.0478 2.63352H35.0137L33.9185 6ZM33.8567 4.2848H36.1919V5.00497H33.8567V4.2848ZM39.242 6.05966C38.9238 6.05966 38.6404 6.00497 38.3919 5.8956C38.1447 5.7848 37.9494 5.63281 37.8059 5.43963C37.6639 5.24503 37.5907 5.0206 37.5865 4.76634H38.5154C38.5211 4.87287 38.5559 4.96662 38.6199 5.04759C38.6852 5.12713 38.7718 5.18892 38.8798 5.23295C38.9877 5.27699 39.1092 5.29901 39.2441 5.29901C39.3848 5.29901 39.5091 5.27415 39.617 5.22443C39.725 5.17472 39.8095 5.10582 39.8706 5.01776C39.9316 4.92969 39.9622 4.82812 39.9622 4.71307C39.9622 4.59659 39.9295 4.49361 39.8642 4.40412C39.8002 4.31321 39.7079 4.24219 39.5872 4.19105C39.4679 4.13991 39.3258 4.11435 39.161 4.11435H38.7541V3.43679H39.161C39.3002 3.43679 39.4231 3.41264 39.5297 3.36435C39.6376 3.31605 39.7214 3.24929 39.7811 3.16406C39.8407 3.07741 39.8706 2.97656 39.8706 2.86151C39.8706 2.75213 39.8443 2.65625 39.7917 2.57386C39.7406 2.49006 39.6681 2.42472 39.5744 2.37784C39.4821 2.33097 39.3741 2.30753 39.2505 2.30753C39.1255 2.30753 39.0112 2.33026 38.9075 2.37571C38.8038 2.41974 38.7207 2.48295 38.6582 2.56534C38.5957 2.64773 38.5623 2.74432 38.5581 2.85511H37.6738C37.6781 2.60369 37.7498 2.3821 37.889 2.19034C38.0282 1.99858 38.2157 1.84872 38.4515 1.74077C38.6887 1.63139 38.9565 1.5767 39.2548 1.5767C39.5559 1.5767 39.8194 1.63139 40.0453 1.74077C40.2711 1.85014 40.4466 1.99787 40.5716 2.18395C40.698 2.36861 40.7605 2.57599 40.7591 2.80611C40.7605 3.05043 40.6845 3.25426 40.5311 3.41761C40.3791 3.58097 40.1809 3.68466 39.9366 3.72869V3.76278C40.2576 3.80398 40.502 3.91548 40.6696 4.0973C40.8386 4.2777 40.9224 4.50355 40.921 4.77486C40.9224 5.02344 40.8507 5.24432 40.7058 5.4375C40.5623 5.63068 40.3642 5.78267 40.1113 5.89347C39.8585 6.00426 39.5687 6.05966 39.242 6.05966ZM41.6097 1.63636H42.5302V4.38068H42.5664L44.4521 1.63636H45.2596V6H44.337V3.25355H44.305L42.4087 6H41.6097V1.63636ZM46.0218 6V1.63636H46.9444V3.43679H48.8173V1.63636H49.7377V6H48.8173V4.19744H46.9444V6H46.0218Z" fill="white"/>
<path d="M1 4.06245H10M65.5 4.06245L62.5841 6.73518M65.5 4.06245L62.5841 1.5M65.5 4.06245H54.2846" stroke="white" stroke-width="1.5" stroke-linecap="square"/>
</svg>
