<svg width="222" height="39" viewBox="0 0 222 39" fill="none" xmlns="http://www.w3.org/2000/svg">
<path d="M42.1418 0V14.604H37.3452V3.98292L21.0709 14.604L4.79663 3.98292V14.604H0V0H6.57395L21.0709 9.31489L35.5679 0H42.1418Z" fill="white"/>
<path d="M87.2901 14.604H45.1483V0H87.2901V14.604ZM82.4935 4.62532H49.9877L49.9449 9.97871H82.4292L82.4935 4.62532Z" fill="white"/>
<path d="M132.438 14.604H90.2965V0H125.158L132.438 14.604ZM122.138 4.62532H95.136L95.0931 9.97871H124.729L122.138 4.62532Z" fill="white"/>
<path d="M176.102 9.29347H138.736V10.6211H176.102V14.604H133.939V0H176.102V3.98292H138.736V5.31056H176.102V9.29347Z" fill="white"/>
<path d="M183.927 0V10.2999H221.229V14.604H179.087V0H183.927Z" fill="white"/>
<path d="M9.63609 29.953H127.642V28.6253H10.2785L9.63609 29.953ZM7.36626 34.5783L5.39621 38.604H0L7.13071 24H132.438V38.604H127.642V34.5783H7.36626Z" fill="white"/>
</svg>
