<svg width="2452" height="71" viewBox="0 0 2452 71" fill="none" xmlns="http://www.w3.org/2000/svg">
<path d="M71.4463 0V27.8288H146.441V19.6838H79.7085V8.82376H146.441V0H71.4463Z" fill="white"/>
<path d="M161.058 27.8288V19.6838L190.929 27.8288L2452 27.8288V19.005H192.2L173.134 14.2538L192.2 8.82376L2452 8.82376V0H191.564L161.058 8.82376V0H152.796V27.8288H161.058Z" fill="white"/>
<path d="M107.464 70.9997L144.11 53.2833V70.9997H152.806V43.0622H144.11L106.222 62.1415L79.6792 62.1418V43.0625H70.9834V71L107.464 70.9997Z" fill="white"/>
<path d="M219.267 52.6018V70.9997H227.962V43.0622H159.018V70.9997H167.713V52.6018H219.267Z" fill="white"/>
<path d="M64.7722 43.0625V51.9207L0.155275 51.9203L0 43.0621L64.7722 43.0625Z" fill="white"/>
<path d="M64.7722 62.1418V71L0.1554 70.9995L0.155275 62.1413L64.7722 62.1418Z" fill="white"/>
</svg>
